<svg id="Layer_1" data-name="Layer 1" xmlns="http://www.w3.org/2000/svg" xmlns:xlink="http://www.w3.org/1999/xlink" width="2500" height="1700" viewBox="0 0 2500 1700"><defs><linearGradient id="linear-gradient" x1="1250" y1="-137.08" x2="1250" y2="2380.92" gradientUnits="userSpaceOnUse"><stop offset="0" stop-color="#fff"/><stop offset="1" stop-color="#1b75bc"/></linearGradient></defs><title>Artboard 1</title><rect x="-9" y="-10.6" width="2518" height="1710.55" fill="#bee6f3"/><path d="M2131.4,213a167.2,167.2,0,0,0-322.9-33.2,7.3,7.3,0,0,0-.7,2.3,166.7,166.7,0,0,0,101.5,211.6,7.3,7.3,0,0,0,2.2.7,165.9,165.9,0,0,0,70.4,8.2l56.4,398.9a7.3,7.3,0,1,0,14.5-2.1l-56.4-398.9a166.6,166.6,0,0,0,41-13l.3-.2a167.4,167.4,0,0,0,85.4-94.5,7.2,7.2,0,0,0,.6-1.9A166,166,0,0,0,2131.4,213Zm-14.5,2.1a151.4,151.4,0,0,1-6.7,70.2c-51.1,36.1-85.8,25.4-106,9.8a90.8,90.8,0,0,1-29.4-41.3c14.9,8.4,37.9,14.6,61.6,11.6,15.7-2,38.7-9.3,56.8-33.3,7.4-9.9,14-22.7,18.8-39A154.1,154.1,0,0,1,2116.9,215.1ZM1987.1,387.1a7,7,0,0,0-1.4.5,151.4,151.4,0,0,1-68.8-6.9c-36.1-51.1-25.5-85.5-9.8-106a90.8,90.8,0,0,1,41.3-29.4c-8.4,14.9-14.6,37.9-11.6,61.5s16.3,58.9,72.3,75.6a152.4,152.4,0,0,1-20.5,4.7A7,7,0,0,0,1987.1,387.1ZM2014.6,92c36.2,51.2,25.3,85.9,9.9,106.1a90.8,90.8,0,0,1-41.3,29.4c8.4-14.9,14.6-38,11.6-61.6s-16.3-58.9-72.2-75.6a148.4,148.4,0,0,1,92.1,1.6ZM1814.8,257.8a151.4,151.4,0,0,1,6.7-70.3c51.1-36.1,85.8-25.4,106-9.8a90.8,90.8,0,0,1,29.4,41.3c-14.9-8.4-38-14.6-61.6-11.6s-58.9,16.3-75.6,72.2A152.3,152.3,0,0,1,1814.8,257.8Z" fill="#511e2e"/><path d="M2488.3,267.4A194.1,194.1,0,0,0,2387.1,12.2c-68.2-29.5-144.2-16.6-198.5,26.9a8.5,8.5,0,0,0-2.1,1.9,192.7,192.7,0,0,0-54.5,72.4c-29.5,68.3-16.5,144.3,27,198.6a8.5,8.5,0,0,0,1.8,2,192.6,192.6,0,0,0,64.7,50.8L2039.9,794a8.5,8.5,0,1,0,15.7,6.8l185.5-429.2a193.4,193.4,0,0,0,48.5,11.9h.4a194.3,194.3,0,0,0,141.7-41.9,8.4,8.4,0,0,0,1.8-1.5A192.7,192.7,0,0,0,2488.3,267.4Zm-15.7-6.8a175.7,175.7,0,0,1-49.2,65.5c-72.5,4.8-100.4-26.8-110.9-54.4-8.3-21.8-7.4-44.2-4.1-58.8,9.6,17.4,28.7,37.4,53.9,48.7,16.7,7.5,44,14.2,76.4,1.4,13.3-5.3,27.6-14,42.3-27.2A178.9,178.9,0,0,1,2472.6,260.6ZM2240,352.5a8.1,8.1,0,0,0-1.7-.4,175.7,175.7,0,0,1-64-48.4c-4.8-72.5,26.5-100.1,54.4-110.9,21.8-8.3,44.1-7.4,58.7-4.1-17.4,9.6-37.4,28.7-48.7,53.9-10.6,23.6-19.5,68.2,25.8,118.6a176.9,176.9,0,0,1-23.1-7.8A8.1,8.1,0,0,0,2240,352.5ZM2445.8,76.8c4.9,72.6-27,100.4-54.4,111.1-21.8,8.3-44.2,7.4-58.8,4.1,17.4-9.6,37.5-28.7,48.8-53.9,10.6-23.6,19.5-68.2-25.8-118.6a172.2,172.2,0,0,1,90.2,57.3Zm-298.3,43.3a175.7,175.7,0,0,1,49.2-65.5c72.5-4.8,100.3,26.8,110.9,54.4,8.3,21.8,7.4,44.2,4.1,58.8-9.6-17.4-28.7-37.5-53.9-48.8-23.6-10.6-68.2-19.5-118.6,25.8A176.7,176.7,0,0,1,2147.6,120.1Z" fill="#511e2e"/><circle cx="1780.1" cy="1416.9" r="128.4" fill="#511e2e"/><circle cx="1072.9" cy="1333.5" r="128.4" fill="#511e2e"/><path d="M2237.2,744.4c-15.7,9-31.1,19-44.4,31.5-32.1,29.4-54.5,69-64,111.5a222.1,222.1,0,0,0-4.4,66.8,282.1,282.1,0,0,1,68.5-85.8,18.7,18.7,0,1,1,23.9,28.6,241.3,241.3,0,0,0-74,109.7,44.1,44.1,0,0,1-3.8,8.8c3.4,8,9.1,14.5,13.4,21.9a247.8,247.8,0,0,0,58.4-7.8c16.5-4.2,32.2-11.1,47.8-17.9,7.2-3.2,13.7-9.6,22.2-8.2,11.2,1.1,19.1,13.5,15.4,24.1-2.3,8.3-10.8,11.9-17.6,15.8-9.4,4.6-19.2,8.5-28.8,12.4-24.4,10-50.4,15.5-76.6,17.9,12.5,14.7,26.3,28.3,42.1,39.2,18.3,12.4,37.9,23.5,59.2,30,10.7,2.9,21.3,6.2,32.3,7.8,37.8,6,77.5,2.3,112.9-12.6,10-4,20-8.2,29-14.1-8.3-60.6-27.3-119.5-53.7-174.6a631.2,631.2,0,0,0-69.7-114.4C2299.6,801.5,2270.4,770.5,2237.2,744.4Z" fill="#fff"/><path d="M2112.1,1046.3c-4.8-11.4-14-20-22.2-29a219.6,219.6,0,0,0-116.6-61.7c-20.3-3-40.9-4.5-61.3-2a213.6,213.6,0,0,0-159.7,102.7c-24.2,40.1-34.5,88.2-29.4,134.7a224.7,224.7,0,0,0,20.7,72.4c1.8,4.1,5.2,7.2,7,11.3,4.1,10.9,11.5,20,18.6,29a212.3,212.3,0,0,0,79.6,62.9c16.8,8.3,35.1,13.1,53.4,16.7,38,6.3,77.9,3.3,113.7-11.5,11.2-4.4,22.3-9.1,32.3-15.8,49.2-28,84.8-77.4,98.3-132.1a219,219,0,0,0-10.1-135.8c-2.7-6-7.1-10.9-10.6-16.5C2119.9,1063.9,2116.7,1054.7,2112.1,1046.3Zm-94.5,184.2a18.7,18.7,0,0,1-14.6,10.8c-6.5.9-12.5-2.3-18.5-4.1l-157.6-51.9c-9.1-3.3-18.6-5.4-27.4-9.5-10.9-5.9-12.2-22.6-2.6-30.3a18.8,18.8,0,0,1,18.1-3.4l191,62.9C2016.2,1207.9,2022.3,1220.8,2017.6,1230.5Zm84.8-39.2c-1.7,7.8-9.1,13.7-17,14.2-4.4.3-8.6-1.4-12.6-2.7-43.9-14.4-87.8-29-131.7-43.3-5.1-1.6-10.1-4.7-12.4-9.7a18.4,18.4,0,0,1,3.1-21.9,18.9,18.9,0,0,1,19.2-4.5l139.1,45.8C2099.3,1171.9,2104.9,1182.2,2102.5,1191.3Z" fill="#fff"/><path d="M1684.6,1244.4a240.1,240.1,0,0,0-126-6.1c-5.5,1.4-11.7,1.1-16.4-2.2-7.8-4.9-10.7-16-6.3-24.1,2.6-5.4,8.1-8.9,13.9-10,36.7-8,75-9,111.9-1.8-41.7-42.3-101.9-65.9-161.3-62.9-28.5.9-56.7,8.2-82.5,20.3a361.5,361.5,0,0,0,2.2,41.2c2.7,20,5.5,40,10,59.7a638.3,638.3,0,0,0,67.6,172c26,45.5,57.3,88,94.2,125.2,7.4-3.3,15.2-5.7,22.1-10,10.8-6.4,21.7-12.7,31.6-20.5a214.7,214.7,0,0,0,56.4-67.8,218.8,218.8,0,0,0,22.8-132.7,267.6,267.6,0,0,1-70.4,57.7c-8.3,4.4-16.1,10.9-25.7,12.4s-20.3-8-20-18.4a18.3,18.3,0,0,1,8.9-16,372.2,372.2,0,0,0,44.1-27.2,247.4,247.4,0,0,0,49.5-51.2,294.7,294.7,0,0,1-14.3-35.2A31.7,31.7,0,0,1,1684.6,1244.4Z" fill="#fff"/><path d="M2260.4,715.2c-2.7-2.5-4.4-5.9-7.3-8.3a18.6,18.6,0,0,0-18.6-2.6,219.9,219.9,0,0,0-54.7,33.6,253.5,253.5,0,0,0-91.1,229.3c-23.6-18.8-51.2-32-79.7-41.2-56.4-17.2-118.9-14.1-172.9,9.6a250.2,250.2,0,0,0-106.5,87.2,254.2,254.2,0,0,0-45.1,146.9c-17.8-16.4-37.6-30.7-59.1-41.7a250.9,250.9,0,0,0-236.8,2.9,18.7,18.7,0,0,0-9.2,11.5c-2,5.7,1.1,11.5.9,17.2a549.6,549.6,0,0,0,15.3,114.7c17.4,71.5,47,139.9,86.3,202.1,27.4,43,59.3,83.2,96.5,118.1,5.8,5.8,15.5,7.2,22.5,2.9,3.6-1.7,5.4-5.3,7.9-8.1,6.5-3.3,13.5-5.3,19.8-9,12.5-7.3,25-14.7,36.7-23.2a252,252,0,0,0,98.8-203.5c12.1,11.9,25.8,22,40,31.3,19.6,11.8,40.3,22,62.4,28.2,15.7,4.2,31.6,8.2,47.9,9.3a244.4,244.4,0,0,0,104.4-11.8c16.2-6.2,32.6-12.4,47.2-21.9,8.9-5.6,18.1-10.9,26.5-17.3a252.1,252.1,0,0,0,78.1-102,255.7,255.7,0,0,0,17.7-129.7c30.7,22.5,66,39.2,103.6,46.2a250.2,250.2,0,0,0,120.1-5.3c14.1-4.4,27.7-10.2,41.1-16.2,7.1-3.6,13.9-8,20.8-12.1,4.9-2.8,7.9-7.8,10.9-12.5s2.3-11.1,1.5-16.6c-10.8-82.1-39.6-161.4-80.2-233.4C2368.5,823.6,2320.1,762.8,2260.4,715.2ZM1711.2,1282a247.4,247.4,0,0,1-49.5,51.2,372.2,372.2,0,0,1-44.1,27.2,18.3,18.3,0,0,0-8.9,16c-.3,10.4,9.7,19.5,20,18.4s17.3-7.9,25.7-12.4a267.6,267.6,0,0,0,70.4-57.7,218.8,218.8,0,0,1-22.8,132.7,214.7,214.7,0,0,1-56.4,67.8c-9.9,7.8-20.8,14-31.6,20.5-6.9,4.3-14.7,6.8-22.1,10-36.9-37.2-68.2-79.8-94.2-125.2a638.3,638.3,0,0,1-67.6-172c-4.5-19.7-7.3-39.7-10-59.7a361.5,361.5,0,0,1-2.2-41.2c25.8-12.1,54-19.4,82.5-20.3,59.4-3,119.6,20.6,161.3,62.9-36.9-7.2-75.2-6.2-111.9,1.8-5.8,1-11.3,4.6-13.9,10-4.4,8.1-1.5,19.2,6.3,24.1,4.8,3.3,10.9,3.6,16.4,2.2a240.1,240.1,0,0,1,126,6.1,31.7,31.7,0,0,0,12.3,2.5A294.7,294.7,0,0,0,1711.2,1282Zm425.3-194a219,219,0,0,1,10.1,135.8c-13.5,54.7-49.1,104.2-98.3,132.1-10,6.7-21.2,11.4-32.3,15.8-35.7,14.8-75.7,17.8-113.7,11.5-18.3-3.6-36.6-8.4-53.4-16.7a212.3,212.3,0,0,1-79.6-62.9c-7.1-9-14.6-18.1-18.6-29-1.8-4.1-5.2-7.2-7-11.3a224.7,224.7,0,0,1-20.7-72.4c-5.1-46.5,5.2-94.7,29.4-134.7A213.6,213.6,0,0,1,1912,953.6c20.4-2.6,41.1-1,61.3,2a219.6,219.6,0,0,1,116.6,61.7c8.2,9,17.4,17.6,22.2,29,4.6,8.4,7.8,17.6,13.8,25.2C2129.4,1077,2133.8,1082,2136.5,1087.9Zm258.6-138.6c26.4,55.1,45.4,114,53.7,174.6-9,6-19,10.1-29,14.1-35.4,14.9-75.1,18.6-112.9,12.6-11-1.6-21.6-4.8-32.3-7.8-21.3-6.5-40.9-17.5-59.2-30-15.8-11-29.7-24.6-42.1-39.2,26.2-2.4,52.2-7.9,76.6-17.9,9.7-4,19.4-7.8,28.8-12.4,6.8-3.9,15.3-7.5,17.6-15.8,3.7-10.6-4.2-23-15.4-24.1-8.4-1.5-15,5-22.2,8.2-15.6,6.8-31.3,13.7-47.8,17.9a247.8,247.8,0,0,1-58.4,7.8c-4.3-7.4-10.1-14-13.4-21.9a44.1,44.1,0,0,0,3.8-8.8,241.3,241.3,0,0,1,74-109.7,18.7,18.7,0,1,0-23.9-28.6,282.1,282.1,0,0,0-68.5,85.8,222.1,222.1,0,0,1,4.4-66.8c9.5-42.5,31.8-82.1,64-111.5,13.2-12.5,28.6-22.5,44.4-31.5,33.2,26.2,62.4,57.1,88.2,90.6A631.2,631.2,0,0,1,2395.1,949.3Z" fill="#511e2e"/><path d="M1815,1142.1a18.8,18.8,0,0,0-18.1,3.4c-9.7,7.6-8.3,24.4,2.6,30.3,8.8,4.1,18.3,6.2,27.4,9.5l157.6,51.9c6,1.8,12,5,18.5,4.1a18.7,18.7,0,0,0,14.6-10.8c4.6-9.7-1.4-22.6-11.7-25.5Z" fill="#511e2e"/><path d="M1951.1,1123.3a18.9,18.9,0,0,0-19.2,4.5,18.4,18.4,0,0,0-3.1,21.9c2.3,5,7.3,8.1,12.4,9.7,44,14.3,87.8,28.9,131.7,43.3,4.1,1.4,8.2,3,12.6,2.7,7.9-.5,15.2-6.4,17-14.2s-3.2-19.4-12.3-22.1Z" fill="#511e2e"/><path d="M2202.8,1129.6c75.5,0,118.9-15.8,131.9-47.9l.2-.7a60.6,60.6,0,0,0,4-22.1c0-29.5-22.4-41.2-43.5-45.7-11.9,20.4-45.6,32.8-92.6,32.8s-80.9-12.5-92.7-33c-21,4-43.3,15.4-43.3,45.9C2066.8,1076.3,2066.8,1129.6,2202.8,1129.6Zm69.5-75.6a7,7,0,0,1,9.2-3.6l13.1,5.7a7,7,0,1,1-5.6,12.8l-13.1-5.7A7,7,0,0,1,2272.3,1053.9Zm-51.7,17.1,13.8-3.6a7,7,0,1,1,3.6,13.5l-13.8,3.6-1.8.2a7,7,0,0,1-1.8-13.7Zm-56.9-7.9a7,7,0,0,1,8.6,4.9l3.7,13.8a7,7,0,0,1-4.9,8.6l-1.8.3a7,7,0,0,1-6.7-5.1l-3.7-13.8A7,7,0,0,1,2163.8,1063.1Zm-59.7-8.4,12-7.7a7,7,0,1,1,7.5,11.7l-12,7.7a7,7,0,0,1-7.5-11.7Z" fill="#fff" stroke="#231f20" stroke-miterlimit="10"/><path d="M2288.7,1339.1c-7,6.1-20.8,15.2-42,16.5s-35.4-5.4-44.1-11.5c-8,5.6-21.6,11.6-39.3,11.6h-4.5c-19.8-1.3-34-9.5-41.9-16.6a61.4,61.4,0,0,1-45.8,5.8,85,85,0,0,1-22.5-9.3L2081,1466c9.5,4.9,45.8,20.4,122,20.4s111.6-15.1,121.6-20.2l32.3-130.5a85.4,85.4,0,0,1-22.3,9.2A61.4,61.4,0,0,1,2288.7,1339.1Zm-153.6,122.9h-.9a7,7,0,0,1-6.9-6.1l-11.2-86.3a7,7,0,1,1,13.8-1.8l11.2,86.3A7,7,0,0,1,2135.1,1462.1Zm74.6-1.8a7,7,0,0,1-13.9,0v-86.8a7,7,0,0,1,13.9,0Zm79.4-90.5-11.2,86.3a7,7,0,0,1-6.9,6.1h-.9a7,7,0,0,1-6-7.8l11.2-86.3a7,7,0,1,1,13.8,1.8Z" fill="#fff" stroke="#231f20" stroke-miterlimit="10"/><path d="M2202.8,1029.2c46.7,0,80.6-14,80.6-33.4,0-57.4-70.8-76.9-101.3-82.7.3,14.2-13,22.3-24.2,29.1-16.8,10.2-35.8,21.6-35.8,53.5C2122.2,1015.2,2156.1,1029.2,2202.8,1029.2Zm32.6-55,12-7.7a7,7,0,0,1,7.5,11.7l-12,7.7a7,7,0,0,1-7.5-11.7Zm-44.9-25.7,13.8-3.6a7,7,0,1,1,3.6,13.5L2194,962l-1.8.2a7,7,0,0,1-1.8-13.7Zm-35,31.4a7,7,0,0,1,9.2-3.6l13.1,5.7a7,7,0,1,1-5.6,12.8l-13.1-5.7A7,7,0,0,1,2155.5,979.9Z" fill="#fff" stroke="#231f20" stroke-miterlimit="10"/><path d="M2202.8,1333.5h0Z" fill="#fff" stroke="#231f20" stroke-miterlimit="10"/><path d="M2202.8,1146.3c-75,0-122.6-16.1-142.3-48-31.6,34.3-50.7,89.5-46.4,139.5,16.2,9.7,26.2,2,40.7-9.3,16.4-12.7,36.8-28.5,70.4-17.1,9.7,3.3,18.1,10.9,26.1,18.2s14,12.8,21,15.4a40.6,40.6,0,0,0,44.3-10.8c2.9-3.3,6-7.5,9.3-11.9,12.2-16.5,27.3-37,51.1-35.5,14.5,1,24,7.3,33.2,13.4a132.5,132.5,0,0,0,12.5,7.7c12.3,6.4,24.1,5.3,35.9-3.4s20-21.3,26-32.2c-7.9-28.1-21.7-54.3-39.6-73.8C2325.3,1130.2,2277.7,1146.3,2202.8,1146.3Z" fill="#fff" stroke="#231f20" stroke-miterlimit="10"/><path d="M2275.9,1063.1l13.1,5.7a7,7,0,0,0,5.6-12.8l-13.1-5.7a7,7,0,1,0-5.6,12.8Z" fill="#511e2e"/><path d="M2159,989.1l13.1,5.7a7,7,0,0,0,5.6-12.8l-13.1-5.7a7,7,0,0,0-5.6,12.8Z" fill="#511e2e"/><path d="M2192.2,962.2l1.8-.2,13.8-3.6a7,7,0,1,0-3.6-13.5l-13.8,3.6a7,7,0,0,0,1.8,13.7Z" fill="#511e2e"/><path d="M2239.2,987.1a6.9,6.9,0,0,0,3.8-1.1l12-7.7a7,7,0,0,0-7.5-11.7l-12,7.7a7,7,0,0,0,3.8,12.8Z" fill="#511e2e"/><path d="M2222.4,1084.7l1.8-.2,13.8-3.6a7,7,0,1,0-3.6-13.5l-13.8,3.6a7,7,0,0,0,1.8,13.7Z" fill="#511e2e"/><path d="M2202.8,1366.5a7,7,0,0,0-7,7v86.8a7,7,0,0,0,13.9,0v-86.8A7,7,0,0,0,2202.8,1366.5Z" fill="#511e2e"/><path d="M2283.1,1362a6.9,6.9,0,0,0-7.8,6l-11.2,86.3a7,7,0,0,0,6,7.8h.9a7,7,0,0,0,6.9-6.1l11.2-86.3A7,7,0,0,0,2283.1,1362Z" fill="#511e2e"/><path d="M2162.6,1085.5a7,7,0,0,0,6.7,5.1l1.8-.3a7,7,0,0,0,4.9-8.6l-3.7-13.8a7,7,0,1,0-13.5,3.7Z" fill="#511e2e"/><path d="M2355.6,1058.8c0-31.6-20.1-53.8-55.5-61.8,0-.4.1-.8.1-1.2,0-63.3-69.3-94.1-128.6-101.3a8.4,8.4,0,0,0-8.4,12.2c4.6,8.6,3,10.9-13.9,21.2s-43.8,26.5-43.8,67.8c0,.3.1.6.1,1-35.4,7.3-55.5,29.6-55.5,62.1a81.1,81.1,0,0,0,3.2,22.9h0c-55.9,55.2-79.2,169.3-26.5,235.1l38.8,156.7a8.4,8.4,0,0,0,3.5,4.9c1.5,1,38,24.7,133.9,24.7s132.3-23.7,133.9-24.7a8.1,8.1,0,0,0,3.6-6.7l38.5-155.1c52.5-65.8,29.2-179.6-26.5-234.8A81.2,81.2,0,0,0,2355.6,1058.8ZM2157.9,942.3c11.2-6.8,24.6-14.9,24.2-29.1,30.5,5.7,101.3,25.3,101.3,82.7,0,19.3-33.9,33.4-80.6,33.4s-80.6-14-80.6-33.4C2122.2,963.9,2141.2,952.4,2157.9,942.3Zm-47.8,70.6c11.8,20.5,45.6,33,92.7,33s80.7-12.4,92.6-32.8c21,4.5,43.5,16.2,43.5,45.7a60.6,60.6,0,0,1-4,22.1l-.2.7c-13,32.2-56.4,47.9-131.9,47.9-136.1,0-136.1-53.2-136.1-70.7C2066.8,1028.4,2089.1,1017,2110.1,1012.9Zm214.4,453.3c-10,5.1-45.8,20.2-121.6,20.2s-112.5-15.5-122-20.4l-32.3-130.4a85,85,0,0,0,22.5,9.3,61.4,61.4,0,0,0,45.8-5.8c7.9,7,22.2,15.3,41.9,16.6h4.5c17.7,0,31.3-6.1,39.3-11.6,8.7,6.1,24.1,12.7,44.1,11.5s34.9-10.4,42-16.5a61.4,61.4,0,0,0,45.8,5.8,85.4,85.4,0,0,0,22.3-9.2Zm-121.7-132.7h0Zm181.9-161.3c-6,10.9-14.9,24.1-26,32.2s-23.6,9.9-35.9,3.4a132.5,132.5,0,0,1-12.5-7.7c-9.2-6.1-18.7-12.5-33.2-13.4-23.7-1.5-38.8,19-51.1,35.5-3.3,4.4-6.4,8.6-9.3,11.9a40.6,40.6,0,0,1-44.3,10.8c-7-2.6-13.8-8.8-21-15.4s-16.4-14.9-26.1-18.2c-33.7-11.4-54.1,4.4-70.4,17.1-14.5,11.3-24.5,19-40.7,9.3-4.2-50,14.8-105.2,46.4-139.5,19.7,31.9,67.3,48,142.3,48s122.5-16.1,142.2-47.9C2363,1117.9,2376.8,1144.1,2384.7,1172.2Z" fill="#511e2e"/><path d="M2107.8,1067.6a6.9,6.9,0,0,0,3.8-1.1l12-7.7a7,7,0,1,0-7.5-11.7l-12,7.7a7,7,0,0,0,3.8,12.8Z" fill="#511e2e"/><path d="M2129.9,1368a7,7,0,1,0-13.8,1.8l11.2,86.3a7,7,0,0,0,6.9,6.1h.9a7,7,0,0,0,6-7.8Z" fill="#511e2e"/><path d="M2082,1488.8c-4.2,3.9-7.1,8.9-11.3,12.7s-8.4,6.6-13.7,6.4-10.3-3.8-14.1-7.6-6.8-9.2-11.7-12.4a9.8,9.8,0,0,0-9.3-1.3c-4.1,1.7-7.1,5.2-9.7,8.7s-6.6,7.7-10.9,10.3a14.1,14.1,0,0,1-10.7,1.8c-4.8-1.3-8.6-4.6-11.9-8.2s-6.8-9.6-12.1-12.4a8.2,8.2,0,0,0-7.9.2,71.3,71.3,0,0,0,7.6,13.6,73.3,73.3,0,0,0,35.1,26.9,74.5,74.5,0,0,0,25.8,4.2c5.7-.4,11.5-.7,17.1-2.3a73,73,0,0,0,48.4-41.9,8.2,8.2,0,0,0-4.7-1.7C2085.7,1485.9,2083.6,1487.3,2082,1488.8Z" fill="#fff" stroke="#231f20" stroke-miterlimit="10"/><path d="M2143.7,1426.6a87.4,87.4,0,0,0-16.2,5.7,80.8,80.8,0,0,0-17.1,10.7c.1,3.5.8,6.9.9,10.3a84.3,84.3,0,0,0,35.9,14c2.7.5,5.8,0,7.9,2.1a6.4,6.4,0,0,1-.7,9.8c-2.2,1.7-5.1,1.1-7.7.8a97.8,97.8,0,0,1-33.8-10.9,71.9,71.9,0,0,0,5.7,14.3,76.3,76.3,0,0,0,12.9,17.7,89.8,89.8,0,0,0,9.3,7.9,70.8,70.8,0,0,0,36.6,13.3,55.7,55.7,0,0,0,12.6-.1c2.1-1.2,4.5-1.9,6.5-3.3a22.9,22.9,0,0,0,9.3-13,26.8,26.8,0,0,0-1.6-19,36.1,36.1,0,0,0-5.2-7.4,6.3,6.3,0,0,1-1.9-6.6,7.7,7.7,0,0,1,2.7-3.7,23.8,23.8,0,0,0,6.8-11.5c2.6-9.1-.2-19.8-7.5-26.1a27.5,27.5,0,0,0-5.2-3.4,7,7,0,0,1-2.6-8.7c.6-1.4,2-2.4,3-3.5a25.4,25.4,0,0,0,6.5-16.2c.4-8.9-3.9-18.2-11.8-22.6-1.9-.8-3.8-2.1-5.9-1.9a62.1,62.1,0,0,0-7.8.4,71.1,71.1,0,0,0-36.8,14.9,73.3,73.3,0,0,0-24.4,34.4,95.3,95.3,0,0,1,29.4-11.4,6.3,6.3,0,0,1,5.3,1.3,6.4,6.4,0,0,1,1,8.7C2148.4,1425.7,2145.9,1426.1,2143.7,1426.6Z" fill="#fff" stroke="#231f20" stroke-miterlimit="10"/><path d="M1986.1,1436c2.7,2.2,6.3,3.7,9.9,2.8s7.7-4.5,10.7-7.8,6.6-8.7,11.3-11.5a13.4,13.4,0,0,1,11.2-1.7c4.8,1.6,8.6,5.3,11.7,9.2s6.7,8.5,11.5,10.9a11.1,11.1,0,0,0,10,0c5.3-2.7,8.8-7.6,12.4-12.1s6.7-7.6,11.6-8.7a80.9,80.9,0,0,0-11.7-13.8,77.4,77.4,0,0,0-19.5-12.7,72.4,72.4,0,0,0-57.1-.7,73.5,73.5,0,0,0-33.1,27.5,17.9,17.9,0,0,1,7.5,4.1C1977.7,1425.8,1980.8,1432,1986.1,1436Z" fill="#fff" stroke="#231f20" stroke-miterlimit="10"/><path d="M1963.2,1475.3c3.6.1,6.9,2,9.5,4.4,4.6,3.9,7.5,9.3,12,13.3,2.5,2.3,5.6,4.3,9.1,4.3s6.6-2,9.1-4.2c5-4.3,8.1-10.4,13.5-14.3,3.4-2.6,7.8-4.1,12-3s8.9,5.1,12.2,9,6.9,8.9,11.9,11.3a11.1,11.1,0,0,0,10.3-.3c5.5-2.9,9-8.2,12.8-12.8s6.2-6.7,10.7-7.7,6.9,1,9.6,3.2a75.9,75.9,0,0,0,2.5-13.3c.1-.8-.6-1.4-1.1-2-2.1-2.4-4.3-5-7.4-6s-5.2.3-7.2,2c-4.4,3.7-7.3,8.9-11.5,12.9s-8.4,6.9-13.8,7-10.1-3.3-13.9-7-7.3-9.9-12.5-13.2a9.7,9.7,0,0,0-9.4-1c-4.2,1.9-7.2,5.7-10,9.3s-7.4,8.4-12.6,10.6a13.8,13.8,0,0,1-12-.7c-5.9-3.1-9.9-8.6-14-13.6-2.6-3-5.7-6.2-9.9-6.5s-7.5,3.2-10.1,6.2a78.5,78.5,0,0,0,2.5,14.7A13.3,13.3,0,0,1,1963.2,1475.3Z" fill="#fff" stroke="#231f20" stroke-miterlimit="10"/><path d="M1933.9,1441.3c-10.6-8.9-23.7-14.5-37.2-17.2a6.3,6.3,0,1,1,2.8-12.3,97,97,0,0,1,39.4,17.4,82,82,0,0,0-4.6-12.4,74,74,0,0,0-20.2-25.5,72.6,72.6,0,0,0-46.5-16.1c-4.6.8-9.3,2.4-12.5,6-5.3,5.1-7.7,12.6-7.1,19.8.5,5.6,2.5,11.3,6.5,15.5a6.3,6.3,0,0,1,1.9,5.3c-.2,2-1.6,3.4-2.4,5.2s-2.7,2.5-4.2,3.5c-4.8,3.1-8,8.2-9.6,13.6a28.6,28.6,0,0,0-.8,8.8c.4,6.4,3,12.9,7.9,17.1,1.5,1.4,3.5,2.2,4.5,4.1a6.3,6.3,0,0,1-1.1,7.6,7.5,7.5,0,0,1-3.6,1.8c-1.1,2.2-2.6,4.2-3.3,6.6a26.5,26.5,0,0,0,4.2,25.3c3,3.1,6.6,6,11,6.8,2.6,0,5.1.2,7.7.4a47.6,47.6,0,0,0,7.2-.2,70.8,70.8,0,0,0,41.9-17.2,74.2,74.2,0,0,0,23.5-38,96.2,96.2,0,0,1-39.1,11.3c-2.1.1-4.4.6-6.4-.5a6.3,6.3,0,0,1,2.3-11.9,118.6,118.6,0,0,0,12.7-1.4,85.6,85.6,0,0,0,31.6-12.9c.1-1.3.2-2.7.4-4A56.1,56.1,0,0,0,1933.9,1441.3Z" fill="#fff" stroke="#231f20" stroke-miterlimit="10"/><path d="M1972.3,1450.3c5.3,4.4,8.5,10.8,14,14.9,2.8,2.2,6.5,3.6,10.1,2.6s8.3-5.3,11.4-9.1,6.8-8.6,11.8-11.1a12.9,12.9,0,0,1,10.5-.5c5,2,8.7,6.1,11.9,10.2s6.6,7.9,11.3,10a11.2,11.2,0,0,0,10.1-.8c5.4-3.1,8.8-8.4,12.7-13s6.3-6.6,10.8-7.4,7.9,1.9,10.8,4.6c-.1-2.9.3-5.8-.5-8.6a68.8,68.8,0,0,0-3.8-12,6.7,6.7,0,0,0-8-1.7c-3.2,1.7-5.5,4.6-7.7,7.3-3.5,4.5-7.3,9-12.2,11.9a14.8,14.8,0,0,1-11.1,1.9c-4.9-1.2-8.9-4.7-12.3-8.4s-6.8-9.4-12-12.1a9.6,9.6,0,0,0-9.4.3c-5.1,2.9-7.9,8.1-11.9,12.2s-7,6.6-11.6,7.8a14.2,14.2,0,0,1-10.9-1.9c-5.4-3.2-9.2-8.3-13.1-13.1-2.6-3-5.7-6.3-9.9-6.5-1.5.1-3.3.3-4.4,1.4a74.9,74.9,0,0,0-5.5,21.3c2.6-2.4,5.9-4.3,9.6-4.4S1969.7,1448,1972.3,1450.3Z" fill="#fff" stroke="#231f20" stroke-miterlimit="10"/><path d="M1959,1512a84.3,84.3,0,0,0,15.7,15.4c12.5,9.2,27.4,15.4,42.9,16.5a70.2,70.2,0,0,0,13.3.2,99.4,99.4,0,0,0,12.3-1.5,85.6,85.6,0,0,0,37.8-18.5,86.6,86.6,0,0,0,25.4-36.8,101.6,101.6,0,0,0,7.1,11.8,85.5,85.5,0,0,0,56.3,35c6.1.7,12.2,1.4,18.3.8,1.9-.2,4,0,5.6-1s3.2-1,4.7-1.8c9.9-4.2,17.2-13.5,19.8-23.9a39.3,39.3,0,0,0-6.6-33.4c8.7-10.2,10.9-25.2,6.4-37.8a37.8,37.8,0,0,0-11.5-16.3c9.2-12.7,9.4-30.9.6-43.8a34,34,0,0,0-15.8-12.8c-1.5-.5-2.8-1.5-4.4-1.6-13.9-.9-27.8,2.3-40.4,8.2a85.8,85.8,0,0,0-43.9,49.1c-4.2-9.3-10.6-17.5-17.8-24.7a85.3,85.3,0,0,0-135.5,24.2c-.8-2.3-1.8-4.5-2.8-6.7a85.9,85.9,0,0,0-40.6-41.8,84.7,84.7,0,0,0-40.2-8.5c-1.6,0-3,.8-4.5,1.1a31.1,31.1,0,0,0-15.9,9.6c-6.1,6.3-9.4,15-10,23.7a38.7,38.7,0,0,0,6.4,23.7,37.6,37.6,0,0,0-15,27.3q.1,2.4-.1,4.9a38.5,38.5,0,0,0,9.9,24.2,31.4,31.4,0,0,0-4.6,9c-4.9,13.6-1.5,30,9,40a32.2,32.2,0,0,0,16.8,8.7c2.4.1,4.7,0,7.1.3a58.2,58.2,0,0,0,11.1-.2,83.2,83.2,0,0,0,43.2-16,85.6,85.6,0,0,0,26.3-31.5A84.2,84.2,0,0,0,1959,1512Zm189.8-97a6.3,6.3,0,0,0-5.3-1.3,95.3,95.3,0,0,0-29.4,11.4,73.3,73.3,0,0,1,24.4-34.4,71.1,71.1,0,0,1,36.8-14.9,62.1,62.1,0,0,1,7.8-.4c2.1-.2,4,1,5.9,1.9,8,4.4,12.3,13.7,11.8,22.6a25.4,25.4,0,0,1-6.5,16.2c-1,1.1-2.4,2-3,3.5a7,7,0,0,0,2.6,8.7,27.5,27.5,0,0,1,5.2,3.4c7.3,6.2,10.1,16.9,7.5,26.1a23.8,23.8,0,0,1-6.8,11.5,7.7,7.7,0,0,0-2.7,3.7,6.3,6.3,0,0,0,1.9,6.6,36.1,36.1,0,0,1,5.2,7.4,26.8,26.8,0,0,1,1.6,19,22.9,22.9,0,0,1-9.3,13c-2,1.4-4.4,2.2-6.5,3.3a55.7,55.7,0,0,1-12.6.1,70.8,70.8,0,0,1-36.6-13.3,89.8,89.8,0,0,1-9.3-7.9,76.3,76.3,0,0,1-12.9-17.7,71.9,71.9,0,0,1-5.7-14.3,97.8,97.8,0,0,0,33.8,10.9c2.5.3,5.5.9,7.7-.8a6.4,6.4,0,0,0,.7-9.8c-2.1-2.1-5.3-1.6-7.9-2.1a84.3,84.3,0,0,1-35.9-14c0-3.5-.8-6.9-.9-10.3a80.8,80.8,0,0,1,17.1-10.7,87.4,87.4,0,0,1,16.2-5.7c2.2-.4,4.7-.9,6.1-2.9A6.4,6.4,0,0,0,2148.9,1415Zm-80.5,103.1a73.1,73.1,0,0,1-24,11.4c-5.6,1.6-11.4,1.9-17.1,2.3a74.5,74.5,0,0,1-25.8-4.2,73.3,73.3,0,0,1-35.1-26.9,71.3,71.3,0,0,1-7.6-13.6,8.2,8.2,0,0,1,7.9-.2c5.2,2.8,8.1,8.2,12.1,12.4s7.1,6.9,11.9,8.2a14.1,14.1,0,0,0,10.7-1.8c4.4-2.6,7.8-6.4,10.9-10.3s5.6-7,9.7-8.7a9.8,9.8,0,0,1,9.3,1.3c4.8,3.2,7.6,8.4,11.7,12.4s8.5,7.4,14.1,7.6,10-2.9,13.7-6.4,7.1-8.9,11.3-12.7c1.7-1.5,3.7-3,6-3a8.2,8.2,0,0,1,4.7,1.7A73.6,73.6,0,0,1,2068.3,1518.1Zm-70.2-128.2a72.4,72.4,0,0,1,57.1.7,77.4,77.4,0,0,1,19.5,12.7,80.9,80.9,0,0,1,11.7,13.8c-4.9,1.2-8.5,5-11.6,8.7s-7.1,9.4-12.4,12.1a11.1,11.1,0,0,1-10,0c-4.8-2.4-8.3-6.8-11.5-10.9s-6.9-7.6-11.7-9.2a13.4,13.4,0,0,0-11.2,1.7c-4.7,2.8-7.9,7.4-11.3,11.5s-6.3,6.7-10.7,7.8-7.1-.6-9.9-2.8c-5.3-4.1-8.5-10.3-13.6-14.6a17.9,17.9,0,0,0-7.5-4.1A73.5,73.5,0,0,1,1998.1,1389.9Zm-39.4,39.4c1.1-1.1,2.9-1.3,4.4-1.4,4.2.2,7.3,3.5,9.9,6.5,3.9,4.8,7.7,9.9,13.1,13.1a14.2,14.2,0,0,0,10.9,1.9c4.6-1.2,8.4-4.4,11.6-7.8s6.8-9.4,11.9-12.2a9.6,9.6,0,0,1,9.4-.3c5.2,2.6,8.1,7.9,12,12.1s7.4,7.1,12.3,8.4a14.8,14.8,0,0,0,11.1-1.9c5-2.9,8.7-7.4,12.2-11.9,2.2-2.7,4.5-5.6,7.7-7.3a6.7,6.7,0,0,1,8,1.7,68.8,68.8,0,0,1,3.8,12c.7,2.8.3,5.7.5,8.6-2.9-2.7-6.6-5.3-10.8-4.6s-7.8,4.2-10.8,7.4-7.4,9.9-12.7,13a11.2,11.2,0,0,1-10.1.8c-4.7-2-8.2-6-11.3-10s-6.9-8.2-11.9-10.2a12.9,12.9,0,0,0-10.5.5c-5,2.4-8.5,6.8-11.8,11.1s-6.6,7.6-11.4,9.1-7.3-.3-10.1-2.6c-5.5-4.1-8.7-10.6-14-14.9-2.7-2.3-5.9-4.1-9.5-4s-6.9,2-9.6,4.4A74.9,74.9,0,0,1,1958.7,1429.3Zm4.4,27.7c4.2.2,7.3,3.5,9.9,6.5,4.1,5.1,8.1,10.5,14,13.6a13.8,13.8,0,0,0,12,.7c5.1-2.2,9.1-6.4,12.6-10.6s5.7-7.4,10-9.3a9.7,9.7,0,0,1,9.4,1c5.2,3.3,8.1,9.1,12.5,13.2s8.4,7,13.9,7,10.1-3.3,13.8-7,7.1-9.2,11.5-12.9c1.9-1.7,4.6-2.9,7.2-2s5.3,3.7,7.4,6c.4.6,1.2,1.2,1.1,2a75.9,75.9,0,0,1-2.5,13.3c-2.7-2.2-6.1-3.9-9.6-3.2s-7.8,4.4-10.7,7.7-7.4,9.9-12.8,12.8a11.1,11.1,0,0,1-10.3.3c-5-2.5-8.5-7-11.9-11.3s-7.1-7.7-12.2-9-8.7.4-12,3c-5.4,3.9-8.5,10-13.5,14.3-2.5,2.2-5.6,4.2-9.1,4.2s-6.6-2-9.1-4.3c-4.5-4-7.4-9.4-12-13.3-2.6-2.3-5.9-4.3-9.5-4.4a13.3,13.3,0,0,0-7.6,2.5,78.5,78.5,0,0,1-2.5-14.7C1955.7,1460.1,1958.9,1456.9,1963.2,1456.9Zm-22.7-5.1a85.6,85.6,0,0,1-31.6,12.9,118.6,118.6,0,0,1-12.7,1.4,6.3,6.3,0,0,0-2.3,11.9c2,1.1,4.3.6,6.4.5a96.2,96.2,0,0,0,39.1-11.3,74.2,74.2,0,0,1-23.5,38,70.8,70.8,0,0,1-41.9,17.2,47.6,47.6,0,0,1-7.2.2c-2.6-.2-5.1-.4-7.7-.4-4.4-.8-8-3.7-11-6.8a26.5,26.5,0,0,1-4.2-25.3c.7-2.4,2.2-4.4,3.3-6.6a7.5,7.5,0,0,0,3.6-1.8,6.3,6.3,0,0,0,1.1-7.6c-1-1.9-3-2.7-4.5-4.1-5-4.2-7.5-10.7-7.9-17.1a28.6,28.6,0,0,1,.8-8.8c1.6-5.4,4.8-10.5,9.6-13.6,1.5-1,3.4-1.8,4.2-3.5s2.3-3.2,2.4-5.2a6.3,6.3,0,0,0-1.9-5.3c-4-4.1-6-9.8-6.5-15.5-.6-7.2,1.9-14.8,7.1-19.8,3.2-3.6,7.9-5.2,12.5-6a72.6,72.6,0,0,1,46.5,16.1,74,74,0,0,1,20.2,25.5,82,82,0,0,1,4.6,12.4,97,97,0,0,0-39.4-17.4,6.3,6.3,0,1,0-2.8,12.3c13.5,2.7,26.6,8.3,37.2,17.2a56.1,56.1,0,0,1,7,6.5C1940.7,1449.2,1940.6,1450.5,1940.5,1451.9Z" fill="#511e2e"/><path d="M1171,1444.6c-13.6-8.1-27.1-16.3-40.6-24.6-6-3.4-23.3-12.4-25-19.9-4.7,17.9-9.1,35.9-12,54.2-1.5,9.4-4.9,23.7-.2,32.7,2.4,4.8,9.7,3.6,14,4.1l30.7,3.4,61.3,6.8a859.8,859.8,0,0,0,119.7,4.9,779.3,779.3,0,0,1-78-27.2A522.1,522.1,0,0,1,1171,1444.6Z" fill="#fff" stroke="#231f20" stroke-miterlimit="10"/><path d="M1278.6,1242.5c16.6,6.6,33.1,13.7,49.7,20.5s33,13.1,48.9,20.9c22.7,11.1,49.1,21.6,68,38.6-1.4-5.6-2.7-11.2-4.4-16.7-15.9-43.9-43-88.8-84.7-105-26.5-10.3-56.3-9.8-84.1-6.4-29.6,3.6-59.1,12.4-83.8,29.4C1218.3,1220.1,1251.1,1231.5,1278.6,1242.5Z" fill="#fff" stroke="#231f20" stroke-miterlimit="10"/><path d="M1262.6,1152.2c-3.5-5.4-6.1-11.4-8.8-17.3s-5.2-13.7-7.2-20.5c-4.9-16.3-8.3-34.9-6.1-52,1.1-8.4,7-16.3,9.7-3.6,1.7,7.8,3.1,15.7,4.6,23.5,2.9,15,6.2,34.3,13.2,48,2.5,6.4,4.3,13,6.9,19.3,1.7,4.2,3.5,8.3,5,12.5l8.2.5c6.8.3,13.2-12.7,16.7-18.3,7.7-10.2,14.8-22.2,19-34.4,2-5.9,8.6-17.5,11.3-4.6,1.5,6.9-.2,13.9-1.9,20.6-3.6,13.7-14.3,27.9-25.5,36.2,25.4-2.4,54.6-12.4,66.2-37.1,6.6-14,4.1-27,2.8-41.7s5.3-30.6,7.7-45.6c-9.6-1.5-21-5.4-30.4-5.6.8,0-4,4.6-3.7,4.3a112.5,112.5,0,0,1-15.8,9.9c-8.3,4.2-20.1,10.1-29.5,9.8-19.1-.7-32.6-25.9-41.5-39.9-17.6,12.6-43,28.4-63.5,13.3a100.8,100.8,0,0,1-1,23.8c-.5,2.7-1,5.5-1.5,8.3-2.3,12.6-6.2,39.8,2.6,57.5,12.5,25,42.4,37.3,68.4,41.7C1268.4,1158.7,1263.5,1153.6,1262.6,1152.2Z" fill="#fff" stroke="#231f20" stroke-miterlimit="10"/><path d="M1447.4,1330.9c-4.8-1.3-9.1-3.8-13.6-5.9-7.5-3.5-15.2-6.8-22.7-10.3-23-10.6-46.8-19.6-70.2-29.3-18.8-7.8-37.3-15.9-55.9-24-16.7-7.3-33.5-14.3-50.6-20.4a257.2,257.2,0,0,0-27.5-8.5c-7.5-1.8-16.7-1.6-23.7-5-7.6,5.8-8.8,7-7.7,6.3a130.3,130.3,0,0,0-35.5,52.7c12.8,2.2,27.1,12.8,38.7,18.9,16.8,8.8,34,17,51.1,25.4,23.3,11.4,47.1,21.7,70.7,32.4s49.5,20.8,74.3,29.6l41.5,14.9c14.8,5.2,33,8.2,46.4,16.4-3.4-24.6-6.2-49.2-11.1-73.6Q1449.7,1340.6,1447.4,1330.9Z" fill="#fff" stroke="#231f20" stroke-miterlimit="10"/><path d="M1414,1419.3c-13.2-3.6-26.3-7.5-39.4-11.5-26.7-8.1-54.4-18-79.6-29.9-22.6-10.7-45.5-20.8-67.5-32.6-16.4-8.7-32.5-17.8-48.3-27.6-12.9-8-31.3-16.4-40-29.3-12.8,36.3-23.7,73.5-33.5,110.7,4.7-2.8,21.8,9.1,26.1,11s9.2,4.3,13.7,6.6c18.1,9,35.9,18.8,54.5,26.9,24.6,10.7,48.9,21.4,73.9,31s52.2,20.5,79,28.2c5.3,1.5,9.6.7,15,.3,0-1.8-.8-4.1-.6-5.8.4-3.4-1.5-7.7.6-10.8,7.6-11.1,16.4,9.1,15.6,15.5l11.2-.7c-.9-4.7-3-26.4,8.5-19.9,7,4,7.5,11.9,6.1,18.9l11.5-1c.3-2.7-.4-5.4-.1-8.2s-.3-7.5-.9-11.3-3.6-14.8,1.6-17.5c14.8-7.8,14.8,29.5,12.3,35.5a96.5,96.5,0,0,0,16.6-3.6c-4.2-3.9-10.8-31-5.6-34.7,13.3-9.8,17.6,23.1,14.9,29.3,10-10.6,6.1-44.6,3.6-61.7C1449.6,1431.9,1427.4,1422.9,1414,1419.3Z" fill="#fff" stroke="#231f20" stroke-miterlimit="10"/><path d="M1354.9,1172.1c23.5-13,52.2-36.7,50.6-66.6-.4-8.4-3.2-16.5-4.1-24.9s12.2-61,3.9-66.1-25.7-5.4-35.2-6c-14.9-.8-25.2,5.7-37.2,13.5-27.8,18.2-41.4-12.9-54.8-32.6-7.4-11-25.6,7.9-32.5,11.9-8.9,5.1-18.9,8.4-28.7,3.5-5.5-2.8-10.1-7.1-14.3-11.5s-8.4-13.2-15.1-13.1c-16.2.4-14,22.1-13.8,32.2.4,19-.3,38.1-1.7,57-1.3,16.5-4.6,33.1-.3,49.4,7.5,28,32.1,47.7,57.5,59.2-65.6,22.7-104.3,73.1-126.1,137-17.1,50.1-26.1,103.6-34.7,155.7-1.6,9.6-3.4,20.4-1.3,30.1,2.9,13.3,24.4,14.7,35.3,16.2,40.7,5.5,82,9.1,123,11.9s190.7,1.4,231.7-14.7c15.3-6,28.1-12.2,30.5-29.5,3.6-26.4-10.8-163-34.2-216.9C1434.1,1223.3,1403.5,1185.1,1354.9,1172.1ZM1200,1119c-8.8-17.7-4.9-44.9-2.6-57.5.5-2.8,1-5.6,1.5-8.3a100.8,100.8,0,0,0,1-23.8c20.5,15.1,45.9-.7,63.5-13.3,8.8,14,22.4,39.3,41.5,39.9,9.4.3,21.2-5.6,29.5-9.8a112.5,112.5,0,0,0,15.8-9.9c-.3.2,4.5-4.3,3.7-4.3,9.4.3,20.8,4.2,30.4,5.6-2.4,15-9,30.2-7.7,45.6s3.8,27.7-2.8,41.7c-11.6,24.8-40.8,34.7-66.2,37.1,11.2-8.3,21.9-22.5,25.5-36.2,1.7-6.7,3.4-13.6,1.9-20.6-2.7-12.9-9.3-1.2-11.3,4.6-4.1,12.2-11.3,24.2-19,34.4-3.5,5.6-9.9,18.5-16.7,18.3l-8.2-.5c-1.5-4.2-3.3-8.3-5-12.5-2.6-6.3-4.3-12.9-6.9-19.3-7-13.8-10.2-33-13.2-48-1.5-7.8-2.9-15.7-4.6-23.5-2.8-12.6-8.6-4.8-9.7,3.6-2.2,17.2,1.2,35.7,6.1,52,2,6.8,3.6,14.3,7.2,20.5s5.3,11.8,8.8,17.3c1,1.4,5.8,6.5,5.8,8.4C1242.4,1156.2,1212.4,1143.9,1200,1119Zm72,75.4c27.8-3.4,57.6-3.9,84.1,6.4,41.7,16.2,68.8,61.1,84.7,105,1.6,5.5,2.9,11.1,4.4,16.7-18.9-17-45.4-27.4-68-38.6-15.9-7.8-32.6-14.1-48.9-20.9s-33-13.9-49.7-20.5c-27.5-11-60.3-22.3-90.4-18.7C1212.9,1206.7,1242.4,1197.9,1272,1194.4Zm-72.6,306.9-61.3-6.8-30.7-3.4c-4.4-.5-11.6.6-14-4.1-4.7-9.1-1.3-23.3.2-32.7,2.9-18.3,7.3-36.3,12-54.2,1.6,7.6,18.9,16.5,25,19.9,13.5,8.3,27,16.5,40.6,24.6a522.1,522.1,0,0,0,70,34.4,779.3,779.3,0,0,0,78,27.2A859.8,859.8,0,0,1,1199.3,1501.3Zm260.2-12.8c2.7-6.2-1.6-39.1-14.9-29.3-5.2,3.7,1.3,30.8,5.6,34.7a96.5,96.5,0,0,1-16.6,3.6c2.6-6,2.6-43.3-12.3-35.5-5.2,2.7-2.4,12.9-1.6,17.5s.5,7.5.9,11.3.5,5.4.1,8.2l-11.5,1c1.4-6.9.9-14.9-6.1-18.9-11.4-6.5-9.4,15.2-8.5,19.9l-11.2.7c.8-6.4-8-26.5-15.6-15.5-2.1,3.1-.2,7.4-.6,10.8-.2,1.7.6,4,.6,5.8-5.4.5-9.7,1.2-15-.3-26.8-7.6-53-18.2-79-28.2s-49.4-20.3-73.9-31c-18.5-8.1-36.3-18-54.5-26.9-4.5-2.2-9.1-4.5-13.7-6.6s-21.4-13.8-26.1-11c9.8-37.2,20.7-74.4,33.5-110.7,8.6,12.9,27.1,21.3,40,29.3,15.8,9.8,31.9,18.9,48.3,27.6,22,11.7,44.9,21.9,67.5,32.6,25.2,11.9,52.9,21.7,79.6,29.9,13.1,4,26.2,7.9,39.4,11.5s35.5,12.6,49.1,7.5C1465.6,1443.9,1469.5,1477.9,1459.5,1488.5Zm-43.2-81-41.5-14.9c-24.9-8.8-50.3-18.8-74.3-29.6s-47.5-21-70.7-32.4c-17.1-8.4-34.3-16.5-51.1-25.4-11.5-6.1-25.8-16.7-38.7-18.9a130.3,130.3,0,0,1,35.5-52.7c-1.1.6.1-.6,7.7-6.3,7,3.5,16.2,3.2,23.7,5a257.2,257.2,0,0,1,27.5,8.5c17.1,6.2,34,13.1,50.6,20.4,18.6,8.2,37.2,16.3,55.9,24,23.4,9.7,47.3,18.7,70.2,29.3,7.5,3.5,15.2,6.8,22.7,10.3,4.4,2.1,8.8,4.6,13.6,5.9q2.3,9.7,4.2,19.4c4.9,24.4,7.7,49,11.1,73.6C1449.3,1415.7,1431.2,1412.8,1416.3,1407.5Z" fill="#511e2e"/><path d="M919.6,1453c-10.6-8.9-23.7-14.5-37.2-17.2a6.3,6.3,0,1,1,2.8-12.3,97,97,0,0,1,39.4,17.4,82,82,0,0,0-4.6-12.4,74,74,0,0,0-20.2-25.5,72.6,72.6,0,0,0-46.5-16.1c-4.6.8-9.3,2.4-12.5,6-5.3,5.1-7.7,12.6-7.1,19.8.5,5.6,2.5,11.3,6.5,15.5a6.3,6.3,0,0,1,1.9,5.3c-.2,2-1.6,3.4-2.4,5.2s-2.7,2.5-4.2,3.5c-4.8,3.1-8,8.2-9.6,13.6a28.6,28.6,0,0,0-.8,8.8c.4,6.4,3,12.9,7.9,17.1,1.5,1.4,3.5,2.2,4.5,4.1a6.3,6.3,0,0,1-1.1,7.6,7.5,7.5,0,0,1-3.6,1.8c-1.1,2.2-2.6,4.2-3.3,6.6a26.5,26.5,0,0,0,4.2,25.3c3,3.1,6.6,6,11,6.8,2.6,0,5.1.2,7.7.4a47.6,47.6,0,0,0,7.2-.2,70.8,70.8,0,0,0,41.9-17.2,74.2,74.2,0,0,0,23.5-38,96.2,96.2,0,0,1-39.1,11.3c-2.1.1-4.4.6-6.4-.5a6.3,6.3,0,0,1,2.3-11.9,118.6,118.6,0,0,0,12.7-1.4,85.6,85.6,0,0,0,31.6-12.9c.1-1.3.2-2.7.4-4A56.1,56.1,0,0,0,919.6,1453Z" fill="#fff" stroke="#231f20" stroke-miterlimit="10"/><path d="M971.8,1447.7c2.7,2.2,6.3,3.7,9.9,2.8s7.7-4.5,10.7-7.8,6.6-8.7,11.3-11.5a13.4,13.4,0,0,1,11.2-1.7c4.8,1.6,8.6,5.3,11.7,9.2s6.7,8.5,11.5,10.9a11.1,11.1,0,0,0,10,0c5.3-2.7,8.8-7.6,12.4-12.1s6.7-7.6,11.6-8.7a80.9,80.9,0,0,0-11.7-13.8,77.4,77.4,0,0,0-19.5-12.7,72.4,72.4,0,0,0-57.1-.7,73.5,73.5,0,0,0-33.1,27.5,17.9,17.9,0,0,1,7.5,4.1C963.4,1437.4,966.5,1443.6,971.8,1447.7Z" fill="#fff" stroke="#231f20" stroke-miterlimit="10"/><path d="M1185.5,1480.8a23.8,23.8,0,0,0,6.8-11.5c2.6-9.1-.2-19.8-7.5-26.1a27.5,27.5,0,0,0-5.2-3.4,7,7,0,0,1-2.6-8.7c.6-1.4,2-2.4,3-3.5a25.4,25.4,0,0,0,6.5-16.2c.4-8.9-3.9-18.2-11.8-22.6-1.9-.8-3.7-2.1-5.9-1.9a62.1,62.1,0,0,0-7.8.4,71.1,71.1,0,0,0-36.8,14.9,73.3,73.3,0,0,0-24.4,34.4,95.3,95.3,0,0,1,29.4-11.4,6.3,6.3,0,0,1,5.3,1.3,6.4,6.4,0,0,1,1,8.7c-1.4,2-3.9,2.4-6.1,2.9a87.4,87.4,0,0,0-16.2,5.7,80.8,80.8,0,0,0-17.1,10.7c.1,3.5.8,6.9.9,10.3a84.3,84.3,0,0,0,35.9,14c2.7.5,5.8,0,7.9,2.1a6.4,6.4,0,0,1-.7,9.8c-2.2,1.7-5.1,1.1-7.7.8a97.8,97.8,0,0,1-33.8-10.9,71.9,71.9,0,0,0,5.7,14.3,76.3,76.3,0,0,0,12.9,17.7,89.8,89.8,0,0,0,9.3,7.9,70.8,70.8,0,0,0,36.6,13.3,55.7,55.7,0,0,0,12.6-.1c2.1-1.2,4.5-1.9,6.5-3.3a22.9,22.9,0,0,0,9.3-13,26.8,26.8,0,0,0-1.6-19,36.1,36.1,0,0,0-5.2-7.4,6.3,6.3,0,0,1-1.9-6.6A7.7,7.7,0,0,1,1185.5,1480.8Z" fill="#fff" stroke="#231f20" stroke-miterlimit="10"/><path d="M1075.7,1468.7c-2.6-.9-5.2.3-7.2,2-4.4,3.7-7.3,8.9-11.5,12.9s-8.4,6.9-13.8,7-10.1-3.3-13.9-7-7.3-9.9-12.5-13.2a9.7,9.7,0,0,0-9.4-1c-4.2,1.9-7.2,5.7-10,9.3s-7.4,8.4-12.6,10.6a13.8,13.8,0,0,1-12-.7c-5.9-3.1-9.9-8.6-14-13.6-2.6-3-5.7-6.2-9.9-6.5s-7.5,3.2-10.1,6.2a78.5,78.5,0,0,0,2.5,14.7,13.3,13.3,0,0,1,7.6-2.5c3.6.1,6.9,2,9.5,4.4,4.6,3.9,7.5,9.3,12,13.3,2.5,2.3,5.6,4.3,9.1,4.3s6.6-2,9.1-4.2c5-4.3,8.1-10.4,13.5-14.3,3.4-2.6,7.8-4.1,12-3s8.9,5.1,12.2,9,6.9,8.9,11.9,11.3a11.1,11.1,0,0,0,10.3-.3c5.5-2.9,9-8.2,12.8-12.8s6.2-6.7,10.7-7.7,6.9,1,9.6,3.2a75.9,75.9,0,0,0,2.5-13.3c.1-.8-.6-1.4-1.1-2C1081,1472.4,1078.8,1469.8,1075.7,1468.7Z" fill="#fff" stroke="#231f20" stroke-miterlimit="10"/><path d="M1067.7,1500.5c-4.2,3.9-7.1,8.9-11.3,12.7s-8.4,6.6-13.7,6.4-10.3-3.8-14.1-7.6-6.8-9.2-11.7-12.4a9.8,9.8,0,0,0-9.3-1.3c-4.1,1.7-7.1,5.2-9.7,8.7s-6.6,7.7-10.9,10.3a14.1,14.1,0,0,1-10.7,1.8c-4.8-1.3-8.6-4.6-11.9-8.2s-6.8-9.6-12.1-12.4a8.2,8.2,0,0,0-7.9.2,71.3,71.3,0,0,0,7.6,13.6,73.3,73.3,0,0,0,35.1,26.9,74.5,74.5,0,0,0,25.8,4.2c5.7-.4,11.5-.7,17.1-2.3a73,73,0,0,0,48.4-41.9,8.2,8.2,0,0,0-4.7-1.7C1071.4,1497.5,1069.3,1499,1067.7,1500.5Z" fill="#fff" stroke="#231f20" stroke-miterlimit="10"/><path d="M958,1461.9c5.3,4.4,8.5,10.8,14,14.9,2.8,2.2,6.5,3.6,10.1,2.6s8.3-5.3,11.4-9.1,6.8-8.6,11.8-11.1a12.9,12.9,0,0,1,10.5-.5c5,2,8.7,6.1,11.9,10.2s6.6,7.9,11.3,10a11.2,11.2,0,0,0,10.1-.8c5.4-3.1,8.8-8.4,12.7-13s6.3-6.6,10.8-7.4,7.9,1.9,10.8,4.6c-.1-2.9.3-5.8-.5-8.6a68.8,68.8,0,0,0-3.8-12,6.7,6.7,0,0,0-8-1.7c-3.2,1.7-5.5,4.6-7.7,7.3-3.5,4.5-7.3,9-12.2,11.9a14.8,14.8,0,0,1-11.1,1.9c-4.9-1.2-8.9-4.7-12.3-8.4s-6.8-9.4-12-12.1a9.6,9.6,0,0,0-9.4.3c-5.1,2.9-7.9,8.1-11.9,12.2s-7,6.6-11.6,7.8a14.2,14.2,0,0,1-10.9-1.9c-5.4-3.2-9.2-8.3-13.1-13.1-2.6-3-5.7-6.3-9.9-6.5-1.5.1-3.3.3-4.4,1.4a74.9,74.9,0,0,0-5.5,21.3c2.6-2.4,5.9-4.3,9.6-4.4S955.4,1459.7,958,1461.9Z" fill="#fff" stroke="#231f20" stroke-miterlimit="10"/><path d="M1203.7,1448.9a37.8,37.8,0,0,0-11.5-16.3c9.2-12.7,9.4-30.9.6-43.8A34,34,0,0,0,1177,1376c-1.5-.5-2.8-1.5-4.4-1.6-13.9-.9-27.8,2.3-40.4,8.2a85.8,85.8,0,0,0-43.9,49.1c-4.2-9.3-10.6-17.5-17.8-24.7A85.3,85.3,0,0,0,935,1431.2c-.8-2.3-1.8-4.5-2.8-6.7a85.9,85.9,0,0,0-40.6-41.8,84.7,84.7,0,0,0-40.2-8.5c-1.6,0-3,.8-4.5,1.1A31.1,31.1,0,0,0,831,1385c-6.1,6.3-9.4,15-10,23.7a38.7,38.7,0,0,0,6.4,23.7,37.6,37.6,0,0,0-15,27.3q.1,2.4-.1,4.9a38.5,38.5,0,0,0,9.9,24.2,31.4,31.4,0,0,0-4.6,9c-4.9,13.6-1.5,30,9,40a32.2,32.2,0,0,0,16.8,8.7c2.4.1,4.7,0,7.1.3a58.2,58.2,0,0,0,11.1-.2,83.2,83.2,0,0,0,43.2-16A85.6,85.6,0,0,0,931,1499a86.6,86.6,0,0,0,29.4,40c12.5,9.2,27.4,15.4,42.9,16.5a70.2,70.2,0,0,0,13.3.2,99.4,99.4,0,0,0,12.3-1.5,85.6,85.6,0,0,0,37.8-18.5,86.6,86.6,0,0,0,25.4-36.8,101.6,101.6,0,0,0,7.1,11.8,85.5,85.5,0,0,0,56.3,35c6.1.7,12.2,1.4,18.3.8,1.9-.2,4,0,5.6-1s3.2-1,4.7-1.8c9.9-4.2,17.2-13.5,19.8-23.9a39.3,39.3,0,0,0-6.6-33.4C1206.1,1476.4,1208.2,1461.4,1203.7,1448.9Zm-277.5,14.6a85.6,85.6,0,0,1-31.6,12.9,118.6,118.6,0,0,1-12.7,1.4,6.3,6.3,0,0,0-2.3,11.9c2,1.1,4.3.6,6.4.5a96.2,96.2,0,0,0,39.1-11.3,74.2,74.2,0,0,1-23.5,38,70.8,70.8,0,0,1-41.9,17.2,47.6,47.6,0,0,1-7.2.2c-2.6-.2-5.1-.4-7.7-.4-4.4-.8-8-3.7-11-6.8a26.5,26.5,0,0,1-4.2-25.3c.7-2.4,2.2-4.4,3.3-6.6a7.5,7.5,0,0,0,3.6-1.8,6.3,6.3,0,0,0,1.1-7.6c-1-1.9-3-2.7-4.5-4.1-5-4.2-7.5-10.7-7.9-17.1a28.6,28.6,0,0,1,.8-8.8c1.6-5.4,4.8-10.5,9.6-13.6,1.5-1,3.4-1.8,4.2-3.5s2.3-3.2,2.4-5.2a6.3,6.3,0,0,0-1.9-5.3c-4-4.1-6-9.8-6.5-15.5-.6-7.2,1.9-14.8,7.1-19.8,3.2-3.6,7.9-5.2,12.5-6a72.6,72.6,0,0,1,46.5,16.1,74,74,0,0,1,20.2,25.5,82,82,0,0,1,4.6,12.4,97,97,0,0,0-39.4-17.4,6.3,6.3,0,1,0-2.8,12.3c13.5,2.7,26.6,8.3,37.2,17.2a56.1,56.1,0,0,1,7,6.5C926.4,1460.8,926.3,1462.2,926.2,1463.5Zm57.7-62a72.4,72.4,0,0,1,57.1.7,77.4,77.4,0,0,1,19.5,12.7,80.9,80.9,0,0,1,11.7,13.8c-4.9,1.2-8.5,5-11.6,8.7s-7.1,9.4-12.4,12.1a11.1,11.1,0,0,1-10,0c-4.8-2.4-8.3-6.8-11.5-10.9s-6.9-7.6-11.7-9.2a13.4,13.4,0,0,0-11.2,1.7c-4.7,2.8-7.9,7.4-11.3,11.5s-6.3,6.7-10.7,7.8-7.1-.6-9.9-2.8c-5.3-4.1-8.5-10.3-13.6-14.6a17.9,17.9,0,0,0-7.5-4.1A73.5,73.5,0,0,1,983.9,1401.5Zm-39.4,39.4c1.1-1.1,2.9-1.3,4.4-1.4,4.2.2,7.3,3.5,9.9,6.5,3.9,4.8,7.7,9.9,13.1,13.1a14.2,14.2,0,0,0,10.9,1.9c4.6-1.2,8.4-4.4,11.6-7.8s6.8-9.4,11.9-12.2a9.6,9.6,0,0,1,9.4-.3c5.2,2.6,8.1,7.9,12,12.1s7.4,7.1,12.3,8.4a14.8,14.8,0,0,0,11.1-1.9c5-2.9,8.7-7.4,12.2-11.9,2.2-2.7,4.5-5.6,7.7-7.3a6.7,6.7,0,0,1,8,1.7,68.8,68.8,0,0,1,3.8,12c.7,2.8.3,5.7.5,8.6-2.9-2.7-6.6-5.3-10.8-4.6s-7.8,4.2-10.8,7.4-7.4,9.9-12.7,13a11.2,11.2,0,0,1-10.1.8c-4.7-2-8.2-6-11.3-10s-6.9-8.2-11.9-10.2a12.9,12.9,0,0,0-10.5.5c-5,2.4-8.5,6.8-11.8,11.1s-6.6,7.6-11.4,9.1-7.3-.3-10.1-2.6c-5.5-4.1-8.7-10.6-14-14.9-2.7-2.3-5.9-4.1-9.5-4s-6.9,2-9.6,4.4A74.9,74.9,0,0,1,944.4,1440.9Zm109.6,88.8a73.1,73.1,0,0,1-24,11.4c-5.6,1.6-11.4,1.9-17.1,2.3a74.5,74.5,0,0,1-25.8-4.2,73.3,73.3,0,0,1-35.1-26.9,71.3,71.3,0,0,1-7.6-13.6,8.2,8.2,0,0,1,7.9-.2c5.2,2.8,8.1,8.2,12.1,12.4s7.1,6.9,11.9,8.2a14.1,14.1,0,0,0,10.7-1.8c4.4-2.6,7.8-6.4,10.9-10.3s5.6-7,9.7-8.7a9.8,9.8,0,0,1,9.3,1.3c4.8,3.2,7.6,8.4,11.7,12.4s8.5,7.4,14.1,7.6,10-2.9,13.7-6.4,7.1-8.9,11.3-12.7c1.7-1.5,3.7-3,6-3a8.2,8.2,0,0,1,4.7,1.7A73.7,73.7,0,0,1,1054,1529.7Zm30.1-53a75.9,75.9,0,0,1-2.5,13.3c-2.7-2.2-6.1-3.9-9.6-3.2s-7.8,4.4-10.7,7.7-7.4,9.9-12.8,12.8a11.1,11.1,0,0,1-10.3.3c-5-2.5-8.5-7-11.9-11.3s-7.1-7.7-12.2-9-8.7.4-12,3c-5.4,3.9-8.5,10-13.5,14.3-2.5,2.2-5.6,4.2-9.1,4.2s-6.6-2-9.1-4.3c-4.5-4-7.4-9.4-12-13.3-2.6-2.3-5.9-4.3-9.5-4.4a13.3,13.3,0,0,0-7.6,2.5,78.5,78.5,0,0,1-2.5-14.7c2.6-2.9,5.9-6.2,10.1-6.2s7.3,3.5,9.9,6.5c4.1,5.1,8.1,10.5,14,13.6a13.8,13.8,0,0,0,12,.7c5.1-2.2,9.1-6.4,12.6-10.6s5.7-7.4,10-9.3a9.7,9.7,0,0,1,9.4,1c5.2,3.3,8.1,9.1,12.5,13.2s8.4,7,13.9,7,10.1-3.3,13.8-7,7.1-9.2,11.5-12.9c1.9-1.7,4.6-2.9,7.2-2s5.3,3.7,7.4,6C1083.5,1475.3,1084.3,1475.9,1084.2,1476.7Zm100.5,14.4a36.1,36.1,0,0,1,5.2,7.4,26.8,26.8,0,0,1,1.6,19,22.9,22.9,0,0,1-9.3,13c-2,1.4-4.4,2.2-6.5,3.3a55.7,55.7,0,0,1-12.6.1,70.8,70.8,0,0,1-36.6-13.3,89.8,89.8,0,0,1-9.3-7.9,76.3,76.3,0,0,1-12.9-17.7,71.9,71.9,0,0,1-5.7-14.3,97.8,97.8,0,0,0,33.8,10.9c2.5.3,5.5.9,7.7-.8a6.4,6.4,0,0,0,.7-9.8c-2.1-2.1-5.3-1.6-7.9-2.1a84.3,84.3,0,0,1-35.9-14c0-3.5-.8-6.9-.9-10.3a80.8,80.8,0,0,1,17.1-10.7,87.4,87.4,0,0,1,16.2-5.7c2.2-.4,4.7-.9,6.1-2.9a6.4,6.4,0,0,0-1-8.7,6.3,6.3,0,0,0-5.3-1.3,95.3,95.3,0,0,0-29.4,11.4,73.3,73.3,0,0,1,24.4-34.4,71.1,71.1,0,0,1,36.8-14.9,62.1,62.1,0,0,1,7.8-.4c2.1-.2,4,1,5.9,1.9,8,4.4,12.3,13.7,11.8,22.6a25.4,25.4,0,0,1-6.5,16.2c-1,1.1-2.4,2-3,3.5a7,7,0,0,0,2.6,8.7,27.5,27.5,0,0,1,5.2,3.4c7.3,6.2,10.1,16.9,7.5,26.1a23.8,23.8,0,0,1-6.8,11.5,7.7,7.7,0,0,0-2.7,3.7A6.3,6.3,0,0,0,1184.7,1491.1Z" fill="#511e2e"/><rect x="-9" y="-8.6" width="2518" height="1710.55" opacity="0.72" fill="url(#linear-gradient)"/><path d="M1795.4,453l36.4,95.4,52.1-37.1a120.8,120.8,0,0,0-9.8-48,60.5,60.5,0,0,0-3.8-7.3c-12-19.5-34.1-30-57.4-25.1-6.4,1.3-12.9,4-19.2,5.9,0,.3-32.9-44.8-.2-51.9-1.9-.1-13.5-7.9-13.5-7.9s-20.7,44-10.6,59.8l.2.3c-18.6-5.6-38.3-10.7-56.5-1.7-23.4,11.6-30.4,38.9-33.2,63.1l62.7,49.9Z" fill="#511e2e"/><path d="M1679.4,501.9l.4-3.4-33.6-26.7,18.1,91c10.8,5.2,21.3,10.9,31.6,17C1682.2,556.4,1676.6,529.2,1679.4,501.9Z" fill="#50c7f2"/><path d="M1789.1,638.6l-3.7.2h-8.9l-3.6-.2a107.9,107.9,0,0,1,7.2,9.4C1779.8,647.4,1783.7,643.5,1789.1,638.6Z" fill="#50c7f2"/><path d="M1866,579.4q9.5-5.6,19.2-10.7l31.1-80.6-32.5,23.1c.1,23.6-5.9,47.5-17.3,67.1Z" fill="#50c7f2"/><path d="M1695.9,579.7q10.5,6.3,20.7,13.1c19.2,12.9,40.9,27.6,56.3,45.7l3.6.2h8.9l3.7-.2c10.3-9.6,26.2-23.2,28.2-24.9a386.2,386.2,0,0,1,43-30.8l5.7-3.5.6-1c11.4-19.7,17.4-43.5,17.3-67.1l-52.1,37.1L1795.4,453l-52.8,95.4-62.7-49.9-.4,3.4C1676.6,529.2,1682.2,556.4,1695.9,579.7Z" fill="#50c7f2"/><path d="M1371.7,1015.6c9.4.5,27.1,1,35.2,6s-2.5,47.6-3.8,62.4l3,3.3q14.6,16.1,30,31a251,251,0,0,1,190.8,16.7c21.6,11,41.3,25.3,59.1,41.7a254.2,254.2,0,0,1,45.1-146.9,250.3,250.3,0,0,1,34-39.5l2.2-69.8c.6-17.7.9-36.3-7.7-51.8s-29.3-25.6-44.5-16.6c-22.2,13.3-11.5,47.4-18.7,72.2-5.6,19.7-25.2,34.4-45.7,34.4s-40-14.8-45.7-34.4c-5.1-17.8.5-36.7,1.7-55.3s-5.2-40.6-22.9-46.2-37,10.9-41.7,29.4.2,37.8,3.6,56.6a342.8,342.8,0,0,1-4,140.9c-6.6,27.6-24.4,59.6-52.6,57.3-31-2.5-41.3-42.6-41.6-73.6a760,760,0,0,1,23.9-196.7c2.7-10.4,5.6-21.3,2.7-31.7s-14.1-19.2-24.1-15.4-12.4,15.2-14.9,25c-4.7,19-13.3,38.3-29.6,49.2s-41.7,9.6-52.3-6.9c-19.5-30.3,24.7-72.2,7.4-103.8-12.6-23-47.5-19-68.1-1.9-20.8,96.1,7.6,188,60.2,267.7A42.8,42.8,0,0,1,1371.7,1015.6Z" fill="#50c7f2"/><path d="M2010.6,933c28.6,9.2,56.2,22.4,79.7,41.2a249.3,249.3,0,0,1,13.9-121.7,245,245,0,0,1,20.2-42.1c-4.3-13-9-25.8-14.5-38.4-7.4-16.9-19-35.4-37.4-37.1-22.4-2.1-38.8,23.1-39,45.6s9.6,43.8,13,66-2.7,49.4-23.4,58-42.4-4.9-54.1-22.5-15.9-39.1-23.3-59-20.2-40-40.5-46.1c-24-7.2-50.5,9.1-61.1,31.7s-8.3,49.4-.9,73.3c5.4,17.5,13.3,34,20.5,50.9A253.1,253.1,0,0,1,2010.6,933Z" fill="#50c7f2"/><path d="M1360.6,753.2c17.3,31.6-26.9,73.5-7.4,103.8,10.6,16.5,36,17.8,52.3,6.9s24.9-30.2,29.6-49.2c2.4-9.8,5.4-21.4,14.9-25s21.2,5.1,24.1,15.4,0,21.3-2.7,31.7a760,760,0,0,0-23.9,196.7c.3,31.1,10.7,71.1,41.6,73.6,28.2,2.3,46-29.7,52.6-57.3a342.8,342.8,0,0,0,4-140.9c-3.4-18.7-8.4-38.1-3.6-56.6s23.6-35,41.7-29.4,24,27.7,22.9,46.2-6.8,37.4-1.7,55.3c5.6,19.7,25.2,34.4,45.7,34.4s40-14.7,45.7-34.4c7.1-24.9-3.5-58.9,18.7-72.2,15.2-9.1,35.9,1.1,44.5,16.6s8.2,34.1,7.7,51.8l-2.2,69.8a248.3,248.3,0,0,1,72.5-47.7,239.6,239.6,0,0,1,26.1-9.7c-7.2-16.8-15.1-33.4-20.5-50.9-7.4-23.9-9.7-50.7.9-73.3s37.1-38.9,61.1-31.7c20.3,6.1,33.1,26.2,40.5,46.1s11.5,41.3,23.3,59,34.6,30.7,54.1,22.5,26.8-35.8,23.4-58-13.3-43.5-13-66,16.6-47.7,39-45.6c18.4,1.7,30.1,20.2,37.4,37.1,5.5,12.5,10.2,25.4,14.5,38.4a251.8,251.8,0,0,1,57-65.5,219.9,219.9,0,0,1,54.7-33.6,18.6,18.6,0,0,1,18.6,2.6c2.8,2.4,4.6,5.8,7.3,8.3l.4.3c-23-70.8-82.9-130.6-147.8-164-49.2-25.3-104.7-30.4-158.2-17a329.4,329.4,0,0,0-71.2,27.3L1874.4,597,1794.2,662l-36.1-25.6c-15-3.2-30.9-10.4-43.2-25l1.7-4.4L1666,571.2l-1.7-8.5a309.1,309.1,0,0,0-58.1-21.2c-53.4-13.4-109-8.3-158.2,17-66.1,34.1-127,95.4-149,167.8q-3.8,12.5-6.5,25C1313.1,734.2,1348.1,730.2,1360.6,753.2Zm635.6-154.8,40,44L2020,657.2l-40-44Zm-33.8,89.3,17.7,13-35.2,48-17.7-13Zm-64.4-74.9,14.8,16.2-44,40-14.8-16.2Zm-125.8,89,40,44-16.2,14.8-40-44Zm-124.1,21.2-44,40-14.8-16.2,44-40Zm-35.2-125.6,17.7,13-35.2,48-17.7-13ZM1556,699.6l-15.5,15.5L1498.4,673l15.5-15.5Zm-66.3-119.7,17.7,13-35.2,48-17.7-13Z" fill="#511e2e"/><path d="M1714.9,611.4c12.3,14.6,28.3,21.8,43.2,25L1716.6,607Z" fill="#511e2e"/><path d="M1856.1,593.9c-1.1,1.4-11.4,11.4-11.1,12.3l2,5.2c-14,16.7-32.7,23.6-49.3,26.2l-5.8.7h-.4l-2.5.2c-5.4,5-9.3,8.9-9,9.4a107.9,107.9,0,0,0-7.2-9.4l-2.6-.2h-.4l-5.8-.7-6.1-1.1,36.1,25.6,80.2-65.1,10.9-28.2q-9.8,5.1-19.2,10.7A128.8,128.8,0,0,1,1856.1,593.9Z" fill="#511e2e"/><path d="M1716.6,607l.3-.8c-3.3-3.3-6.5-6.7-9.5-10.2a122.4,122.4,0,0,1-11.5-16.3c-10.3-6.1-20.8-11.9-31.6-17l1.7,8.5Z" fill="#511e2e"/><path d="M1791.9,638.3l5.8-.7c16.6-2.5,35.3-9.5,49.3-26.2l-2-5.2c-.3-.9,9.9-10.9,11.1-12.3a128.8,128.8,0,0,0,9.9-14.5l-5.7,3.5a386.2,386.2,0,0,0-43,30.8c-2.1,1.7-17.9,15.3-28.2,24.9l2.5-.2Z" fill="#511e2e"/><path d="M1770,638.3h.4l2.6.2c-15.5-18.1-37.2-32.8-56.3-45.7q-10.1-6.8-20.7-13.1a122.4,122.4,0,0,0,11.5,16.3c3,3.6,6.2,7,9.5,10.2l-.3.8,41.5,29.4,6.1,1.1Z" fill="#511e2e"/><rect x="1516.3" y="656.6" width="21.9" height="59.51" transform="translate(-38 1280.9) rotate(-45)" fill="#50c7f2"/><rect x="1589" y="723.9" width="59.5" height="21.93" transform="translate(-73.3 1280.2) rotate(-42.3)" fill="#50c7f2"/><rect x="1853.7" y="629.9" width="59.5" height="21.93" transform="translate(58.8 1433.8) rotate(-42.3)" fill="#50c7f2"/><rect x="1773.2" y="701.4" width="21.9" height="59.51" transform="translate(-27.8 1390.5) rotate(-42.3)" fill="#50c7f2"/><rect x="1997.2" y="598" width="21.9" height="59.51" transform="translate(100 1514.2) rotate(-42.3)" fill="#50c7f2"/><rect x="1923.9" y="707.2" width="59.5" height="21.93" transform="matrix(0.59, -0.81, 0.81, 0.59, 219.34, 1869.04)" fill="#50c7f2"/><rect x="1574.4" y="616.8" width="59.5" height="21.93" transform="translate(149.3 1550.2) rotate(-53.7)" fill="#50c7f2"/><rect x="1451.2" y="599.4" width="59.5" height="21.93" transform="matrix(0.59, -0.81, 0.81, 0.59, 113.03, 1443.81)" fill="#50c7f2"/></svg>