<svg id="Layer_1" data-name="Layer 1" xmlns="http://www.w3.org/2000/svg" xmlns:xlink="http://www.w3.org/1999/xlink" width="5471.8" height="3001.4" viewBox="0 0 5471.8 3001.4"><defs><linearGradient id="linear-gradient" x1="2735.91" y1="-234.05" x2="2735.91" y2="4177.76" gradientUnits="userSpaceOnUse"><stop offset="0" stop-color="#fff"/><stop offset="1" stop-color="#00aeef"/></linearGradient></defs><title>banner</title><rect y="-13.3" width="5458.4" height="3026.39" fill="#bee6f3"/><path d="M4881.7,317.8A255.4,255.4,0,0,0,4593,100.6c-96.8,13.7-173.3,80.4-204.5,166.5a11.2,11.2,0,0,0-1.1,3.6,253.6,253.6,0,0,0-11.6,118.7c13.7,96.9,80.4,173.4,166.6,204.5a11.1,11.1,0,0,0,3.4,1.1,253.4,253.4,0,0,0,107.5,12.6l86.2,609.3a11.2,11.2,0,1,0,22.2-3.1l-86.2-609.3a254.5,254.5,0,0,0,62.6-19.9l.5-.3A255.7,255.7,0,0,0,4869,440a11,11,0,0,0,.9-2.9A253.6,253.6,0,0,0,4881.7,317.8Zm-22.2,3.1a231.3,231.3,0,0,1-10.2,107.3c-78.1,55.2-131.1,38.8-161.9,15-24.3-18.8-38.7-44.5-45-63.1,22.7,12.9,58,22.3,94,17.7,24-3.1,59.2-14.3,86.7-50.9,11.4-15.1,21.4-34.7,28.8-59.6A235.4,235.4,0,0,1,4859.5,321ZM4661.3,583.8a10.7,10.7,0,0,0-2.1.7A231.2,231.2,0,0,1,4554.1,574c-55.2-78.1-39-130.6-15-161.9,18.8-24.3,44.5-38.6,63.1-44.9-12.9,22.7-22.3,58-17.7,94,4.3,33.8,25,90,110.4,115.5a232.8,232.8,0,0,1-31.3,7.1A10.7,10.7,0,0,0,4661.3,583.8Zm41.9-450.9c55.4,78.2,38.6,131.2,15.1,162.1-18.8,24.3-44.5,38.7-63.2,45,12.9-22.7,22.3-58,17.7-94-4.3-33.8-25-90-110.3-115.5a226.6,226.6,0,0,1,140.6,2.4ZM4398,386.2a231.3,231.3,0,0,1,10.3-107.3c78.1-55.1,131-38.8,161.8-15,24.3,18.8,38.7,44.5,45,63.1-22.7-12.9-58-22.3-94-17.7-33.8,4.3-90,24.9-115.5,110.3A232.6,232.6,0,0,1,4398,386.2Z" fill="#511e2e"/><path d="M5426.8,400.9A296.5,296.5,0,0,0,5272.3,11.1C5168.1-34,5052-14.2,4969,52.2a13,13,0,0,0-3.3,2.8,294.3,294.3,0,0,0-83.3,110.5c-45.1,104.3-25.3,220.4,41.3,303.4a12.9,12.9,0,0,0,2.7,3.1,294.1,294.1,0,0,0,98.9,77.6l-283.4,655.6a13,13,0,1,0,23.9,10.3L5049.2,560a295.4,295.4,0,0,0,74,18.1h.6a296.8,296.8,0,0,0,216.5-64,12.8,12.8,0,0,0,2.7-2.3A294.3,294.3,0,0,0,5426.8,400.9Zm-23.9-10.3a268.4,268.4,0,0,1-75.1,100c-110.7,7.4-153.3-40.9-169.4-83.1-12.7-33.3-11.4-67.5-6.3-89.7,14.7,26.5,43.9,57.2,82.4,74.5,25.6,11.5,67.2,21.7,116.7,2.1,20.4-8.1,42.1-21.4,64.6-41.6A273.3,273.3,0,0,1,5402.9,390.5ZM5047.6,530.9a12.4,12.4,0,0,0-2.5-.5,268.4,268.4,0,0,1-97.8-74c-7.4-110.7,40.4-153,83.1-169.4,33.3-12.7,67.4-11.4,89.7-6.3-26.5,14.7-57.2,43.9-74.4,82.4-16.2,36.1-29.7,104.2,39.4,181.2a270.2,270.2,0,0,1-35.4-11.9A12.4,12.4,0,0,0,5047.6,530.9ZM5362,109.7c7.5,111-41.2,153.3-83.1,169.7-33.3,12.7-67.5,11.4-89.8,6.3,26.5-14.7,57.2-43.9,74.5-82.4,16.2-36.1,29.7-104.2-39.4-181.2A263,263,0,0,1,5362,109.7Zm-455.6,66.2a268.4,268.4,0,0,1,75.1-100.1c110.7-7.4,153.3,40.9,169.3,83.1,12.7,33.3,11.4,67.5,6.3,89.7-14.7-26.5-43.9-57.2-82.4-74.5-36.1-16.2-104.2-29.7-181.1,39.4A270,270,0,0,1,4906.4,175.9Z" fill="#511e2e"/><circle cx="4345" cy="2156.7" r="196.1" fill="#511e2e"/><circle cx="3264.9" cy="2029.3" r="196.1" fill="#511e2e"/><path d="M5043.3,1129.4c-24.1,13.7-47.5,29-67.8,48-49.1,44.9-83.2,105.4-97.7,170.3-7.6,33.4-9.4,67.9-6.7,102a430.9,430.9,0,0,1,104.6-131,28.5,28.5,0,1,1,36.6,43.6,368.6,368.6,0,0,0-113,167.5,67.4,67.4,0,0,1-5.8,13.5c5.1,12.2,13.9,22.2,20.5,33.5a378.5,378.5,0,0,0,89.3-12c25.3-6.5,49.2-17,73-27.4,10.9-4.8,21-14.7,33.9-12.5,17.1,1.6,29.2,20.7,23.5,36.9-3.5,12.7-16.5,18.2-26.9,24.1-14.4,7-29.3,12.9-44,19-37.3,15.3-77,23.6-117,27.3,19,22.4,40.2,43.2,64.4,59.9,28,19,57.9,35.9,90.4,45.8,16.3,4.5,32.5,9.5,49.3,11.9,57.7,9.1,118.3,3.6,172.4-19.2,15.3-6.1,30.5-12.5,44.3-21.6-12.6-92.5-41.7-182.5-82-266.6A964,964,0,0,0,5178,1267.7C5138.6,1216.7,5094,1169.4,5043.3,1129.4Z" fill="#fff"/><path d="M4852.2,1590.6c-7.4-17.4-21.4-30.6-33.9-44.3-47.9-48.6-110.9-82.2-178.1-94.3-30.9-4.6-62.5-6.9-93.7-3a326.2,326.2,0,0,0-243.9,156.8c-37,61.2-52.7,134.8-45,205.8,4,38.4,15.2,75.8,31.6,110.6,2.8,6.2,8,11,10.7,17.2,6.2,16.6,17.6,30.6,28.4,44.3,31.8,41.3,74.2,74.3,121.6,96,25.7,12.7,53.6,20,81.6,25.5,58,9.6,119.1,5,173.6-17.6,17.1-6.8,34.1-14,49.4-24.2,75.1-42.7,129.5-118.3,150.2-201.8a334.6,334.6,0,0,0-15.4-207.5c-4.2-9.1-10.9-16.7-16.1-25.2C4864.1,1617.5,4859.3,1603.4,4852.2,1590.6Zm-144.3,281.4c-4.1,8.8-12.6,15.5-22.4,16.6s-19-3.5-28.2-6.3l-240.7-79.3c-13.9-5.1-28.5-8.3-41.9-14.5-16.6-8.9-18.6-34.6-3.9-46.2a28.8,28.8,0,0,1,27.6-5.3q145.8,48.1,291.7,96C4705.8,1837.4,4715,1857.2,4707.9,1871.9Zm129.6-59.9c-2.7,11.9-13.8,20.9-25.9,21.6-6.7.5-13.1-2.1-19.3-4.2-67.1-22-134.1-44.3-201.2-66.1-7.8-2.4-15.5-7.1-18.9-14.9-6.1-10.5-4-25,4.8-33.4s19.3-10.5,29.4-6.9q106.2,35.1,212.5,70C4832.6,1782.4,4841.3,1798.1,4837.5,1812Z" fill="#fff"/><path d="M4199.3,1893.1c-61.8-20.3-129-23.3-192.4-9.4-8.4,2.2-17.8,1.7-25.1-3.4-11.9-7.5-16.4-24.4-9.7-36.8,4-8.2,12.3-13.6,21.2-15.2,56-12.2,114.6-13.8,170.9-2.8-63.8-64.6-155.7-100.7-246.4-96-43.6,1.3-86.6,12.5-126,31a552.2,552.2,0,0,0,3.4,62.9c4.1,30.5,8.4,61.1,15.3,91.2,21.2,92,56.6,180.7,103.3,262.7,39.6,69.4,87.5,134.4,143.9,191.3,11.3-5,23.3-8.8,33.8-15.3,16.5-9.8,33.1-19.5,48.3-31.3a327.9,327.9,0,0,0,86.2-103.6,334.2,334.2,0,0,0,34.8-202.7,408.7,408.7,0,0,1-107.6,88.2c-12.7,6.8-24.6,16.7-39.2,18.9s-31-12.2-30.6-28.1c-.2-9.8,5.1-19.6,13.6-24.4a568.5,568.5,0,0,0,67.3-41.5,378,378,0,0,0,75.7-78.3,450.1,450.1,0,0,1-21.8-53.7A48.3,48.3,0,0,1,4199.3,1893.1Z" fill="#fff"/><path d="M5078.7,1084.8c-4.1-3.9-6.7-9-11.1-12.7-7.9-6.2-19.2-8.1-28.5-4a335.9,335.9,0,0,0-83.6,51.3c-53,43-94.4,100.3-117.8,164.3-22.3,58.9-29.9,123.5-21.3,185.9-36-28.7-78.1-48.9-121.8-62.9-86.1-26.3-181.6-21.5-264.2,14.7-65.3,28-122.3,74.9-162.7,133.2a388.3,388.3,0,0,0-68.9,224.3c-27.2-25-57.4-46.9-90.3-63.7a383.3,383.3,0,0,0-361.6,4.5,28.5,28.5,0,0,0-14.1,17.5c-3,8.8,1.7,17.5,1.4,26.3a839.4,839.4,0,0,0,23.4,175.2c26.5,109.2,71.9,213.7,131.8,308.7,41.8,65.6,90.6,127.1,147.5,180.3,8.9,8.9,23.6,11,34.4,4.4,5.4-2.6,8.3-8.1,12.1-12.4,9.9-5.1,20.7-8.1,30.3-13.7,19.1-11.2,38.2-22.4,56.1-35.5a385,385,0,0,0,105.8-124.9c30.1-56.9,46.1-121.4,45-185.9,18.5,18.2,39.5,33.6,61.1,47.8,29.9,18,61.6,33.5,95.3,43.1,24,6.4,48.3,12.5,73.2,14.1a373.3,373.3,0,0,0,159.4-18c24.7-9.5,49.7-18.9,72.1-33.4,13.6-8.6,27.6-16.6,40.4-26.5a385.1,385.1,0,0,0,119.3-155.9c26.2-62.2,35.2-131.2,27-198.2,46.9,34.4,100.9,59.9,158.3,70.5,60.6,12.1,124.2,9.6,183.4-8.1,21.5-6.8,42.2-15.6,62.8-24.7,10.9-5.6,21.2-12.2,31.8-18.4,7.5-4.3,12.1-12,16.6-19s3.5-16.9,2.2-25.4c-16.4-125.5-60.5-246.5-122.5-356.4C5243.9,1250.4,5170,1157.5,5078.7,1084.8Zm-838.8,865.8a378,378,0,0,1-75.7,78.3,568.5,568.5,0,0,1-67.3,41.5c-8.6,4.9-13.8,14.7-13.6,24.4-.4,16,14.8,29.8,30.6,28.1s26.5-12.1,39.2-18.9a408.7,408.7,0,0,0,107.6-88.2,334.2,334.2,0,0,1-34.8,202.7,327.9,327.9,0,0,1-86.2,103.6c-15.1,11.8-31.8,21.5-48.3,31.3-10.6,6.6-22.5,10.3-33.8,15.3-56.4-56.8-104.2-121.8-143.9-191.3-46.7-82-82.1-170.7-103.3-262.7-6.8-30.1-11.2-60.6-15.3-91.2a552.2,552.2,0,0,1-3.4-62.9c39.4-18.5,82.5-29.7,126-31,90.7-4.6,182.7,31.4,246.4,96-56.3-11-114.9-9.4-170.9,2.8-8.9,1.6-17.2,7-21.2,15.2-6.7,12.4-2.3,29.3,9.7,36.8,7.3,5.1,16.7,5.5,25.1,3.4,63.5-14,130.7-11,192.4,9.4a48.3,48.3,0,0,0,18.8,3.8A450.1,450.1,0,0,0,4239.9,1950.6Zm649.6-296.4a334.6,334.6,0,0,1,15.4,207.5c-20.6,83.5-75.1,159.1-150.2,201.8-15.3,10.3-32.3,17.4-49.4,24.2-54.6,22.6-115.6,27.2-173.6,17.6-28-5.6-55.9-12.8-81.6-25.5-47.4-21.7-89.8-54.7-121.6-96-10.9-13.8-22.2-27.7-28.4-44.3-2.7-6.2-7.9-11-10.7-17.2-16.4-34.8-27.6-72.2-31.6-110.6-7.7-71,8-144.6,45-205.8A326.2,326.2,0,0,1,4546.6,1449c31.1-3.9,62.7-1.6,93.7,3,67.2,12.1,130.2,45.7,178.1,94.3,12.5,13.7,26.5,26.9,33.9,44.3,7,12.8,11.9,26.9,21.1,38.5C4878.6,1637.5,4885.3,1645.1,4889.5,1654.2Zm395-211.7c40.3,84.1,69.3,174.1,82,266.6-13.8,9.1-29.1,15.5-44.3,21.6-54.1,22.8-114.7,28.3-172.4,19.2-16.8-2.4-33-7.4-49.3-11.9-32.5-9.9-62.4-26.8-90.4-45.8-24.2-16.8-45.3-37.5-64.4-59.9,40-3.7,79.8-12.1,117-27.3,14.8-6.1,29.7-12,44-19,10.4-5.9,23.4-11.4,26.9-24.1,5.7-16.2-6.4-35.2-23.5-36.9-12.9-2.2-23,7.7-33.9,12.5-23.8,10.4-47.8,20.9-73,27.4a378.5,378.5,0,0,1-89.3,12c-6.6-11.3-15.4-21.3-20.5-33.5a67.4,67.4,0,0,0,5.8-13.5,368.6,368.6,0,0,1,113-167.5,28.5,28.5,0,1,0-36.6-43.6,430.9,430.9,0,0,0-104.6,131c-2.7-34.1-.9-68.6,6.7-102,14.5-64.9,48.6-125.4,97.7-170.3,20.2-19.1,43.7-34.3,67.8-48,50.7,40,95.3,87.2,134.7,138.3A964,964,0,0,1,5284.5,1442.4Z" fill="#511e2e"/><path d="M4398.4,1736.9a28.8,28.8,0,0,0-27.6,5.3c-14.7,11.6-12.7,37.3,3.9,46.2,13.4,6.2,28,9.4,41.9,14.5l240.7,79.3c9.2,2.8,18.3,7.7,28.2,6.3s18.3-7.8,22.4-16.6c7.1-14.8-2.1-34.5-17.8-38.9Q4544.2,1785.1,4398.4,1736.9Z" fill="#511e2e"/><path d="M4606.3,1708.3c-10.1-3.6-21.8-.6-29.4,6.9s-10.9,22.9-4.8,33.4c3.5,7.7,11.1,12.4,18.9,14.9,67.1,21.9,134.1,44.1,201.2,66.1,6.2,2.1,12.6,4.6,19.3,4.2,12.1-.7,23.2-9.7,25.9-21.6,3.8-13.9-4.9-29.6-18.7-33.8Q4712.5,1743.2,4606.3,1708.3Z" fill="#511e2e"/><path d="M4990.8,1717.8c115.3,0,181.6-24.1,201.4-73.2l.4-1.1a92.6,92.6,0,0,0,6.1-33.8c0-45-34.3-62.9-66.4-69.8-18.2,31.1-69.7,50.1-141.4,50.1s-123.6-19.1-141.6-50.4c-32,6.2-66.2,23.6-66.2,70.1C4782.9,1636.5,4782.9,1717.8,4990.8,1717.8Zm106.2-115.5a10.6,10.6,0,0,1,14-5.5l20,8.8a10.6,10.6,0,1,1-8.5,19.5l-20-8.8A10.7,10.7,0,0,1,5096.9,1602.3Zm-79,26.1,21.1-5.6a10.6,10.6,0,1,1,5.5,20.6l-21.1,5.6a11,11,0,0,1-2.7.4,10.6,10.6,0,0,1-2.7-20.9Zm-86.9-12a10.7,10.7,0,0,1,13.1,7.5l5.7,21.1a10.6,10.6,0,1,1-20.6,5.6l-5.7-21.1A10.6,10.6,0,0,1,4931.1,1616.3Zm-91.2-12.8,18.4-11.8a10.6,10.6,0,1,1,11.5,17.9l-18.4,11.8a10.6,10.6,0,0,1-11.5-17.9Z" fill="#fff" stroke="#231f20" stroke-miterlimit="10"/><path d="M5122,2037.9c-10.7,9.4-31.8,23.2-64.1,25.2-30.5,1.8-54.1-8.3-67.3-17.6-12.2,8.5-33,17.8-60,17.8l-6.9-.2c-30.2-1.9-52-14.6-64.1-25.3-14.3,8.3-39.3,16.7-70,8.9a129.8,129.8,0,0,1-34.3-14.2l49.4,199.1c14.5,7.4,70,31.2,186.3,31.2s170.5-23,185.7-30.8l49.4-199.3a130.4,130.4,0,0,1-34.1,14.1C5161.3,2054.5,5136.3,2046.1,5122,2037.9Zm-234.6,187.8H4886a10.6,10.6,0,0,1-10.5-9.3l-17.1-131.8a10.6,10.6,0,1,1,21.1-2.8l17.1,131.8A10.6,10.6,0,0,1,4887.4,2225.6Zm114-2.7a10.6,10.6,0,0,1-21.3,0V2090.4a10.6,10.6,0,0,1,21.3,0Zm121.2-138.2-17.1,131.8a10.6,10.6,0,0,1-10.5,9.3h-1.4a10.6,10.6,0,0,1-9.2-11.9l17.1-131.8a10.6,10.6,0,1,1,21.1,2.7Z" fill="#fff" stroke="#231f20" stroke-miterlimit="10"/><path d="M4990.7,1564.5c71.4,0,123.2-21.4,123.2-51,0-87.7-108.1-117.5-154.7-126.3.5,21.8-19.9,34.1-37,44.5-25.6,15.5-54.6,33.1-54.6,81.8C4867.6,1543,4919.4,1564.5,4990.7,1564.5Zm49.8-83.9,18.4-11.8a10.7,10.7,0,0,1,11.5,17.9l-18.4,11.8a10.7,10.7,0,0,1-11.5-17.9Zm-68.6-39.3,21.1-5.6a10.6,10.6,0,1,1,5.4,20.6l-21.1,5.6a10.4,10.4,0,0,1-2.7.4,10.6,10.6,0,0,1-2.7-20.9Zm-53.5,48a10.6,10.6,0,0,1,14-5.5l20,8.8a10.7,10.7,0,1,1-8.5,19.5l-20-8.8A10.7,10.7,0,0,1,4918.4,1489.2Z" fill="#fff" stroke="#231f20" stroke-miterlimit="10"/><path d="M4990.7,2029.3h0Z" fill="#fff" stroke="#231f20" stroke-miterlimit="10"/><path d="M4990.8,1743.4c-114.6,0-187.2-24.7-217.4-73.4-48.3,52.5-77.4,136.7-70.9,213.1,24.7,14.8,40,3,62.2-14.2,25-19.4,56.2-43.6,107.6-26.1,14.9,5,27.6,16.6,39.9,27.8s21.4,19.5,32.1,23.5c23.8,8.9,51,2.2,67.7-16.5,4.5-5,9.2-11.4,14.2-18.2,18.7-25.2,41.7-56.5,78-54.2,22.1,1.5,36.6,11.1,50.7,20.5a202.4,202.4,0,0,0,19.1,11.7c18.9,9.8,36.8,8.1,54.9-5.2s30.5-32.6,39.7-49.2c-12-43-33.2-83-60.5-112.7C5177.8,1718.8,5105.2,1743.4,4990.8,1743.4Z" fill="#fff" stroke="#231f20" stroke-miterlimit="10"/><path d="M5102.4,1616.3l20,8.8a10.6,10.6,0,0,0,8.5-19.5l-20-8.8a10.6,10.6,0,1,0-8.5,19.5Z" fill="#511e2e"/><path d="M4923.9,1503.3l20,8.8a10.7,10.7,0,0,0,8.5-19.5l-20-8.8a10.7,10.7,0,0,0-8.5,19.5Z" fill="#511e2e"/><path d="M4974.6,1462.2a10.4,10.4,0,0,0,2.7-.4l21.1-5.6a10.6,10.6,0,1,0-5.4-20.6l-21.1,5.6a10.6,10.6,0,0,0,2.7,20.9Z" fill="#511e2e"/><path d="M5046.3,1500.2a10.6,10.6,0,0,0,5.8-1.7l18.4-11.8a10.7,10.7,0,0,0-11.5-17.9l-18.4,11.8a10.7,10.7,0,0,0,5.8,19.6Z" fill="#511e2e"/><path d="M5020.7,1649.3a11,11,0,0,0,2.7-.4l21.1-5.6a10.6,10.6,0,1,0-5.5-20.6l-21.1,5.6a10.6,10.6,0,0,0,2.7,20.9Z" fill="#511e2e"/><path d="M4990.7,2079.7a10.6,10.6,0,0,0-10.6,10.6v132.5a10.6,10.6,0,0,0,21.3,0V2090.4A10.6,10.6,0,0,0,4990.7,2079.7Z" fill="#511e2e"/><path d="M5113.4,2072.8a10.6,10.6,0,0,0-11.9,9.2l-17.1,131.8a10.6,10.6,0,0,0,9.2,11.9h1.4a10.6,10.6,0,0,0,10.5-9.3l17.1-131.8A10.6,10.6,0,0,0,5113.4,2072.8Z" fill="#511e2e"/><path d="M4929.4,1650.4a10.6,10.6,0,0,0,20.6-5.6l-5.7-21.1a10.6,10.6,0,1,0-20.6,5.6Z" fill="#511e2e"/><path d="M5224.2,1609.7c0-48.3-30.8-82.2-84.8-94.4,0-.6.1-1.2.1-1.8,0-96.8-105.8-143.8-196.5-154.7a12.8,12.8,0,0,0-12.8,18.7c7,13.1,4.6,16.7-21.2,32.4s-66.9,40.5-66.9,103.6c0,.5.1,1,.1,1.5-54.1,11.2-84.8,45.2-84.8,94.8a123.9,123.9,0,0,0,4.9,34.9h0c-85.3,84.3-121,258.6-40.4,359.1l59.3,239.3a12.8,12.8,0,0,0,5.3,7.5c2.3,1.5,58.1,37.7,204.5,37.7s202.1-36.1,204.5-37.7a12.4,12.4,0,0,0,5.5-10.2l58.7-236.9c80.2-100.5,44.7-274.4-40.4-358.6A124,124,0,0,0,5224.2,1609.7Zm-302-178c17.2-10.4,37.6-22.7,37-44.5,46.6,8.8,154.7,38.6,154.7,126.3,0,29.5-51.8,51-123.2,51s-123.2-21.4-123.2-51C4867.6,1464.8,4896.6,1447.2,4922.2,1431.7Zm-73.1,107.9c18,31.3,69.6,50.4,141.6,50.4s123.2-19,141.4-50.1c32.1,6.9,66.4,24.8,66.4,69.8a92.6,92.6,0,0,1-6.1,33.8l-.4,1.1c-19.8,49.1-86.1,73.2-201.4,73.2-207.8,0-207.8-81.3-207.8-108C4782.9,1563.2,4817.1,1545.8,4849.1,1539.6ZM5176.6,2232c-15.2,7.8-69.9,30.8-185.7,30.8s-171.8-23.7-186.3-31.2l-49.4-199.1a129.8,129.8,0,0,0,34.3,14.2c30.7,7.8,55.7-.6,70-8.9,12.1,10.7,33.9,23.4,64.1,25.3l6.9.2c27,0,47.8-9.2,60-17.8,13.3,9.3,36.8,19.3,67.3,17.6,32.3-2.1,53.4-15.9,64.1-25.2,14.3,8.2,39.3,16.6,70,8.8a130.4,130.4,0,0,0,34.1-14.1Zm-185.9-202.7h0Zm277.8-246.3c-9.2,16.6-22.7,36.7-39.7,49.2s-36,15-54.9,5.2a202.4,202.4,0,0,1-19.1-11.7c-14.1-9.4-28.6-19-50.7-20.5-36.3-2.3-59.3,29-78,54.2-5,6.8-9.8,13.2-14.2,18.2-16.7,18.7-43.9,25.4-67.7,16.5-10.7-4-21.1-13.5-32.1-23.5s-25-22.8-39.9-27.8c-51.4-17.5-82.6,6.7-107.6,26.1-22.2,17.2-37.5,29-62.2,14.2-6.5-76.4,22.6-160.7,70.9-213.1,30.1,48.7,102.8,73.4,217.4,73.4s187-24.6,217.2-73.2C5235.4,1700,5256.5,1740,5268.5,1782.9Z" fill="#511e2e"/><path d="M4845.7,1623.1a10.5,10.5,0,0,0,5.8-1.7l18.4-11.8a10.6,10.6,0,1,0-11.5-17.9l-18.4,11.8a10.6,10.6,0,0,0,5.8,19.6Z" fill="#511e2e"/><path d="M4879.4,2081.9a10.6,10.6,0,1,0-21.1,2.8l17.1,131.8a10.6,10.6,0,0,0,10.5,9.3h1.4a10.6,10.6,0,0,0,9.2-11.9Z" fill="#511e2e"/><path d="M4806.2,2266.5c-6.4,5.9-10.8,13.6-17.2,19.5s-12.8,10-20.9,9.8-15.8-5.7-21.5-11.6-10.4-14.1-17.8-18.9c-4.1-2.9-9.6-3.9-14.2-1.9-6.3,2.6-10.8,8-14.8,13.2s-10,11.8-16.7,15.7c-4.9,2.9-10.8,4.2-16.3,2.7-7.3-1.9-13.1-7.1-18.2-12.5s-10.4-14.7-18.4-18.9a12.6,12.6,0,0,0-12.1.3,108.9,108.9,0,0,0,11.6,20.8,111.9,111.9,0,0,0,53.7,41c12.6,4.7,26,6.4,39.4,6.4,8.8-.6,17.6-1.1,26.1-3.6a111.5,111.5,0,0,0,73.9-64c-2.1-1.4-4.5-2.7-7.2-2.6S4808.7,2264.2,4806.2,2266.5Z" fill="#fff" stroke="#231f20" stroke-miterlimit="10"/><path d="M4900.4,2171.4c-8.5,2.3-16.9,4.8-24.8,8.8a123.4,123.4,0,0,0-26.1,16.4c.1,5.3,1.3,10.5,1.4,15.8a128.7,128.7,0,0,0,54.8,21.4c4.1.7,8.9,0,12.1,3.2s3.9,11.7-1,14.9c-3.4,2.6-7.8,1.6-11.7,1.2a149.4,149.4,0,0,1-51.6-16.6,109.8,109.8,0,0,0,8.7,21.8c5.4,9.8,11.7,19.2,19.7,27a137.2,137.2,0,0,0,14.1,12.1c16.3,11.7,35.8,19.2,56,20.3a85.1,85.1,0,0,0,19.2-.2c3.3-1.8,6.9-3,9.9-5.1,7.1-4.5,11.8-12,14.1-19.9a41,41,0,0,0-2.4-29c-2-4.2-5-7.8-8-11.3a9.7,9.7,0,0,1-3-10.1c.6-2.4,2.4-4.1,4.2-5.7,5.3-4.6,8.5-11,10.4-17.6,4-14-.3-30.3-11.4-39.8-2.3-2.2-5.2-3.6-7.9-5.2a10.6,10.6,0,0,1-4-13.3c1-2.2,3-3.6,4.6-5.3a38.7,38.7,0,0,0,10-24.7c.7-13.6-5.9-27.9-18.1-34.5-2.9-1.3-5.7-3.1-9-2.8s-7.9.4-11.9.7a108.7,108.7,0,0,0-56.3,22.8,112,112,0,0,0-37.2,52.5c14-8,29.1-14.4,44.9-17.4a9.6,9.6,0,0,1,8.1,2,9.7,9.7,0,0,1,1.5,13.3C4907.7,2170.1,4903.8,2170.8,4900.4,2171.4Z" fill="#fff" stroke="#231f20" stroke-miterlimit="10"/><path d="M4659.8,2185.9c4.2,3.4,9.7,5.6,15.1,4.3s11.8-6.9,16.3-11.9,10.1-13.3,17.3-17.6c5-3.2,11.4-4.5,17.1-2.6,7.4,2.4,13.1,8.1,17.9,14s10.2,13,17.6,16.7a16.9,16.9,0,0,0,15.3,0c8.1-4.1,13.5-11.5,19-18.4s10.3-11.6,17.8-13.4a123.6,123.6,0,0,0-17.9-21,118.2,118.2,0,0,0-29.8-19.5,110.6,110.6,0,0,0-87.2-1.1,112.2,112.2,0,0,0-50.6,41.9,27.4,27.4,0,0,1,11.5,6.3C4646.9,2170.2,4651.6,2179.7,4659.8,2185.9Z" fill="#fff" stroke="#231f20" stroke-miterlimit="10"/><path d="M4624.7,2245.9c5.5.1,10.5,3.1,14.5,6.7,7,6,11.4,14.2,18.3,20.3,3.8,3.5,8.6,6.5,13.9,6.5s10.1-3,13.9-6.4c7.6-6.6,12.3-16,20.6-21.9,5.1-3.9,11.9-6.3,18.4-4.5s13.7,7.8,18.6,13.8,10.5,13.5,18.2,17.3a16.9,16.9,0,0,0,15.7-.4c8.4-4.5,13.7-12.5,19.6-19.6,4.5-5,9.5-10.3,16.4-11.8s10.6,1.5,14.7,4.8a116,116,0,0,0,3.8-20.4c.2-1.3-1-2.1-1.6-3-3.2-3.6-6.6-7.6-11.3-9.2s-8,.5-11,3.1c-6.8,5.7-11.2,13.6-17.6,19.7s-12.9,10.6-21.1,10.7-15.5-5-21.2-10.6-11.2-15.1-19.2-20.1a14.8,14.8,0,0,0-14.4-1.5c-6.5,2.9-11,8.7-15.3,14.2s-11.3,12.9-19.2,16.2a21.1,21.1,0,0,1-18.3-1.1c-9-4.8-15.2-13.1-21.4-20.8-4-4.5-8.7-9.5-15.1-9.9s-11.4,4.9-15.5,9.4c.3,7.6,2.1,15.1,3.8,22.5C4616.5,2247.4,4620.5,2245.7,4624.7,2245.9Z" fill="#fff" stroke="#231f20" stroke-miterlimit="10"/><path d="M4580,2194c-16.2-13.5-36.2-22.2-56.8-26.3a9.6,9.6,0,1,1,4.3-18.8,148.2,148.2,0,0,1,60.2,26.5,125.2,125.2,0,0,0-7-19,113,113,0,0,0-30.8-39,110.8,110.8,0,0,0-71.1-24.6c-7,1.3-14.2,3.7-19.1,9.2-8,7.7-11.7,19.3-10.9,30.3.8,8.6,3.8,17.3,9.9,23.6a9.7,9.7,0,0,1,2.9,8.1c-.2,3-2.5,5.2-3.7,7.9s-4.1,3.8-6.5,5.3c-7.3,4.7-12.2,12.5-14.7,20.7-1.3,4.4-1.3,8.9-1.2,13.4.6,9.8,4.5,19.7,12.1,26.1,2.2,2.1,5.4,3.3,6.9,6.2a9.7,9.7,0,0,1-1.6,11.6,11.4,11.4,0,0,1-5.4,2.8c-1.7,3.4-3.9,6.4-5,10.1a40.5,40.5,0,0,0,6.4,38.6c4.6,4.8,10.1,9.2,16.8,10.4,3.9,0,7.9.3,11.8.7s7.3-.2,11-.4c23.5-1.3,46.2-10.9,64-26.2a113.3,113.3,0,0,0,35.9-58,146.9,146.9,0,0,1-59.7,17.3c-3.3.1-6.8.9-9.8-.7a9.6,9.6,0,0,1,3.5-18.2,181.2,181.2,0,0,0,19.3-2.1,130.8,130.8,0,0,0,48.3-19.8c.2-2,.4-4.1.6-6.1A85.7,85.7,0,0,0,4580,2194Z" fill="#fff" stroke="#231f20" stroke-miterlimit="10"/><path d="M4638.7,2207.7c8.1,6.7,12.9,16.5,21.4,22.8,4.3,3.4,10,5.6,15.4,3.9,7.3-2.2,12.7-8.1,17.4-13.8s10.4-13.2,18-16.9a19.6,19.6,0,0,1,16-.8c7.6,3,13.2,9.2,18.1,15.5s10,12.1,17.2,15.2a17.1,17.1,0,0,0,15.4-1.3c8.2-4.7,13.5-12.8,19.5-19.8,4.5-4.9,9.6-10.1,16.4-11.3s12.1,2.9,16.4,7.1c-.2-4.4.4-8.8-.7-13.1-1.6-6.2-3.1-12.5-5.8-18.4a10.3,10.3,0,0,0-12.3-2.6c-4.9,2.5-8.4,7-11.8,11.1-5.3,6.9-11.1,13.8-18.7,18.2-5.1,3-11.2,4.4-17,2.8-7.6-1.9-13.6-7.2-18.8-12.8s-10.3-14.4-18.3-18.4a14.6,14.6,0,0,0-14.3.4c-7.7,4.4-12.1,12.4-18.1,18.7s-10.7,10.1-17.7,11.9-11.7.1-16.6-2.9c-8.2-4.9-14.1-12.7-19.9-20-4-4.5-8.7-9.6-15.2-9.9-2.3.1-5.1.4-6.7,2.1a114.4,114.4,0,0,0-8.4,32.6c4-3.6,9.1-6.6,14.6-6.7S4634.6,2204.2,4638.7,2207.7Z" fill="#fff" stroke="#231f20" stroke-miterlimit="10"/><path d="M4618.4,2302c6.8,9,15.2,16.5,24,23.4,19,14.1,41.9,23.4,65.6,25.3,6.7.6,13.5,1.1,20.2.3s12.6-.9,18.8-2.3a130.7,130.7,0,0,0,57.7-28.3,132.2,132.2,0,0,0,38.7-56.1,155.2,155.2,0,0,0,10.8,18.1c19.9,28.3,51.6,48.3,85.9,53.5,9.3,1.1,18.7,2.2,28,1.3,2.9-.3,6,0,8.6-1.6s4.9-1.5,7.1-2.7c15.2-6.4,26.3-20.7,30.3-36.5a60,60,0,0,0-10-51c13.3-15.6,16.6-38.5,9.7-57.7a57.7,57.7,0,0,0-17.6-24.8c14-19.3,14.3-47.3.9-67a52,52,0,0,0-24.1-19.6c-2.2-.8-4.3-2.2-6.8-2.4-21.2-1.4-42.5,3.5-61.6,12.5-31.1,14.8-56,42.4-67.1,75-6.5-14.2-16.2-26.8-27.2-37.7a130.3,130.3,0,0,0-206.9,36.9c-1.2-3.5-2.7-6.9-4.3-10.2a131.2,131.2,0,0,0-62.1-63.8,129.3,129.3,0,0,0-61.3-12.9c-2.4.1-4.5,1.2-6.8,1.7-9.4,2-17.9,7.6-24.3,14.7-9.2,9.7-14.3,22.9-15.2,36.2a59.1,59.1,0,0,0,9.8,36.1c-13.3,9.6-21.7,25.4-22.9,41.7q.1,3.7-.1,7.5c.7,13.5,5.7,27,15.1,37a48,48,0,0,0-7,13.7c-7.5,20.7-2.3,45.8,13.7,61.1a49.2,49.2,0,0,0,25.6,13.3c3.6.2,7.2,0,10.8.5,5.6.7,11.3,0,16.9-.3,23.7-1.5,46.7-10.5,65.9-24.4a130.7,130.7,0,0,0,40.2-48.1A128.7,128.7,0,0,0,4618.4,2302Zm289.9-148.2a9.6,9.6,0,0,0-8.1-2c-15.9,3-31,9.3-44.9,17.4a112,112,0,0,1,37.2-52.5,108.7,108.7,0,0,1,56.3-22.8c4-.3,7.9-.9,11.9-.7s6.1,1.5,9,2.8c12.1,6.7,18.8,21,18.1,34.5a38.7,38.7,0,0,1-10,24.7c-1.6,1.7-3.6,3.1-4.6,5.3a10.6,10.6,0,0,0,4,13.3c2.7,1.6,5.6,3,7.9,5.2,11.1,9.5,15.4,25.8,11.4,39.8-1.9,6.6-5.2,13-10.4,17.6-1.8,1.6-3.6,3.3-4.2,5.7a9.7,9.7,0,0,0,3,10.1c2.9,3.6,6,7.1,8,11.3a41,41,0,0,1,2.4,29c-2.3,7.9-7.1,15.4-14.1,19.9-3.1,2.1-6.7,3.4-9.9,5.1a85.1,85.1,0,0,1-19.2.2c-20.1-1.2-39.6-8.7-56-20.3a137.2,137.2,0,0,1-14.1-12.1c-8-7.9-14.3-17.2-19.7-27a109.8,109.8,0,0,1-8.7-21.8,149.4,149.4,0,0,0,51.6,16.6c3.9.4,8.3,1.4,11.7-1.2,4.9-3.2,5.4-11.1,1-14.9s-8-2.5-12.1-3.2a128.7,128.7,0,0,1-54.8-21.4c-.1-5.3-1.2-10.5-1.4-15.8a123.4,123.4,0,0,1,26.1-16.4c7.9-3.9,16.3-6.4,24.8-8.8,3.4-.7,7.2-1.3,9.4-4.4A9.7,9.7,0,0,0,4908.3,2153.8Zm-123,157.4a111.7,111.7,0,0,1-36.6,17.4c-8.5,2.4-17.4,2.9-26.1,3.6-13.3,0-26.8-1.7-39.4-6.4a111.9,111.9,0,0,1-53.7-41,108.9,108.9,0,0,1-11.6-20.8,12.6,12.6,0,0,1,12.1-.3c8,4.3,12.4,12.5,18.4,18.9s10.9,10.6,18.2,12.5c5.5,1.5,11.5.2,16.3-2.7,6.7-3.9,11.9-9.7,16.7-15.7s8.6-10.6,14.8-13.2c4.7-2,10.1-.9,14.2,1.9,7.4,4.8,11.6,12.9,17.8,18.9s13,11.3,21.5,11.6,15.2-4.5,20.9-9.8,10.9-13.5,17.2-19.5c2.6-2.3,5.6-4.5,9.2-4.6s5.1,1.2,7.2,2.6A112.5,112.5,0,0,1,4785.3,2311.2Zm-107.2-195.8a110.6,110.6,0,0,1,87.2,1.1,118.2,118.2,0,0,1,29.8,19.5,123.6,123.6,0,0,1,17.9,21c-7.5,1.8-13,7.7-17.8,13.4s-10.9,14.4-19,18.4a16.9,16.9,0,0,1-15.3,0c-7.3-3.7-12.6-10.3-17.6-16.7s-10.5-11.6-17.9-14c-5.7-1.9-12.1-.6-17.1,2.6-7.2,4.3-12.1,11.3-17.3,17.6s-9.6,10.2-16.3,11.9-10.9-.9-15.1-4.3c-8.2-6.2-12.9-15.7-20.7-22.3a27.4,27.4,0,0,0-11.5-6.3A112.2,112.2,0,0,1,4678.1,2115.4Zm-60.2,60.1c1.7-1.7,4.4-2,6.7-2.1,6.4.4,11.2,5.4,15.2,9.9,5.9,7.3,11.7,15.1,19.9,20,4.9,3,10.9,4.4,16.6,2.9s12.8-6.7,17.7-11.9,10.4-14.3,18.1-18.7a14.6,14.6,0,0,1,14.3-.4c8,4,12.4,12.1,18.3,18.4s11.2,10.9,18.8,12.8c5.8,1.5,11.9.1,17-2.8,7.6-4.4,13.4-11.3,18.7-18.2,3.4-4.2,6.9-8.6,11.8-11.1a10.3,10.3,0,0,1,12.3,2.6c2.7,5.9,4.3,12.2,5.8,18.4,1.1,4.3.5,8.8.7,13.1-4.4-4.2-10.1-8-16.4-7.1s-11.9,6.4-16.4,11.3c-6,7-11.3,15.1-19.5,19.8a17.1,17.1,0,0,1-15.4,1.3c-7.2-3.1-12.5-9.2-17.2-15.2s-10.5-12.5-18.1-15.5a19.6,19.6,0,0,0-16,.8c-7.6,3.7-12.9,10.4-18,16.9s-10.1,11.6-17.4,13.8c-5.4,1.6-11.1-.5-15.4-3.9-8.5-6.3-13.3-16.1-21.4-22.8-4.1-3.4-9.1-6.3-14.5-6.2s-10.6,3-14.6,6.7A114.4,114.4,0,0,1,4618,2175.5Zm6.8,42.2c6.4.4,11.1,5.4,15.1,9.9,6.2,7.8,12.4,16.1,21.4,20.8a21.1,21.1,0,0,0,18.3,1.1c7.9-3.3,13.9-9.7,19.2-16.2s8.8-11.3,15.3-14.2a14.8,14.8,0,0,1,14.4,1.5c8,5.1,12.3,13.9,19.2,20.1s12.9,10.6,21.2,10.6,15.4-5.1,21.1-10.7,10.8-14,17.6-19.7c3-2.5,7-4.4,11-3.1s8.1,5.6,11.3,9.2c.6.9,1.8,1.8,1.6,3a116,116,0,0,1-3.8,20.4c-4.1-3.3-9.3-6-14.7-4.8s-11.9,6.8-16.4,11.8c-5.9,7.1-11.3,15.2-19.6,19.6a16.9,16.9,0,0,1-15.7.4c-7.7-3.8-13-10.7-18.2-17.3s-10.9-11.8-18.6-13.8-13.2.6-18.4,4.5c-8.3,5.9-13,15.3-20.6,21.9-3.9,3.4-8.6,6.5-13.9,6.4s-10.1-3.1-13.9-6.5c-6.9-6.1-11.3-14.3-18.3-20.3-4-3.5-9-6.5-14.5-6.7s-8.2,1.6-11.7,3.8c-1.7-7.4-3.5-14.9-3.8-22.5C4613.3,2222.7,4618.2,2217.7,4624.7,2217.8Zm-34.7-7.7a130.8,130.8,0,0,1-48.3,19.8,181.2,181.2,0,0,1-19.3,2.1,9.6,9.6,0,0,0-3.5,18.2c3,1.6,6.6.9,9.8.7a146.9,146.9,0,0,0,59.7-17.3,113.3,113.3,0,0,1-35.9,58c-17.8,15.3-40.5,25-64,26.2-3.7.2-7.3.7-11,.4s-7.8-.7-11.8-.7c-6.7-1.2-12.2-5.6-16.8-10.4a40.5,40.5,0,0,1-6.4-38.6c1-3.6,3.3-6.7,5-10.1a11.4,11.4,0,0,0,5.4-2.8,9.7,9.7,0,0,0,1.6-11.6c-1.5-2.8-4.7-4.1-6.9-6.2-7.6-6.5-11.5-16.4-12.1-26.1-.1-4.5-.1-9.1,1.2-13.4,2.5-8.2,7.4-16,14.7-20.7,2.3-1.5,5.2-2.7,6.5-5.3s3.5-4.9,3.7-7.9a9.7,9.7,0,0,0-2.9-8.1c-6.1-6.3-9.1-15-9.9-23.6-.8-11,2.8-22.5,10.9-30.3,4.8-5.5,12.1-7.9,19.1-9.2a110.8,110.8,0,0,1,71.1,24.6,113,113,0,0,1,30.8,39,125.2,125.2,0,0,1,7,19,148.2,148.2,0,0,0-60.2-26.5,9.6,9.6,0,1,0-4.3,18.8c20.6,4.1,40.6,12.7,56.8,26.3a85.7,85.7,0,0,1,10.7,9.9C4590.4,2206,4590.3,2208,4590.1,2210.1Z" fill="#511e2e"/><path d="M3414.8,2199c-20.8-12.4-41.4-25-62.1-37.6-9.2-5.2-35.6-18.9-38.1-30.4-7.2,27.3-13.9,54.9-18.3,82.8-2.3,14.4-7.4,36.1-.3,50,3.7,7.3,14.8,5.6,21.5,6.3l46.9,5.2,93.7,10.4a1313.3,1313.3,0,0,0,182.9,7.6,1190.4,1190.4,0,0,1-119.2-41.6C3485.3,2236.7,3448.6,2219.1,3414.8,2199Z" fill="#fff" stroke="#231f20" stroke-miterlimit="10"/><path d="M3579.1,1890.2c25.4,10.1,50.6,20.9,75.8,31.4s50.4,20,74.7,31.9c34.6,17,75,33,103.9,58.9-2.2-8.5-4.2-17.1-6.7-25.5-24.3-67.1-65.6-135.7-129.4-160.4-40.5-15.7-86-14.9-128.5-9.8-45.1,5.5-90.3,18.9-128,44.9C3486.9,1856.1,3537,1873.5,3579.1,1890.2Z" fill="#fff" stroke="#231f20" stroke-miterlimit="10"/><path d="M3554.6,1752.3c-5.3-8.3-9.2-17.5-13.5-26.3s-7.9-20.9-11-31.3c-7.5-25-12.7-53.3-9.4-79.5,1.7-12.9,10.6-24.8,14.9-5.5,2.6,11.9,4.7,23.9,7.1,35.9,4.5,23,9.4,52.3,20.1,73.4,3.8,9.7,6.5,19.8,10.5,29.5,2.6,6.3,5.3,12.7,7.6,19.1,4.2.4,8.3.6,12.5.8,10.4.4,20.2-19.3,25.5-27.9,11.8-15.6,22.7-33.9,29-52.6,3-9,13.2-26.8,17.3-7.1,2.2,10.6-.3,21.2-2.9,31.4-5.5,21-21.8,42.6-39,55.3,38.8-3.7,83.4-18.9,101.2-56.7,10.1-21.4,6.3-41.3,4.3-63.8s8.2-46.8,11.8-69.6c-14.6-2.3-32.1-8.2-46.4-8.6,1.2,0-6.2,7-5.7,6.6a171.9,171.9,0,0,1-24.1,15.2c-12.6,6.4-30.6,15.4-45,14.9-29.2-1-49.9-39.6-63.4-61-26.9,19.3-65.7,43.4-97.1,20.4.7,12.1.7,24.4-1.5,36.4-.8,4.2-1.6,8.4-2.3,12.7-3.5,19.2-9.5,60.7,4,87.8,19,38.1,64.8,57,104.5,63.6C3563.4,1762.3,3556.1,1754.4,3554.6,1752.3Z" fill="#fff" stroke="#231f20" stroke-miterlimit="10"/><path d="M3837,2025.4c-7.3-1.9-13.9-5.8-20.7-9-11.5-5.4-23.2-10.4-34.7-15.8-35.1-16.2-71.5-29.9-107.3-44.7-28.7-11.9-57-24.2-85.4-36.7-25.4-11.2-51.2-21.8-77.4-31.2a392.9,392.9,0,0,0-42-13.1c-11.5-2.8-25.5-2.4-36.2-7.7-11.6,8.8-13.4,10.6-11.7,9.7a199.1,199.1,0,0,0-54.2,80.4c19.6,3.3,41.5,19.6,59,28.8,25.7,13.5,52,25.9,78,38.7,35.6,17.4,72,33.2,108.1,49.5s75.6,31.7,113.5,45.2c21.2,7.5,42.2,15.3,63.5,22.8s50.4,12.5,70.8,25.1c-5.1-37.6-9.5-75.2-16.9-112.4Q3840.4,2040.1,3837,2025.4Z" fill="#fff" stroke="#231f20" stroke-miterlimit="10"/><path d="M3785.9,2160.3c-20.2-5.5-40.2-11.5-60.2-17.6-40.8-12.4-83.1-27.4-121.6-45.6-34.5-16.3-69.5-31.8-103.1-49.7-25-13.3-49.7-27.2-73.8-42.2-19.6-12.2-47.8-25.1-61-44.8-19.5,55.4-36.2,112.3-51.1,169.1,7.1-4.3,33.3,13.9,39.8,16.7s14,6.6,21,10c27.7,13.7,54.9,28.8,83.2,41.1,37.5,16.4,74.7,32.7,112.9,47.4,39.8,15.3,79.7,31.3,120.7,43,8.1,2.3,14.6,1.1,22.9.4,0-2.8-1.3-6.2-.9-8.9.7-5.2-2.4-11.8.9-16.5,11.6-16.9,25,13.9,23.8,23.7l17.1-1.1c-1.4-7.2-4.5-40.4,12.9-30.4,10.7,6.1,11.4,18.2,9.3,28.8l17.5-1.5c.5-4.2-.7-8.3-.2-12.5-.5-5.9-.4-11.5-1.3-17.3s-5.5-22.7,2.5-26.8c22.7-12,22.6,45.1,18.7,54.2a147.5,147.5,0,0,0,25.4-5.6c-6.5-6-16.4-47.3-8.5-53,20.3-15,26.8,35.2,22.7,44.7,15.3-16.2,9.2-68.1,5.5-94.3C3840.2,2179.5,3806.3,2165.9,3785.9,2160.3Z" fill="#fff" stroke="#231f20" stroke-miterlimit="10"/><path d="M3695.6,1782.8c35.9-19.9,79.7-56,77.3-101.7-.7-12.9-4.9-25.2-6.2-38s18.6-93.1,5.9-101-39.3-8.3-53.7-9.1c-22.7-1.3-38.5,8.7-56.8,20.7-42.5,27.8-63.2-19.7-83.7-49.8-11.3-16.7-39.1,12.1-49.6,18.1-13.7,7.8-28.9,12.8-43.8,5.3-8.4-4.2-15.4-10.8-21.8-17.6s-12.9-20.2-23-20c-24.7.6-21.4,33.8-21.1,49.1.6,29.1-.4,58.1-2.6,87.1-1.9,25.1-7.1,50.6-.4,75.5,11.5,42.7,49,72.8,87.8,90.4-100.2,34.7-159.3,111.7-192.6,209.2-26.1,76.5-39.9,158.2-53,237.8-2.4,14.7-5.2,31.1-1.9,46,4.5,20.3,37.2,22.5,53.9,24.8,62.1,8.4,125.3,13.9,187.8,18.2,64.1,4.5,291.3,2.2,353.9-22.4,23.4-9.2,42.9-18.7,46.5-45.1,5.5-40.3-16.4-249-52.3-331.3C3816.5,1860.9,3769.8,1802.6,3695.6,1782.8ZM3459,1701.6c-13.5-27.1-7.5-68.5-4-87.8.8-4.3,1.6-8.5,2.3-12.7,2.2-12,2.2-24.3,1.5-36.4,31.3,23.1,70.1-1.1,97.1-20.4,13.5,21.4,34.1,60,63.4,61,14.4.5,32.4-8.5,45-14.9a171.9,171.9,0,0,0,24.1-15.2c-.5.4,6.8-6.6,5.7-6.6,14.3.4,31.8,6.4,46.4,8.6-3.6,22.9-13.8,46.2-11.8,69.6s5.8,42.3-4.3,63.8c-17.8,37.9-62.3,53.1-101.2,56.7,17.1-12.7,33.5-34.3,39-55.3,2.7-10.2,5.2-20.8,2.9-31.4-4.1-19.7-14.3-1.9-17.3,7.1-6.3,18.7-17.2,37-29,52.6-5.3,8.6-15.1,28.3-25.5,27.9-4.2-.2-8.4-.4-12.5-.8-2.3-6.4-5-12.8-7.6-19.1-3.9-9.7-6.6-19.8-10.5-29.5-10.7-21-15.6-50.4-20.1-73.4-2.3-11.9-4.5-24-7.1-35.9-4.2-19.3-13.2-7.3-14.9,5.5-3.4,26.2,1.9,54.5,9.4,79.5,3.1,10.3,5.6,21.9,11,31.3s8.1,18,13.5,26.3c1.5,2.1,8.8,10,8.8,12.9C3523.8,1758.5,3478,1739.7,3459,1701.6Zm110,115.2c42.5-5.1,88-5.9,128.5,9.8,63.8,24.7,105.1,93.3,129.4,160.4,2.5,8.4,4.5,17,6.7,25.5-28.9-25.9-69.3-41.9-103.9-58.9-24.3-11.9-49.8-21.6-74.7-31.9s-50.4-21.2-75.8-31.4c-42-16.8-92.1-34.1-138.1-28.6C3478.7,1835.6,3523.8,1822.2,3568.9,1816.7ZM3458,2285.6l-93.7-10.4-46.9-5.2c-6.7-.7-17.7,1-21.5-6.3-7.1-13.8-2-35.6.3-50,4.4-27.9,11.2-55.5,18.3-82.8,2.5,11.6,28.9,25.2,38.1,30.4,20.6,12.6,41.3,25.2,62.1,37.6,33.8,20.1,70.5,37.8,107,52.5a1190.4,1190.4,0,0,0,119.2,41.6A1313.3,1313.3,0,0,1,3458,2285.6Zm397.4-19.5c4.1-9.5-2.4-59.7-22.7-44.7-7.9,5.7,2,47,8.5,53a147.5,147.5,0,0,1-25.4,5.6c3.9-9.1,3.9-66.2-18.7-54.2-8,4.1-3.6,19.7-2.5,26.8s.8,11.4,1.3,17.3c-.4,4.2.7,8.3.2,12.5l-17.5,1.5c2.1-10.6,1.4-22.7-9.3-28.8-17.5-10-14.3,23.2-12.9,30.4l-17.1,1.1c1.2-9.8-12.2-40.6-23.8-23.7-3.3,4.7-.2,11.3-.9,16.5-.3,2.6.9,6.1.9,8.9-8.3.7-14.9,1.9-22.9-.4-41-11.7-80.9-27.7-120.7-43-38.2-14.7-75.4-31-112.9-47.4-28.3-12.4-55.5-27.4-83.2-41.1-6.9-3.4-13.9-6.9-21-10s-32.7-21-39.8-16.7c14.9-56.8,31.6-113.7,51.1-169.1,13.2,19.7,41.4,32.6,61,44.8,24.1,14.9,48.8,28.8,73.8,42.2,33.6,17.9,68.6,33.5,103.1,49.7,38.5,18.2,80.8,33.2,121.6,45.6,20,6.1,40,12.1,60.2,17.6s54.3,19.2,75,11.5C3864.7,2197.9,3870.7,2249.9,3855.4,2266.1Zm-66-123.7c-21.2-7.5-42.3-15.3-63.5-22.8-38-13.5-76.9-28.7-113.5-45.2s-72.5-32-108.1-49.5c-26.1-12.8-52.3-25.2-78-38.7-17.6-9.2-39.4-25.5-59-28.8a199.1,199.1,0,0,1,54.2-80.4c-1.7,1,.1-.9,11.7-9.7,10.7,5.3,24.7,4.9,36.2,7.7a392.9,392.9,0,0,1,42,13.1c26.2,9.4,51.9,20,77.4,31.2,28.4,12.5,56.7,24.9,85.4,36.7,35.8,14.8,72.2,28.5,107.3,44.7,11.5,5.3,23.2,10.4,34.7,15.8,6.8,3.2,13.4,7,20.7,9q3.5,14.8,6.4,29.6c7.4,37.2,11.8,74.8,16.9,112.4C3839.9,2154.9,3812.1,2150.3,3789.4,2142.4Z" fill="#511e2e"/><path d="M3030.7,2211.8c-16.2-13.5-36.2-22.2-56.8-26.3a9.6,9.6,0,1,1,4.3-18.8,148.2,148.2,0,0,1,60.2,26.5,125.2,125.2,0,0,0-7-19,113,113,0,0,0-30.8-39,110.8,110.8,0,0,0-71.1-24.6c-7,1.3-14.2,3.7-19.1,9.2-8,7.7-11.7,19.3-10.9,30.3.8,8.6,3.8,17.3,9.9,23.6a9.7,9.7,0,0,1,2.9,8.1c-.2,3-2.5,5.2-3.7,7.9s-4.1,3.8-6.5,5.3c-7.3,4.7-12.2,12.5-14.7,20.7-1.3,4.4-1.3,8.9-1.2,13.4.6,9.8,4.5,19.7,12.1,26.1,2.2,2.1,5.4,3.3,6.9,6.2a9.7,9.7,0,0,1-1.6,11.6,11.4,11.4,0,0,1-5.4,2.8c-1.7,3.4-3.9,6.4-5,10.1a40.5,40.5,0,0,0,6.4,38.6c4.6,4.8,10.1,9.2,16.8,10.4,3.9,0,7.9.3,11.8.7s7.3-.2,11-.4c23.5-1.3,46.2-10.9,64-26.2a113.3,113.3,0,0,0,35.9-58,146.9,146.9,0,0,1-59.7,17.3c-3.3.1-6.8.9-9.8-.7a9.6,9.6,0,0,1,3.5-18.2,181.1,181.1,0,0,0,19.3-2.1,130.8,130.8,0,0,0,48.3-19.8c.2-2,.4-4.1.6-6.1A85.7,85.7,0,0,0,3030.7,2211.8Z" fill="#fff" stroke="#231f20" stroke-miterlimit="10"/><path d="M3110.5,2203.7c4.2,3.4,9.7,5.6,15.1,4.3s11.8-6.9,16.3-11.9,10.1-13.3,17.3-17.6c5-3.2,11.4-4.5,17.1-2.6,7.4,2.4,13.1,8.1,17.9,14s10.2,13,17.6,16.7a16.9,16.9,0,0,0,15.3,0c8.1-4.1,13.5-11.5,19-18.4s10.3-11.6,17.8-13.4a123.6,123.6,0,0,0-17.9-21,118.2,118.2,0,0,0-29.8-19.5,110.6,110.6,0,0,0-87.2-1.1,112.2,112.2,0,0,0-50.6,41.9,27.4,27.4,0,0,1,11.5,6.3C3097.6,2188,3102.3,2197.5,3110.5,2203.7Z" fill="#fff" stroke="#231f20" stroke-miterlimit="10"/><path d="M3436.8,2254.2c5.3-4.6,8.5-11,10.4-17.6,4-14-.3-30.3-11.4-39.8-2.3-2.2-5.2-3.6-7.9-5.2a10.6,10.6,0,0,1-4-13.3c1-2.2,3-3.6,4.6-5.3a38.7,38.7,0,0,0,10-24.7c.7-13.6-5.9-27.9-18.1-34.5-2.9-1.3-5.7-3.1-9-2.8s-7.9.4-11.9.7a108.7,108.7,0,0,0-56.3,22.8,112,112,0,0,0-37.2,52.5c14-8,29.1-14.4,44.9-17.4a9.6,9.6,0,0,1,8.1,2,9.7,9.7,0,0,1,1.5,13.3c-2.1,3-6,3.7-9.4,4.4-8.5,2.3-16.9,4.8-24.8,8.8a123.4,123.4,0,0,0-26.1,16.4c.1,5.3,1.3,10.5,1.4,15.8a128.7,128.7,0,0,0,54.8,21.4c4.1.7,8.9,0,12.1,3.2s3.9,11.7-1,14.9c-3.4,2.6-7.8,1.6-11.7,1.2a149.4,149.4,0,0,1-51.6-16.6,109.8,109.8,0,0,0,8.7,21.8c5.4,9.8,11.7,19.2,19.7,27a137.2,137.2,0,0,0,14.1,12.1c16.3,11.7,35.8,19.2,56,20.3a85.1,85.1,0,0,0,19.2-.2c3.3-1.8,6.9-3,9.9-5.1,7.1-4.5,11.8-12,14.1-19.9a41,41,0,0,0-2.4-29c-2-4.2-5-7.8-8-11.3a9.7,9.7,0,0,1-3-10.1C3433.2,2257.5,3435,2255.8,3436.8,2254.2Z" fill="#fff" stroke="#231f20" stroke-miterlimit="10"/><path d="M3269.1,2235.8c-3.9-1.4-8,.5-11,3.1-6.8,5.7-11.2,13.6-17.6,19.7s-12.9,10.6-21.1,10.7-15.5-5-21.2-10.6-11.2-15.1-19.2-20.1a14.8,14.8,0,0,0-14.4-1.5c-6.5,2.9-11,8.7-15.3,14.2s-11.3,12.9-19.2,16.2a21.1,21.1,0,0,1-18.3-1.1c-9-4.8-15.2-13.1-21.4-20.8-4-4.5-8.7-9.5-15.1-9.9s-11.4,4.9-15.5,9.4c.3,7.6,2.1,15.1,3.8,22.5,3.5-2.3,7.4-4,11.7-3.8s10.5,3.1,14.5,6.7c7,6,11.4,14.2,18.3,20.3,3.8,3.5,8.6,6.5,13.9,6.5s10.1-3,13.9-6.4c7.6-6.6,12.3-16,20.6-21.9,5.1-3.9,11.9-6.3,18.4-4.5s13.7,7.8,18.6,13.8,10.5,13.5,18.2,17.3a16.9,16.9,0,0,0,15.7-.4c8.4-4.5,13.7-12.5,19.6-19.6,4.5-5,9.5-10.3,16.4-11.8s10.6,1.5,14.7,4.8a116,116,0,0,0,3.8-20.4c.2-1.3-1-2.1-1.6-3C3277.2,2241.4,3273.9,2237.4,3269.1,2235.8Z" fill="#fff" stroke="#231f20" stroke-miterlimit="10"/><path d="M3256.9,2284.3c-6.4,5.9-10.8,13.6-17.2,19.5s-12.8,10-20.9,9.8-15.8-5.7-21.5-11.6-10.4-14.1-17.8-18.9c-4.1-2.9-9.6-3.9-14.2-1.9-6.3,2.6-10.8,8-14.8,13.2s-10,11.8-16.7,15.7c-4.9,2.9-10.8,4.2-16.3,2.7-7.3-1.9-13.1-7.1-18.2-12.5s-10.4-14.7-18.4-18.9a12.6,12.6,0,0,0-12.1.3,108.9,108.9,0,0,0,11.6,20.8,111.9,111.9,0,0,0,53.7,41c12.6,4.7,26,6.4,39.4,6.4,8.8-.6,17.6-1.1,26.1-3.6a111.5,111.5,0,0,0,73.9-64c-2.1-1.4-4.5-2.7-7.2-2.6S3259.5,2282,3256.9,2284.3Z" fill="#fff" stroke="#231f20" stroke-miterlimit="10"/><path d="M3089.4,2225.5c8.1,6.7,12.9,16.5,21.4,22.8,4.3,3.4,10,5.6,15.4,3.9,7.3-2.2,12.7-8.1,17.4-13.8s10.4-13.2,18-16.9a19.6,19.6,0,0,1,16-.8c7.6,3,13.2,9.2,18.1,15.5s10,12.1,17.2,15.2a17.1,17.1,0,0,0,15.4-1.3c8.2-4.7,13.5-12.8,19.5-19.8,4.5-4.9,9.6-10.1,16.4-11.3s12.1,2.9,16.4,7.1c-.2-4.4.4-8.8-.7-13.1-1.6-6.2-3.1-12.5-5.8-18.4a10.3,10.3,0,0,0-12.3-2.6c-4.9,2.5-8.4,7-11.8,11.1-5.3,6.9-11.1,13.8-18.7,18.2-5.1,3-11.2,4.4-17,2.8-7.6-1.9-13.6-7.2-18.8-12.8s-10.3-14.4-18.3-18.4a14.6,14.6,0,0,0-14.3.4c-7.7,4.4-12.1,12.4-18.1,18.7s-10.7,10.1-17.7,11.9-11.7.1-16.6-2.9c-8.2-4.9-14.1-12.7-19.9-20-4-4.5-8.7-9.6-15.2-9.9-2.3.1-5.1.4-6.7,2.1a114.4,114.4,0,0,0-8.4,32.6c4-3.6,9.1-6.6,14.6-6.7S3085.3,2222,3089.4,2225.5Z" fill="#fff" stroke="#231f20" stroke-miterlimit="10"/><path d="M3464.7,2205.5a57.7,57.7,0,0,0-17.6-24.8c14-19.3,14.3-47.3.9-67a52,52,0,0,0-24.1-19.6c-2.2-.8-4.3-2.2-6.8-2.4-21.2-1.4-42.5,3.5-61.6,12.5-31.1,14.8-56,42.4-67.1,75-6.5-14.2-16.2-26.8-27.2-37.7a130.3,130.3,0,0,0-206.9,36.9c-1.2-3.5-2.7-6.9-4.3-10.2a131.2,131.2,0,0,0-62.1-63.8,129.3,129.3,0,0,0-61.3-12.9c-2.4.1-4.5,1.2-6.8,1.7-9.4,2-17.9,7.6-24.3,14.7-9.2,9.7-14.3,22.9-15.2,36.2a59.1,59.1,0,0,0,9.8,36.1c-13.3,9.6-21.7,25.4-22.9,41.7q.1,3.7-.1,7.5c.7,13.5,5.7,27,15.1,37a48,48,0,0,0-7,13.7c-7.5,20.7-2.3,45.8,13.7,61.1a49.2,49.2,0,0,0,25.6,13.3c3.6.2,7.2,0,10.8.5,5.6.7,11.3,0,16.9-.3,23.7-1.5,46.7-10.5,65.9-24.4a130.7,130.7,0,0,0,40.2-48.1,128.7,128.7,0,0,0,20.9,37.7c6.7,9,15.2,16.5,24,23.4,19,14.1,41.9,23.4,65.6,25.3,6.7.6,13.5,1.1,20.3.3s12.6-.9,18.8-2.3a130.7,130.7,0,0,0,57.7-28.3,132.2,132.2,0,0,0,38.7-56.1,155.2,155.2,0,0,0,10.8,18.1c19.9,28.3,51.6,48.3,85.9,53.5,9.3,1.1,18.7,2.2,28,1.3,2.9-.3,6,0,8.6-1.6s4.9-1.5,7.1-2.7c15.2-6.4,26.3-20.7,30.3-36.5a60,60,0,0,0-10-51C3468.3,2247.5,3471.6,2224.6,3464.7,2205.5Zm-423.9,22.4a130.8,130.8,0,0,1-48.3,19.8,181.1,181.1,0,0,1-19.3,2.1,9.6,9.6,0,0,0-3.5,18.2c3,1.6,6.6.9,9.8.7a146.9,146.9,0,0,0,59.7-17.3,113.3,113.3,0,0,1-35.9,58c-17.8,15.3-40.5,25-64,26.2-3.7.2-7.3.7-11,.4s-7.8-.7-11.8-.7c-6.7-1.2-12.2-5.6-16.8-10.4a40.5,40.5,0,0,1-6.4-38.6c1-3.6,3.3-6.7,5-10.1a11.4,11.4,0,0,0,5.4-2.8,9.7,9.7,0,0,0,1.6-11.6c-1.5-2.8-4.7-4.1-6.9-6.2-7.6-6.5-11.5-16.4-12.1-26.1-.1-4.5-.1-9.1,1.2-13.4,2.5-8.2,7.4-16,14.7-20.7,2.3-1.5,5.2-2.7,6.5-5.3s3.5-4.9,3.7-7.9a9.7,9.7,0,0,0-2.9-8.1c-6.1-6.3-9.1-15-9.9-23.6-.8-11,2.8-22.5,10.9-30.3,4.8-5.5,12.1-7.9,19.1-9.2a110.8,110.8,0,0,1,71.1,24.6,113,113,0,0,1,30.8,39,125.2,125.2,0,0,1,7,19,148.2,148.2,0,0,0-60.2-26.5,9.6,9.6,0,1,0-4.3,18.8c20.6,4.1,40.6,12.7,56.8,26.3a85.7,85.7,0,0,1,10.7,9.9C3041.2,2223.8,3041,2225.8,3040.8,2227.8Zm88.1-94.7a110.6,110.6,0,0,1,87.2,1.1,118.2,118.2,0,0,1,29.8,19.5,123.6,123.6,0,0,1,17.9,21c-7.5,1.8-13,7.7-17.8,13.4s-10.9,14.4-19,18.4a16.9,16.9,0,0,1-15.3,0c-7.3-3.7-12.6-10.3-17.6-16.7s-10.5-11.6-17.9-14c-5.7-1.9-12.1-.6-17.1,2.6-7.2,4.3-12.1,11.3-17.3,17.6s-9.6,10.2-16.3,11.9-10.9-.9-15.1-4.3c-8.2-6.2-12.9-15.7-20.7-22.3a27.4,27.4,0,0,0-11.5-6.3A112.2,112.2,0,0,1,3128.9,2133.2Zm-60.2,60.1c1.7-1.7,4.4-2,6.7-2.1,6.4.4,11.2,5.4,15.2,9.9,5.9,7.3,11.7,15.1,19.9,20,4.9,3,10.9,4.4,16.6,2.9s12.8-6.7,17.7-11.9,10.4-14.3,18.1-18.7a14.6,14.6,0,0,1,14.3-.4c8,4,12.4,12.1,18.3,18.4s11.2,10.9,18.8,12.8c5.8,1.5,11.9.1,17-2.8,7.6-4.4,13.4-11.3,18.7-18.2,3.4-4.2,6.9-8.6,11.8-11.1a10.3,10.3,0,0,1,12.3,2.6c2.7,5.9,4.3,12.2,5.8,18.4,1.1,4.3.5,8.8.7,13.1-4.4-4.2-10.1-8-16.4-7.1s-11.9,6.4-16.4,11.3c-6,7-11.3,15.1-19.5,19.8a17.1,17.1,0,0,1-15.4,1.3c-7.2-3.1-12.5-9.2-17.2-15.2s-10.5-12.5-18.1-15.5a19.6,19.6,0,0,0-16,.8c-7.6,3.7-12.9,10.4-18,16.9s-10.1,11.6-17.4,13.8c-5.4,1.6-11.1-.5-15.4-3.9-8.5-6.3-13.3-16.1-21.4-22.8-4.1-3.4-9.1-6.3-14.5-6.2s-10.6,3-14.6,6.7A114.4,114.4,0,0,1,3068.7,2193.3ZM3236,2329a111.7,111.7,0,0,1-36.6,17.4c-8.5,2.4-17.4,2.9-26.1,3.6-13.3,0-26.8-1.7-39.4-6.4a111.9,111.9,0,0,1-53.7-41,108.9,108.9,0,0,1-11.6-20.8,12.6,12.6,0,0,1,12.1-.3c8,4.3,12.4,12.5,18.4,18.9s10.9,10.6,18.2,12.5c5.5,1.5,11.5.2,16.3-2.7,6.7-3.9,11.9-9.7,16.7-15.7s8.6-10.6,14.8-13.2c4.7-2,10.1-.9,14.2,1.9,7.4,4.8,11.6,12.9,17.8,18.9s13,11.3,21.5,11.6,15.2-4.5,20.9-9.8,10.9-13.5,17.2-19.5c2.6-2.3,5.6-4.5,9.2-4.6s5.1,1.2,7.2,2.6A112.5,112.5,0,0,1,3236,2329Zm46-80.9a116,116,0,0,1-3.8,20.4c-4.1-3.3-9.3-6-14.7-4.8s-11.9,6.8-16.4,11.8c-5.9,7.1-11.3,15.2-19.6,19.6a16.9,16.9,0,0,1-15.7.4c-7.7-3.8-13-10.7-18.2-17.3s-10.9-11.8-18.6-13.8-13.2.6-18.4,4.5c-8.3,5.9-13,15.3-20.6,21.9-3.9,3.4-8.6,6.5-13.9,6.4s-10.1-3.1-13.9-6.5c-6.9-6.1-11.3-14.3-18.3-20.3-4-3.5-9-6.5-14.5-6.7s-8.2,1.6-11.7,3.8c-1.7-7.4-3.5-14.9-3.8-22.5,4-4.5,9-9.5,15.5-9.4s11.1,5.4,15.1,9.9c6.2,7.8,12.4,16.1,21.4,20.8a21.1,21.1,0,0,0,18.3,1.1c7.9-3.3,13.9-9.7,19.2-16.2s8.8-11.3,15.3-14.2a14.8,14.8,0,0,1,14.4,1.5c8,5.1,12.3,13.9,19.2,20.1s12.9,10.6,21.2,10.6,15.4-5.1,21.1-10.7,10.8-14,17.6-19.7c3-2.5,7-4.4,11-3.1s8.1,5.6,11.3,9.2C3281.1,2245.9,3282.2,2246.8,3282.1,2248Zm153.5,22c2.9,3.6,6,7.1,8,11.3a41,41,0,0,1,2.4,29c-2.3,7.9-7.1,15.4-14.1,19.9-3.1,2.1-6.7,3.4-9.9,5.1a85.1,85.1,0,0,1-19.2.2c-20.1-1.2-39.6-8.7-56-20.3a137.2,137.2,0,0,1-14.1-12.1c-8-7.9-14.3-17.2-19.7-27a109.8,109.8,0,0,1-8.7-21.8,149.4,149.4,0,0,0,51.6,16.6c3.9.4,8.3,1.4,11.7-1.2,4.9-3.2,5.4-11.1,1-14.9s-8-2.5-12.1-3.2a128.7,128.7,0,0,1-54.8-21.4c-.1-5.3-1.2-10.5-1.4-15.8a123.4,123.4,0,0,1,26.1-16.4c7.9-3.9,16.3-6.4,24.8-8.8,3.4-.7,7.2-1.3,9.4-4.4a9.7,9.7,0,0,0-1.5-13.3,9.6,9.6,0,0,0-8.1-2c-15.9,3-31,9.3-44.9,17.4a112,112,0,0,1,37.2-52.5,108.7,108.7,0,0,1,56.3-22.8c4-.3,7.9-.9,11.9-.7s6.1,1.5,9,2.8c12.1,6.7,18.8,21,18.1,34.5a38.7,38.7,0,0,1-10,24.7c-1.6,1.7-3.6,3.1-4.6,5.3a10.6,10.6,0,0,0,4,13.3c2.7,1.6,5.6,3,7.9,5.2,11.1,9.5,15.4,25.8,11.4,39.8-1.9,6.6-5.2,13-10.4,17.6-1.8,1.6-3.6,3.3-4.2,5.7A9.7,9.7,0,0,0,3435.6,2270Z" fill="#511e2e"/><rect x="6.7" y="-8.9" width="5458.4" height="2997.08" opacity="0.72" fill="url(#linear-gradient)"/><path d="M4368.2,681.1l55.7,145.8,79.6-56.6c-.1-25.5-5-50.7-15-73.3a92.4,92.4,0,0,0-5.8-11.1c-18.4-29.8-52.1-45.8-87.7-38.3-9.7,2-19.7,6.1-29.3,9,0,.4-50.3-68.4-.4-79.3-3-.1-20.6-12-20.6-12s-31.7,67.1-16.3,91.3l.4.4c-28.4-8.6-58.5-16.3-86.3-2.6-35.8,17.7-46.4,59.5-50.7,96.3l95.8,76.3Z" fill="#511e2e"/><path d="M4358.6,964.6l-5.7.3h-13.5l-5.5-.3a164.7,164.7,0,0,1,11,14.3C4344.4,978.1,4350.4,972.2,4358.6,964.6Z" fill="#50c7f2"/><path d="M4503.5,770.2l-79.6,56.6-55.7-145.8-80.7,145.8-95.8-76.3-51.3-40.8,27.6,138.9c16.5,7.9,32.6,16.6,48.3,26q16.1,9.6,31.6,20c29.3,19.7,62.4,42.2,86.1,69.8l5.5.3h13.5l5.7-.3c15.8-14.6,40-35.4,43.1-38a589.8,589.8,0,0,1,65.7-47l8.7-5.3q14.4-8.6,29.4-16.3l47.5-123Z" fill="#50c7f2"/><path d="M3721.1,1540.6c14.4.8,41.5,1.5,53.7,9.1s-3.8,72.7-5.8,95.3l4.6,5.1q22.3,24.5,45.7,47.3a383.4,383.4,0,0,1,291.5,25.5c32.9,16.8,63.1,38.7,90.3,63.7a388.3,388.3,0,0,1,68.9-224.3,382.3,382.3,0,0,1,51.9-60.4l3.3-106.6c.8-27,1.3-55.5-11.7-79.1s-44.8-39.2-67.9-25.3c-33.9,20.3-17.6,72.4-28.5,110.4-8.6,30-38.5,52.6-69.8,52.6s-61.1-22.6-69.7-52.6c-7.8-27.2.8-56.1,2.5-84.4s-8-62.1-35-70.5-56.6,16.7-63.8,44.9.4,57.7,5.6,86.4a523.7,523.7,0,0,1-6.2,215.2c-10.1,42.1-37.3,91.1-80.4,87.5-47.3-3.9-63.1-65-63.6-112.5a1160.8,1160.8,0,0,1,36.5-300.4c4.1-15.9,8.5-32.6,4.1-48.4s-21.5-29.3-36.8-23.5-19,23.2-22.7,38.2c-7.2,29-20.3,58.6-45.2,75.2s-63.7,14.6-79.9-10.5c-29.7-46.3,37.7-110.3,11.3-158.6-19.2-35.2-72.6-29-104.1-3-31.7,146.7,11.6,287.2,91.9,408.9A65.4,65.4,0,0,1,3721.1,1540.6Z" fill="#50c7f2"/><path d="M4697,1414.3c43.7,14,85.8,34.2,121.8,62.9-8.6-62.4-1-127,21.3-185.9a374.2,374.2,0,0,1,30.8-64.3c-6.6-19.8-13.8-39.4-22.2-58.6-11.3-25.9-29.1-54-57.2-56.7-34.2-3.3-59.2,35.2-59.6,69.6s14.7,66.9,19.9,100.9-4.1,75.4-35.8,88.6c-29.9,12.4-64.8-7.4-82.7-34.4s-24.2-59.7-35.5-90.1-30.8-61-61.8-70.4c-36.6-11-77.1,13.9-93.3,48.5s-12.6,75.5-1.3,112c8.2,26.7,20.3,52,31.3,77.7A386.6,386.6,0,0,1,4697,1414.3Z" fill="#50c7f2"/><path d="M4855.8,842.3c-75.1-38.7-160-46.4-241.6-26-37.7,9.4-74.1,23.8-108.7,41.6q-14.9,7.7-29.4,16.3l-8.7,5.3a589.8,589.8,0,0,0-65.7,47c-3.2,2.6-27.3,23.4-43.1,38-8.2,7.6-14.2,13.6-13.7,14.3a164.7,164.7,0,0,0-11-14.3c-23.6-27.7-56.8-50.1-86.1-69.8q-15.5-10.4-31.6-20c-15.7-9.4-31.8-18.1-48.3-26a472.1,472.1,0,0,0-88.8-32.4c-81.6-20.4-166.5-12.7-241.6,26-100.9,52-194,145.7-227.6,256.2q-5.8,19.1-9.9,38.1c31.5-26,84.9-32.2,104.1,3,26.3,48.3-41.1,112.3-11.3,158.6,16.2,25.2,55,27.2,79.9,10.5s38-46.1,45.2-75.2c3.7-15,8.2-32.8,22.7-38.2s32.4,7.7,36.8,23.5,0,32.5-4.1,48.4a1160.8,1160.8,0,0,0-36.5,300.4c.5,47.5,16.3,108.6,63.6,112.5,43.1,3.5,70.3-45.4,80.4-87.5a523.7,523.7,0,0,0,6.2-215.2c-5.2-28.6-12.8-58.2-5.6-86.4s36-53.5,63.8-44.9,36.7,42.3,35,70.5-10.3,57.2-2.5,84.4c8.6,30,38.5,52.6,69.7,52.6s61.2-22.5,69.8-52.6c10.9-38-5.4-90,28.5-110.4,23.1-13.9,54.9,1.7,67.9,25.3s12.5,52.1,11.7,79.1l-3.3,106.6a379.3,379.3,0,0,1,110.7-72.9,365.9,365.9,0,0,1,39.9-14.8c-11-25.7-23.1-51-31.3-77.7-11.3-36.5-14.9-77.4,1.3-112s56.7-59.5,93.3-48.5c31,9.3,50.5,40,61.8,70.4s17.6,63.1,35.5,90.1,52.8,46.8,82.7,34.4c31.7-13.2,41-54.6,35.8-88.6s-20.3-66.5-19.9-100.9,25.3-72.9,59.6-69.6c28.1,2.7,45.9,30.8,57.2,56.7,8.4,19.2,15.6,38.8,22.2,58.6a384.6,384.6,0,0,1,87-100.1,335.9,335.9,0,0,1,83.6-51.3c9.3-4.1,20.6-2.2,28.5,4,4.3,3.6,7,8.8,11.1,12.7l.6.5C5046.6,984.8,4955,893.4,4855.8,842.3ZM3874.7,968.1l-27-19.8,53.8-73.3,27,19.8ZM3979,1081.5l-64.3-64.3,23.7-23.7,64.3,64.3Zm56.8-106.6,53.8-73.3,27,19.8-53.8,73.3Zm40.3,179.7-22.5-24.8,67.3-61.2,22.5,24.8Zm293.2-3.7-61.2-67.3,24.8-22.5,61.2,67.3Zm111.1-139.8-22.5-24.8,67.3-61.2,22.5,24.8Zm116.3,121.6-27-19.8,53.8-73.3,27,19.8ZM4711.4,993l-61.2-67.3,24.8-22.5,61.2,67.3Z" fill="#511e2e"/><rect x="3941.9" y="992.1" width="33.5" height="90.9" transform="translate(425.8 3103.1) rotate(-45)" fill="#50c7f2"/><rect x="4053" y="1094.9" width="90.9" height="33.49" transform="translate(318.2 3046.4) rotate(-42.3)" fill="#50c7f2"/><rect x="4457.3" y="951.4" width="90.9" height="33.49" transform="translate(520 3281) rotate(-42.3)" fill="#50c7f2"/><rect x="4334.4" y="1060.5" width="33.5" height="90.9" transform="translate(387.8 3214.8) rotate(-42.3)" fill="#50c7f2"/><rect x="4676.5" y="902.7" width="33.5" height="90.9" transform="translate(582.9 3403.9) rotate(-42.3)" fill="#50c7f2"/><rect x="4564.6" y="1069.4" width="90.9" height="33.49" transform="translate(1008.2 4161.7) rotate(-53.8)" fill="#50c7f2"/><rect x="4030.7" y="931.4" width="90.9" height="33.49" transform="translate(901.3 3674.7) rotate(-53.7)" fill="#50c7f2"/><rect x="3842.6" y="904.8" width="90.9" height="33.49" transform="translate(845.8 3512.1) rotate(-53.8)" fill="#50c7f2"/></svg>