<svg id="Layer_1" data-name="Layer 1" xmlns="http://www.w3.org/2000/svg" xmlns:xlink="http://www.w3.org/1999/xlink" width="5471.8" height="3706.7" viewBox="0 0 5471.8 3706.7"><defs><linearGradient id="linear-gradient" x1="2735.91" y1="-289.8" x2="2735.91" y2="5182.02" gradientUnits="userSpaceOnUse"><stop offset="0" stop-color="#fff"/><stop offset="1" stop-color="#2e3192"/></linearGradient></defs><title>banner</title><rect y="-14.9" width="5471.8" height="3717.17" fill="#bee6f3"/><path d="M4651.3,471a363.4,363.4,0,0,0-410.8-309c-137.8,19.5-246.5,114.3-290.9,236.9a15.9,15.9,0,0,0-1.6,5.1,360.8,360.8,0,0,0-16.5,168.8c19.5,137.8,114.4,246.7,237.1,290.9a15.9,15.9,0,0,0,4.8,1.5,360.5,360.5,0,0,0,153,17.9l122.6,866.8a16,16,0,1,0,31.6-4.5L4358.1,878.7a362.1,362.1,0,0,0,89-28.3l.7-.4a363.8,363.8,0,0,0,185.5-205.3,15.7,15.7,0,0,0,1.3-4.1A360.8,360.8,0,0,0,4651.3,471Zm-31.6,4.5a329,329,0,0,1-14.6,152.6c-111.1,78.5-186.5,55.2-230.3,21.3-34.5-26.7-55-63.3-64-89.8,32.3,18.3,82.5,31.8,133.8,25.2,34.1-4.3,84.2-20.3,123.4-72.4,16.2-21.5,30.4-49.3,41-84.8A335,335,0,0,1,4619.7,475.5ZM4337.8,849.4a15.2,15.2,0,0,0-3,1.1,329,329,0,0,1-149.6-14.9c-78.5-111-55.5-185.8-21.3-230.3,26.7-34.5,63.3-55,89.8-63.9-18.3,32.4-31.7,82.5-25.2,133.8,6.1,48.1,35.5,128,157,164.3a331.3,331.3,0,0,1-44.6,10.2A15.2,15.2,0,0,0,4337.8,849.4Zm59.6-641.5c78.7,111.3,54.9,186.7,21.6,230.6-26.7,34.5-63.3,55-89.8,64,18.4-32.3,31.8-82.5,25.2-133.8-6.2-48.1-35.5-128-157-164.3a322.4,322.4,0,0,1,200.1,3.5ZM3963.2,568.3a329,329,0,0,1,14.6-152.7c111.1-78.4,186.4-55.2,230.2-21.3,34.5,26.7,55,63.3,64,89.8-32.4-18.4-82.5-31.8-133.8-25.2-48.1,6.1-128,35.5-164.3,157A330.9,330.9,0,0,1,3963.2,568.3Z" fill="#511e2e"/><path d="M5426.8,589.2c44.7-103.4,46.5-218.1,5-322.8S5310.4,79.3,5207,34.6c-148.2-64.1-313.4-36-431.4,58.5a18.5,18.5,0,0,0-4.7,4,418.8,418.8,0,0,0-118.5,157.3c-64.1,148.3-36,313.5,58.7,431.6a18.4,18.4,0,0,0,3.8,4.4,418.5,418.5,0,0,0,140.7,110.3l-403.2,932.7a18.5,18.5,0,1,0,34,14.7l403.2-932.7c34.6,13.2,69.9,22,105.3,25.8h.9a422.2,422.2,0,0,0,308-91,18.2,18.2,0,0,0,3.8-3.3A418.7,418.7,0,0,0,5426.8,589.2Zm-34-14.7A381.9,381.9,0,0,1,5286,716.8c-157.5,10.5-218.2-58.2-241-118.3-18-47.4-16.2-96-9-127.7,20.9,37.7,62.5,81.4,117.2,105.9,36.4,16.3,95.6,30.9,166,3,29-11.5,59.9-30.4,91.9-59.2A388.8,388.8,0,0,1,5392.8,574.5ZM4887.3,774.1a17.6,17.6,0,0,0-3.6-.8,381.8,381.8,0,0,1-139.1-105.3c-10.5-157.5,57.5-217.6,118.3-241,47.3-18,95.9-16.2,127.6-9-37.8,20.9-81.3,62.5-105.9,117.2-23,51.4-42.3,148.3,56.1,257.8a384.5,384.5,0,0,1-50.3-16.9A17.7,17.7,0,0,0,4887.3,774.1Zm447.3-599.2c10.7,157.9-58.7,218.1-118.2,241.5-47.4,18-96,16.2-127.7,9,37.8-20.9,81.4-62.5,105.9-117.2,23-51.4,42.3-148.3-56-257.7a374.2,374.2,0,0,1,196,124.5Zm-648.2,94.2a381.9,381.9,0,0,1,106.9-142.4c157.5-10.5,218,58.2,240.9,118.3,18.1,47.4,16.2,96,9,127.7-20.9-37.8-62.5-81.4-117.2-105.9-51.4-23-148.2-42.3-257.7,56A384.1,384.1,0,0,1,4686.4,269.1Z" fill="#511e2e"/><circle cx="3887.8" cy="3087.1" r="279" fill="#511e2e"/><circle cx="2351.1" cy="2905.9" r="279" fill="#511e2e"/><path d="M4881.2,1625.7c-34.2,19.5-67.6,41.2-96.4,68.4-69.8,63.9-118.4,150-139,242.3-10.8,47.5-13.4,96.6-9.5,145.1A613,613,0,0,1,4785.1,1895c9.2-8.3,22.2-12.5,34.5-10.1,16.7,2.6,30.7,16.8,33.1,33.6,2.5,14.5-3.9,29.7-15.5,38.6-74.3,62.5-130.9,145.9-160.8,238.3a95.8,95.8,0,0,1-8.3,19.2c7.3,17.3,19.8,31.6,29.2,47.6,42.8-.4,85.5-6.5,127-17,35.9-9.2,70-24.2,103.9-39,15.6-6.9,29.9-20.9,48.2-17.8,24.3,2.3,41.5,29.4,33.4,52.4-5,18.1-23.5,25.9-38.3,34.3-20.4,10-41.6,18.4-62.7,27.1-53,21.7-109.6,33.6-166.5,38.9,27.1,31.8,57.2,61.4,91.6,85.3,39.8,27.1,82.4,51,128.6,65.1,23.2,6.4,46.3,13.5,70.1,16.9,82.2,13,168.4,5.1,245.3-27.3,21.7-8.7,43.4-17.8,63.1-30.7-18-131.6-59.3-259.6-116.6-379.3a1371.5,1371.5,0,0,0-151.6-248.5C5016.8,1749.8,4953.3,1682.5,4881.2,1625.7Z" fill="#fff"/><path d="M4609.4,2281.8c-10.5-24.8-30.4-43.5-48.3-63-68.2-69.2-157.8-116.9-253.4-134.2-44-6.5-88.9-9.9-133.2-4.3a455.5,455.5,0,0,0-174.8,56c-71,39-130.9,97.6-172.2,167.1-52.6,87.1-75,191.8-64,292.8,5.7,54.6,21.6,107.8,45,157.3,4,8.8,11.4,15.6,15.3,24.5,8.8,23.7,25,43.5,40.5,63.1,45.3,58.8,105.6,105.7,173,136.6,36.5,18.1,76.3,28.4,116.1,36.3,82.6,13.7,169.4,7.1,247-25.1,24.3-9.6,48.5-19.9,70.3-34.4,106.9-60.7,184.3-168.3,213.7-287.1a476,476,0,0,0-21.9-295.2c-5.9-13-15.5-23.8-23-35.8C4626.3,2320.1,4619.4,2300,4609.4,2281.8ZM4404,2682c-5.8,12.5-17.9,22.1-31.8,23.6s-27.1-5-40.2-9l-342.4-112.8c-19.8-7.2-40.5-11.8-59.6-20.6-23.6-12.7-26.5-49.2-5.5-65.7,10.6-9.2,26-11.9,39.2-7.5q207.5,68.4,415,136.6C4401,2633,4414.1,2661,4404,2682Zm184.3-85.2c-3.8,16.9-19.7,29.8-36.9,30.8-9.5.6-18.6-3-27.4-5.9-95.4-31.3-190.8-63-286.3-94.1-11.1-3.5-22-10.2-26.9-21.1-8.7-15-5.6-35.6,6.8-47.5,10.8-10.6,27.4-14.9,41.8-9.8q151.1,50,302.3,99.6C4581.4,2554.6,4593.8,2577,4588.4,2596.8Z" fill="#fff"/><path d="M3680.4,2712.2c-87.9-28.9-183.5-33.2-273.8-13.3-11.9,3.1-25.3,2.4-35.7-4.8-17-10.7-23.3-34.7-13.7-52.3,5.7-11.7,17.6-19.4,30.2-21.6,79.7-17.4,163-19.6,243.2-3.9-90.7-91.9-221.5-143.2-350.6-136.6-62,1.9-123.3,17.8-179.3,44.1a785.6,785.6,0,0,0,4.9,89.4c5.8,43.4,12,86.9,21.7,129.7,30.2,130.9,80.5,257,147,373.8,56.4,98.8,124.5,191.3,204.7,272.1,16.1-7.1,33.1-12.5,48.1-21.8,23.4-14,47.1-27.7,68.7-44.5A466.5,466.5,0,0,0,3718.3,3175a475.5,475.5,0,0,0,49.5-288.3,581.4,581.4,0,0,1-153,125.5c-18.1,9.6-35.1,23.7-55.8,26.9-22.5,2.3-44.1-17.3-43.6-40-.2-13.9,7.2-27.8,19.4-34.7a808.8,808.8,0,0,0,95.8-59,537.7,537.7,0,0,0,107.7-111.3,640.4,640.4,0,0,1-31.1-76.4A68.8,68.8,0,0,1,3680.4,2712.2Z" fill="#fff"/><path d="M4931.6,1562.2c-5.8-5.5-9.6-12.9-15.8-18-11.2-8.8-27.3-11.5-40.5-5.7a477.9,477.9,0,0,0-118.9,72.9c-75.4,61.1-134.2,142.7-167.6,233.8-31.7,83.8-42.6,175.7-30.3,264.4-51.2-40.8-111.2-69.5-173.3-89.5-122.5-37.4-258.3-30.6-375.8,20.9-93,39.8-173.9,106.5-231.4,189.6-64.6,92.9-99.3,206-98.1,319.2-38.7-35.5-81.7-66.7-128.5-90.6-73.1-37.8-154.6-59.1-236.9-61.2-96.3-2.6-193.3,20.8-277.6,67.5a40.5,40.5,0,0,0-20.1,24.9c-4.3,12.5,2.5,24.9,2.1,37.5,2.1,84,13.7,167.6,33.3,249.2,37.8,155.4,102.2,304,187.5,439.2,59.4,93.4,128.9,180.8,209.8,256.5,12.6,12.6,33.6,15.7,49,6.2,7.7-3.7,11.8-11.5,17.3-17.6,14-7.2,29.4-11.6,43.1-19.5,27.1-16,54.4-31.9,79.8-50.5a547.8,547.8,0,0,0,150.6-177.7c42.8-81,65.6-172.8,64-264.5,26.3,25.8,56.1,47.8,86.9,68,42.6,25.6,87.7,47.7,135.6,61.4,34.1,9.2,68.7,17.8,104.2,20.1a531.1,531.1,0,0,0,226.8-25.6c35.1-13.5,70.8-27,102.5-47.5,19.4-12.2,39.3-23.6,57.5-37.7a547.9,547.9,0,0,0,169.7-221.7c37.2-88.5,50.1-186.7,38.4-281.9,66.8,48.9,143.5,85.3,225.1,100.3,86.2,17.3,176.7,13.7,261-11.5,30.6-9.6,60.1-22.2,89.4-35.2,15.5-7.9,30.2-17.4,45.2-26.2,10.7-6.1,17.2-17,23.7-27.1s5-24.1,3.2-36.1c-23.4-178.5-86.1-350.6-174.2-507.1C5166.6,1797.7,5061.4,1665.6,4931.6,1562.2ZM3738.2,2793.9a537.7,537.7,0,0,1-107.7,111.3,808.8,808.8,0,0,1-95.8,59c-12.2,6.9-19.6,20.9-19.4,34.7-.6,22.7,21.1,42.3,43.6,40,20.7-3.2,37.7-17.2,55.8-26.9a581.4,581.4,0,0,0,153-125.5,475.5,475.5,0,0,1-49.5,288.3,466.5,466.5,0,0,1-122.6,147.4c-21.5,16.8-45.3,30.5-68.7,44.5-15,9.3-32,14.7-48.1,21.8-80.2-80.8-148.3-173.3-204.7-272.1-66.5-116.7-116.8-242.8-147-373.8-9.7-42.8-15.9-86.3-21.7-129.7a785.6,785.6,0,0,1-4.9-89.4c56-26.3,117.3-42.2,179.3-44.1,129.1-6.6,259.9,44.7,350.6,136.6-80.2-15.7-163.5-13.4-243.2,3.9-12.6,2.3-24.5,9.9-30.2,21.6-9.6,17.6-3.2,41.7,13.7,52.3,10.4,7.2,23.8,7.9,35.7,4.8,90.3-19.9,185.9-15.6,273.8,13.3a68.8,68.8,0,0,0,26.7,5.4A640.4,640.4,0,0,0,3738.2,2793.9Zm924.2-421.7a476,476,0,0,1,21.9,295.2c-29.4,118.8-106.8,226.4-213.7,287.1-21.8,14.6-46,24.8-70.3,34.4-77.7,32.2-164.5,38.7-247,25.1-39.8-7.9-79.6-18.2-116.1-36.3-67.4-30.9-127.7-77.8-173-136.6-15.5-19.6-31.6-39.4-40.5-63.1-3.9-8.9-11.3-15.6-15.3-24.5-23.4-49.5-39.3-102.8-45-157.3-11-101.1,11.3-205.7,64-292.8,41.3-69.6,101.2-128.2,172.2-167.1a455.5,455.5,0,0,1,174.8-56c44.3-5.6,89.2-2.2,133.2,4.3,95.6,17.2,185.2,65,253.4,134.2,17.8,19.5,37.7,38.2,48.3,63,10,18.2,16.9,38.3,30.1,54.7C4646.9,2348.5,4656.5,2359.3,4662.4,2372.3ZM5224.3,2071c57.3,119.7,98.7,247.7,116.6,379.3-19.6,13-41.4,22-63.1,30.7-76.9,32.4-163.1,40.3-245.3,27.3-23.9-3.4-47-10.5-70.1-16.9-46.3-14.1-88.8-38.1-128.6-65.1-34.4-23.9-64.5-53.4-91.6-85.3,56.9-5.3,113.5-17.1,166.5-38.9,21-8.7,42.2-17.1,62.7-27.1,14.9-8.4,33.3-16.2,38.3-34.3,8.1-23-9.2-50.1-33.4-52.4-18.4-3.2-32.7,10.9-48.2,17.8-33.9,14.8-68,29.8-103.9,39-41.5,10.5-84.2,16.6-127,17-9.4-16.1-21.9-30.3-29.2-47.6a95.8,95.8,0,0,0,8.3-19.2c29.9-92.4,86.4-175.9,160.8-238.3,11.6-8.9,18-24.1,15.5-38.6-2.4-16.8-16.4-30.9-33.1-33.6-12.3-2.4-25.2,1.8-34.5,10.1a613,613,0,0,0-148.8,186.4c-3.8-48.5-1.3-97.6,9.5-145.1,20.6-92.3,69.2-178.3,139-242.3,28.8-27.1,62.2-48.8,96.4-68.4,72.1,56.8,135.6,124.1,191.6,196.8A1371.5,1371.5,0,0,1,5224.3,2071Z" fill="#511e2e"/><path d="M3963.7,2490c-13.2-4.4-28.7-1.8-39.2,7.5-21,16.5-18.1,53,5.5,65.7,19.1,8.9,39.9,13.4,59.6,20.6l342.4,112.8c13.1,3.9,26.1,10.9,40.2,9s26-11,31.8-23.6c10.1-21-3-49.1-25.4-55.4Q4171.1,2558.5,3963.7,2490Z" fill="#511e2e"/><path d="M4259.5,2449.2c-14.4-5.1-30.9-.8-41.8,9.8-12.4,12-15.5,32.6-6.8,47.5,4.9,11,15.8,17.7,26.9,21.1,95.5,31.1,190.8,62.7,286.3,94.1,8.8,2.9,17.9,6.6,27.4,5.9,17.2-1,33.1-13.8,36.9-30.8,5.4-19.8-7-42.2-26.6-48Q4410.6,2498.9,4259.5,2449.2Z" fill="#511e2e"/><path d="M4806.5,2462.7c164,0,258.4-34.2,286.5-104.2l.5-1.5a131.8,131.8,0,0,0,8.7-48c0-64.1-48.8-89.5-94.5-99.4-25.9,44.2-99.1,71.3-201.2,71.3s-175.8-27.2-201.5-71.7c-45.6,8.8-94.2,33.6-94.2,99.8C4510.8,2347.1,4510.8,2462.7,4806.5,2462.7Zm151.1-164.4a15.1,15.1,0,0,1,20-7.8l28.4,12.5a15.1,15.1,0,1,1-12.2,27.8l-28.4-12.5A15.2,15.2,0,0,1,4957.5,2298.4Zm-112.3,37.1,30-7.9a15.1,15.1,0,1,1,7.8,29.3l-30,7.9a15.7,15.7,0,0,1-3.9.5,15.1,15.1,0,0,1-3.9-29.8Zm-123.6-17.1a15.2,15.2,0,0,1,18.6,10.7l8.1,30a15.2,15.2,0,1,1-29.2,8l-8.1-30A15.1,15.1,0,0,1,4721.6,2318.4Zm-129.8-18.2,26.1-16.8a15.1,15.1,0,1,1,16.4,25.5l-26.1,16.8a15.1,15.1,0,0,1-16.4-25.5Z" fill="#fff" stroke="#231f20" stroke-miterlimit="10"/><path d="M4993.2,2918.1c-15.3,13.4-45.2,33-91.2,35.9-43.4,2.5-76.9-11.8-95.8-25-17.4,12.1-46.9,25.3-85.3,25.3l-9.8-.3c-43-2.7-73.9-20.7-91.1-36-20.3,11.7-55.9,23.7-99.6,12.7a184.7,184.7,0,0,1-48.8-20.2l70.2,283.3c20.6,10.6,99.6,44.3,265,44.3s242.5-32.7,264.2-43.8l70.3-283.6a185.5,185.5,0,0,1-48.5,20C5049.1,2941.7,5013.5,2929.8,4993.2,2918.1Zm-333.8,267.2h-2a15.1,15.1,0,0,1-15-13.2L4618,2984.7a15.1,15.1,0,1,1,30-3.9l24.4,187.5A15.1,15.1,0,0,1,4659.4,3185.3Zm162.1-3.8a15.2,15.2,0,0,1-30.3,0V2992.8a15.2,15.2,0,0,1,30.3,0ZM4994,2984.7l-24.4,187.5a15.1,15.1,0,0,1-15,13.2h-2a15.1,15.1,0,0,1-13.1-17l24.4-187.5a15.1,15.1,0,1,1,30,3.9Z" fill="#fff" stroke="#231f20" stroke-miterlimit="10"/><path d="M4806.4,2244.6c101.5,0,175.2-30.5,175.2-72.5,0-124.7-153.8-167.2-220.1-179.7.8,31-28.3,48.5-52.7,63.3-36.4,22.1-77.7,47-77.7,116.4C4631.2,2214.1,4704.9,2244.6,4806.4,2244.6Zm70.8-119.4,26.1-16.8a15.2,15.2,0,0,1,16.4,25.5l-26.1,16.8a15.2,15.2,0,0,1-16.4-25.5Zm-97.6-55.9,30-7.9a15.1,15.1,0,1,1,7.7,29.3l-30,7.9a14.8,14.8,0,0,1-3.9.5,15.2,15.2,0,0,1-3.8-29.8Zm-76.1,68.3a15.1,15.1,0,0,1,20-7.8l28.5,12.5a15.2,15.2,0,1,1-12.2,27.8l-28.5-12.5A15.2,15.2,0,0,1,4703.5,2137.6Z" fill="#fff" stroke="#231f20" stroke-miterlimit="10"/><path d="M4806.4,2905.9h0Z" fill="#fff" stroke="#231f20" stroke-miterlimit="10"/><path d="M4806.5,2499.1c-163,0-266.4-35.1-309.2-104.4-68.8,74.6-110.1,194.5-100.9,303.2,35.1,21,56.8,4.2,88.5-20.3,35.6-27.6,79.9-62,153.1-37.2,21.2,7.2,39.3,23.6,56.7,39.6,15.7,14.3,30.5,27.7,45.7,33.4,33.9,12.6,72.5,3.2,96.3-23.5,6.3-7.1,13.1-16.2,20.3-25.9,26.6-35.9,59.4-80.3,111-77.1,31.4,2.1,52.1,15.8,72.1,29.2,8.5,5.7,17.4,11.5,27.2,16.6,26.8,14,52.4,11.5,78.1-7.4,24.1-17.7,43.4-46.4,56.5-70-17.1-61.1-47.2-118-86.1-160.4C5072.6,2464.1,4969.2,2499.1,4806.5,2499.1Z" fill="#fff" stroke="#231f20" stroke-miterlimit="10"/><path d="M4965.3,2318.3l28.4,12.5a15.1,15.1,0,0,0,12.2-27.8l-28.4-12.5a15.1,15.1,0,1,0-12.2,27.8Z" fill="#511e2e"/><path d="M4711.3,2157.5l28.5,12.5a15.2,15.2,0,0,0,12.2-27.8l-28.5-12.5a15.2,15.2,0,0,0-12.2,27.8Z" fill="#511e2e"/><path d="M4783.5,2099.1a14.8,14.8,0,0,0,3.9-.5l30-7.9a15.1,15.1,0,1,0-7.7-29.3l-30,7.9a15.2,15.2,0,0,0,3.8,29.8Z" fill="#511e2e"/><path d="M4885.5,2153.1a15,15,0,0,0,8.2-2.4l26.1-16.8a15.2,15.2,0,0,0-16.4-25.5l-26.1,16.8a15.2,15.2,0,0,0,8.2,27.9Z" fill="#511e2e"/><path d="M4849.1,2365.2a15.7,15.7,0,0,0,3.9-.5l30-7.9a15.1,15.1,0,1,0-7.8-29.3l-30,7.9a15.1,15.1,0,0,0,3.9,29.8Z" fill="#511e2e"/><path d="M4806.3,2977.7a15.1,15.1,0,0,0-15.2,15.1v188.6a15.2,15.2,0,0,0,30.3,0V2992.8A15.1,15.1,0,0,0,4806.3,2977.7Z" fill="#511e2e"/><path d="M4980.9,2967.8a15.1,15.1,0,0,0-17,13.1l-24.4,187.5a15.1,15.1,0,0,0,13.1,17h2a15.1,15.1,0,0,0,15-13.2l24.4-187.5A15.1,15.1,0,0,0,4980.9,2967.8Z" fill="#511e2e"/><path d="M4719.1,2366.9a15.2,15.2,0,0,0,29.2-8l-8.1-30a15.1,15.1,0,1,0-29.2,7.9Z" fill="#511e2e"/><path d="M5138.5,2309c0-68.7-43.8-116.9-120.7-134.3,0-.9.2-1.7.2-2.6,0-137.7-150.6-204.6-279.5-220.1a18.2,18.2,0,0,0-18.2,26.6c9.9,18.6,6.5,23.8-30.2,46s-95.2,57.6-95.2,147.4c0,.7.2,1.4.2,2.1-76.9,15.9-120.6,64.3-120.6,134.9a176.3,176.3,0,0,0,7,49.7h0c-121.4,119.9-172.1,367.9-57.5,510.9l84.4,340.4a18.2,18.2,0,0,0,7.5,10.7c3.3,2.2,82.6,53.6,290.9,53.6s287.6-51.4,290.9-53.6a17.7,17.7,0,0,0,7.8-14.5l83.6-337c114.1-143,63.6-390.3-57.5-510.2A176.4,176.4,0,0,0,5138.5,2309Zm-429.6-253.3c24.4-14.8,53.4-32.4,52.7-63.3,66.3,12.5,220.1,54.9,220.1,179.7,0,42-73.7,72.5-175.2,72.5s-175.2-30.5-175.2-72.5C4631.2,2102.8,4672.5,2077.8,4708.9,2055.8ZM4605,2209.3c25.6,44.5,99,71.7,201.5,71.7s175.3-27,201.2-71.3c45.7,9.8,94.5,35.3,94.5,99.4a131.8,131.8,0,0,1-8.7,48l-.5,1.5c-28.2,69.9-122.5,104.2-286.5,104.2-295.7,0-295.7-115.7-295.7-153.7C4510.8,2242.8,4559.4,2218,4605,2209.3Zm465.9,985c-21.6,11.1-99.5,43.8-264.2,43.8s-244.4-33.8-265-44.3l-70.2-283.3a184.7,184.7,0,0,0,48.8,20.2c43.7,11.1,79.3-.9,99.6-12.7,17.2,15.3,48.2,33.3,91.1,36l9.8.3c38.5,0,68-13.2,85.3-25.3,18.9,13.2,52.4,27.5,95.8,25,46-2.9,75.9-22.6,91.2-35.9,20.3,11.7,55.9,23.6,99.5,12.6a185.5,185.5,0,0,0,48.5-20Zm-264.5-288.4h0Zm395.3-350.5c-13.1,23.6-32.3,52.3-56.5,70-25.7,18.9-51.3,21.4-78.1,7.4-9.8-5.1-18.6-11-27.2-16.6-20-13.3-40.7-27.1-72.1-29.2-51.6-3.2-84.4,41.3-111,77.1-7.2,9.7-13.9,18.8-20.3,25.9-23.7,26.6-62.4,36.1-96.3,23.5-15.2-5.7-30-19.2-45.7-33.4-17.5-15.9-35.6-32.4-56.7-39.6-73.2-24.9-117.5,9.5-153.1,37.2-31.6,24.5-53.3,41.3-88.5,20.3-9.2-108.7,32.1-228.6,100.9-303.2,42.9,69.3,146.2,104.4,309.2,104.4s266.1-35,309.1-104.1C5154.5,2437.4,5184.5,2494.3,5201.6,2555.4Z" fill="#511e2e"/><path d="M4600,2328a15,15,0,0,0,8.2-2.4l26.1-16.8a15.1,15.1,0,1,0-16.4-25.5l-26.1,16.8a15.2,15.2,0,0,0,8.2,27.9Z" fill="#511e2e"/><path d="M4648.1,2980.8a15.1,15.1,0,1,0-30,3.9l24.4,187.5a15.1,15.1,0,0,0,15,13.2h2a15.1,15.1,0,0,0,13.1-17Z" fill="#511e2e"/><path d="M4543.9,3243.4c-9,8.5-15.3,19.4-24.5,27.7s-18.2,14.3-29.7,13.9-22.4-8.2-30.6-16.5-14.8-20.1-25.4-26.9c-5.8-4.1-13.6-5.6-20.2-2.7-8.9,3.7-15.3,11.4-21.1,18.8s-14.3,16.8-23.7,22.4c-6.9,4.1-15.4,5.9-23.2,3.8-10.4-2.7-18.7-10.1-25.8-17.7s-14.8-20.8-26.2-26.9c-5.3-3-11.9-2.5-17.2.4,4.5,10.3,9.8,20.5,16.4,29.6a159.2,159.2,0,0,0,76.4,58.4c17.9,6.6,37,9,56,9.1,12.5-.9,25.1-1.6,37.2-5.1a158.7,158.7,0,0,0,105.2-91c-3.1-2-6.5-3.9-10.2-3.7S4547.5,3240.1,4543.9,3243.4Z" fill="#fff" stroke="#231f20" stroke-miterlimit="10"/><path d="M4678,3108.1c-12,3.3-24.1,6.9-35.2,12.5a175.5,175.5,0,0,0-37.2,23.3c.2,7.5,1.8,14.9,1.9,22.5a183.2,183.2,0,0,0,78,30.5c5.8,1,12.7,0,17.2,4.6,6.3,5.5,5.6,16.6-1.4,21.2-4.8,3.7-11.1,2.3-16.7,1.7a212.5,212.5,0,0,1-73.5-23.6,156.3,156.3,0,0,0,12.4,31c7.7,13.9,16.6,27.2,28,38.4,6.5,6,12.9,12.1,20.1,17.1,23.2,16.6,51,27.3,79.6,28.9a121.1,121.1,0,0,0,27.4-.3c4.7-2.5,9.8-4.2,14.1-7.3,10.1-6.4,16.8-17,20.1-28.3a58.3,58.3,0,0,0-3.5-41.2c-2.8-6-7.1-11.1-11.3-16.1a13.8,13.8,0,0,1-4.2-14.4c.8-3.4,3.4-5.9,5.9-8.1,7.5-6.5,12.1-15.6,14.9-25,5.8-19.9-.4-43.1-16.2-56.6-3.3-3.1-7.4-5.1-11.3-7.4-6.2-3.7-8.9-12.4-5.7-18.9,1.4-3.1,4.3-5.1,6.6-7.6,8.8-9.5,13.6-22.3,14.2-35.1,1-19.3-8.5-39.6-25.7-49.1-4.1-1.8-8.1-4.5-12.8-4s-11.3.6-16.9,1a154.6,154.6,0,0,0-80.1,32.4,159.3,159.3,0,0,0-52.9,74.7c19.9-11.4,41.4-20.4,63.9-24.7a13.6,13.6,0,0,1,11.5,2.9,13.8,13.8,0,0,1,2.1,18.9C4688.3,3106.2,4682.8,3107.2,4678,3108.1Z" fill="#fff" stroke="#231f20" stroke-miterlimit="10"/><path d="M4335.6,3128.7c5.9,4.8,13.8,8,21.4,6.1,9.6-2.5,16.8-9.8,23.2-16.9,7.4-9,14.4-18.9,24.6-25.1,7.1-4.5,16.2-6.4,24.4-3.7,10.5,3.4,18.6,11.5,25.4,19.9s14.6,18.5,25,23.8a24,24,0,0,0,21.8,0c11.5-5.8,19.2-16.4,27-26.2,6.8-8,14.6-16.5,25.3-19a175.9,175.9,0,0,0-25.5-29.9,168.1,168.1,0,0,0-42.4-27.7c-38.8-17.4-84.9-18.1-124.1-1.5-29.3,12-54.6,33.3-72,59.7a39,39,0,0,1,16.4,8.9C4317.2,3106.4,4324,3119.9,4335.6,3128.7Z" fill="#fff" stroke="#231f20" stroke-miterlimit="10"/><path d="M4285.7,3214c7.9.2,14.9,4.4,20.7,9.5,9.9,8.5,16.3,20.2,26.1,28.9,5.4,4.9,12.2,9.3,19.8,9.3s14.3-4.3,19.8-9.2c10.8-9.4,17.5-22.7,29.3-31.1,7.3-5.6,17-8.9,26.2-6.4,11,2.9,19.4,11.2,26.5,19.6s15,19.3,25.9,24.6a24.1,24.1,0,0,0,22.4-.6c11.9-6.3,19.5-17.8,27.9-27.9,6.4-7.1,13.6-14.7,23.3-16.7,7.6-1.6,15.1,2.2,20.8,6.9a165,165,0,0,0,5.3-29c.2-1.8-1.4-3-2.3-4.3-4.6-5.2-9.4-10.8-16.1-13.1s-11.4.7-15.6,4.3c-9.6,8.1-15.9,19.4-25,28s-18.3,15.1-30,15.2-22-7.1-30.1-15.1c-9.8-8.9-15.9-21.4-27.2-28.6-5.9-4-13.9-5.2-20.5-2.1-9.2,4.2-15.7,12.4-21.7,20.2s-16.1,18.3-27.3,23.1a30,30,0,0,1-26-1.5c-12.8-6.8-21.6-18.6-30.5-29.7-5.7-6.4-12.4-13.5-21.5-14.1s-16.3,7-22,13.4c.4,10.9,2.9,21.5,5.4,32C4274,3216.3,4279.7,3213.8,4285.7,3214Z" fill="#fff" stroke="#231f20" stroke-miterlimit="10"/><path d="M4222,3140.2c-23.1-19.2-51.5-31.5-80.8-37.4-7.3-1.4-12.2-9.3-10.4-16.5s9.4-12,16.5-10.2c30.9,6.1,60.5,18.8,85.7,37.7-2.8-9.2-5.7-18.4-9.9-27a160.7,160.7,0,0,0-43.8-55.4,157.7,157.7,0,0,0-101.1-34.9c-9.9,1.8-20.2,5.3-27.1,13.1-11.4,11-16.7,27.4-15.5,43.1,1.1,12.3,5.4,24.6,14,33.6a13.8,13.8,0,0,1,4.1,11.5c-.3,4.3-3.5,7.5-5.3,11.2s-5.9,5.4-9.2,7.6c-10.4,6.7-17.4,17.8-20.9,29.5-1.9,6.2-1.8,12.7-1.7,19.1.9,13.9,6.5,28,17.2,37.2,3.2,3,7.7,4.8,9.8,8.8a13.8,13.8,0,0,1-2.3,16.6c-2.1,2.2-4.9,3.2-7.7,4-2.4,4.8-5.6,9.2-7.1,14.3-6.6,18.2-3.2,39.9,9.1,55,6.5,6.8,14.4,13.1,23.9,14.8,5.6,0,11.2.5,16.8.9s10.4-.3,15.6-.5c33.4-1.8,65.8-15.6,91.1-37.3a161.2,161.2,0,0,0,51-82.5c-26.2,14-55.3,22.7-84.9,24.6-4.6.2-9.7,1.3-14-1a13.7,13.7,0,0,1,5-25.9,257.8,257.8,0,0,0,27.5-3,186.1,186.1,0,0,0,68.7-28.1c.3-2.9.5-5.8.8-8.7A122,122,0,0,0,4222,3140.2Z" fill="#fff" stroke="#231f20" stroke-miterlimit="10"/><path d="M4305.6,3159.7c11.5,9.5,18.4,23.5,30.4,32.5,6.1,4.8,14.2,7.9,21.9,5.6,10.4-3.2,18-11.6,24.8-19.7s14.9-18.8,25.6-24a27.9,27.9,0,0,1,22.8-1.1c10.8,4.3,18.8,13.2,25.8,22.1s14.3,17.3,24.5,21.7c7.1,3.1,15.4,2.1,21.9-1.8,11.7-6.7,19.2-18.2,27.7-28.2,6.4-7,13.6-14.4,23.4-16s17.2,4.1,23.4,10c-.3-6.2.6-12.6-1-18.7-2.2-8.9-4.5-17.8-8.3-26.2-4.1-4.9-11.7-6.8-17.5-3.7s-11.9,9.9-16.8,15.9c-7.6,9.8-15.8,19.6-26.6,25.9-7.2,4.2-16,6.2-24.2,4-10.7-2.7-19.3-10.3-26.7-18.2s-14.7-20.5-26-26.2a20.8,20.8,0,0,0-20.4.6c-11,6.2-17.2,17.7-25.8,26.6-7,7.4-15.2,14.4-25.2,16.9-8,2.1-16.6.1-23.6-4.2-11.7-7-20-18-28.4-28.5-5.7-6.4-12.4-13.6-21.6-14.1-3.3.1-7.2.6-9.6,3-6.5,14.7-10.1,30.5-12,46.4,5.7-5.1,12.9-9.4,20.8-9.5S4299.8,3154.8,4305.6,3159.7Z" fill="#fff" stroke="#231f20" stroke-miterlimit="10"/><path d="M4276.7,3293.9c9.6,12.8,21.6,23.5,34.2,33.4,27.1,20,59.5,33.4,93.3,35.9,9.6.8,19.2,1.5,28.8.5s17.9-1.3,26.7-3.2a186,186,0,0,0,82.1-40.2,188.1,188.1,0,0,0,55.1-79.9,220.8,220.8,0,0,0,15.4,25.7c28.4,40.3,73.5,68.7,122.3,76.1,13.2,1.5,26.5,3.1,39.8,1.8,4.1-.4,8.6.1,12.3-2.3s6.9-2.2,10.2-3.9c21.6-9.1,37.4-29.4,43.1-51.9a85.3,85.3,0,0,0-14.2-72.6c19-22.2,23.7-54.8,13.9-82a82.1,82.1,0,0,0-25-35.3c19.9-27.5,20.3-67.2,1.2-95.3a73.9,73.9,0,0,0-34.3-27.8c-3.2-1.2-6.2-3.2-9.6-3.4-30.1-1.9-60.5,4.9-87.7,17.8-44.2,21.1-79.7,60.3-95.5,106.7-9.2-20.2-23-38.1-38.8-53.6-31.4-30-73.5-48.7-116.9-51.1a184,184,0,0,0-109.6,28.3,186.7,186.7,0,0,0-67.8,75.4c-1.7-5-3.9-9.8-6.1-14.6-17.8-39.2-49.4-72.1-88.3-90.8a184,184,0,0,0-87.3-18.4c-3.4.1-6.4,1.7-9.7,2.4-13.4,2.9-25.4,10.9-34.6,20.9-13.2,13.8-20.3,32.6-21.6,51.5a84.1,84.1,0,0,0,14,51.4c-18.9,13.7-30.8,36.2-32.6,59.3q.1,5.3-.2,10.6c1,19.3,8.2,38.5,21.5,52.7a68.3,68.3,0,0,0-9.9,19.5c-10.6,29.5-3.3,65.1,19.5,87a69.9,69.9,0,0,0,36.4,18.9c5.1.3,10.3,0,15.4.7,8,1,16.1.1,24.1-.5,33.8-2.2,66.5-14.9,93.8-34.8a186,186,0,0,0,57.2-68.5A183,183,0,0,0,4276.7,3293.9ZM4689.2,3083a13.6,13.6,0,0,0-11.5-2.9c-22.6,4.3-44.1,13.3-63.9,24.7a159.3,159.3,0,0,1,52.9-74.7,154.6,154.6,0,0,1,80.1-32.4c5.6-.4,11.2-1.3,16.9-1s8.7,2.2,12.8,4c17.3,9.5,26.7,29.8,25.7,49.1-.5,12.9-5.4,25.7-14.2,35.1-2.3,2.5-5.2,4.5-6.6,7.6-3.2,6.6-.5,15.2,5.7,18.9,3.8,2.3,8,4.2,11.3,7.4,15.8,13.6,22,36.8,16.2,56.6-2.7,9.4-7.4,18.6-14.9,25-2.5,2.2-5.1,4.7-5.9,8.1a13.8,13.8,0,0,0,4.2,14.4c4.2,5.1,8.5,10.1,11.3,16.1a58.3,58.3,0,0,1,3.5,41.2c-3.3,11.3-10.1,21.9-20.1,28.3-4.4,3.1-9.5,4.8-14.1,7.3a121.1,121.1,0,0,1-27.4.3c-28.6-1.7-56.4-12.4-79.6-28.9-7.2-5.1-13.7-11.2-20.1-17.1-11.4-11.2-20.3-24.5-28-38.4a156.3,156.3,0,0,1-12.4-31,212.5,212.5,0,0,0,73.5,23.6c5.5.5,11.8,2,16.7-1.7,7-4.6,7.7-15.7,1.4-21.2-4.5-4.5-11.4-3.6-17.2-4.6a183.2,183.2,0,0,1-78-30.5c-.1-7.5-1.7-15-1.9-22.5a175.5,175.5,0,0,1,37.2-23.3c11.2-5.6,23.2-9.2,35.2-12.5,4.8-.9,10.3-1.9,13.3-6.3A13.8,13.8,0,0,0,4689.2,3083Zm-175,224a158.9,158.9,0,0,1-52.1,24.7c-12.1,3.5-24.7,4.1-37.2,5.1-19,0-38.1-2.4-56-9.1a159.2,159.2,0,0,1-76.4-58.4c-6.7-9.1-11.9-19.2-16.4-29.6,5.3-2.9,11.9-3.4,17.2-.4,11.3,6,17.6,17.8,26.2,26.9s15.5,15,25.8,17.7c7.9,2.1,16.3.3,23.2-3.8,9.5-5.6,17-13.8,23.7-22.4s12.2-15.1,21.1-18.8c6.7-2.8,14.4-1.3,20.2,2.7,10.5,6.9,16.5,18.3,25.4,26.9s18.5,16.1,30.6,16.5,21.7-6.3,29.7-13.9,15.5-19.2,24.5-27.7c3.6-3.3,8-6.4,13.1-6.5s7.2,1.7,10.2,3.7A160,160,0,0,1,4514.2,3307Zm-152.5-278.5c39.2-16.6,85.2-15.9,124.1,1.5a168.1,168.1,0,0,1,42.4,27.7,175.9,175.9,0,0,1,25.5,29.9c-10.7,2.5-18.4,11-25.3,19-7.8,9.8-15.5,20.4-27,26.2a24,24,0,0,1-21.8,0c-10.5-5.3-17.9-14.7-25-23.8s-14.9-16.5-25.4-19.9c-8.2-2.7-17.2-.8-24.4,3.7-10.2,6.2-17.1,16.1-24.6,25.1-6.3,7.2-13.6,14.5-23.2,16.9-7.7,1.9-15.5-1.3-21.4-6.1-11.6-8.8-18.4-22.3-29.5-31.7a39,39,0,0,0-16.4-8.9C4307.1,3061.7,4332.4,3040.4,4361.7,3028.4Zm-85.6,85.6c2.4-2.4,6.3-2.9,9.6-3,9.1.5,15.9,7.7,21.6,14.1,8.4,10.4,16.7,21.5,28.4,28.5,7,4.3,15.6,6.3,23.6,4.2,10.1-2.6,18.2-9.6,25.2-16.9,8.5-8.9,14.8-20.4,25.8-26.6a20.8,20.8,0,0,1,20.4-.6c11.3,5.7,17.6,17.2,26,26.2s16,15.5,26.7,18.2c8.2,2.2,17,.2,24.2-4,10.8-6.3,19-16.1,26.6-25.9,4.9-5.9,9.8-12.3,16.8-15.9s13.4-1.2,17.5,3.7c3.8,8.3,6.1,17.3,8.3,26.2,1.6,6.1.7,12.5,1,18.7-6.2-5.9-14.4-11.4-23.4-10s-17,9.1-23.4,16c-8.5,10-16,21.5-27.7,28.2-6.5,3.9-14.9,4.9-21.9,1.8-10.3-4.4-17.7-13.1-24.5-21.7s-15-17.8-25.8-22.1a27.9,27.9,0,0,0-22.8,1.1c-10.8,5.2-18.4,14.8-25.6,24s-14.4,16.5-24.8,19.7c-7.7,2.3-15.9-.7-21.9-5.6-12-9-18.9-23-30.4-32.5-5.8-4.9-12.9-8.9-20.7-8.8s-15.1,4.3-20.8,9.5C4266,3144.5,4269.6,3128.7,4276.1,3114Zm9.6,60.1c9.1.5,15.8,7.7,21.5,14.1,8.9,11,17.7,22.9,30.5,29.7a30,30,0,0,0,26,1.5c11.2-4.7,19.7-13.9,27.3-23.1s12.5-16,21.7-20.2c6.6-3.1,14.6-1.9,20.5,2.1,11.4,7.2,17.5,19.7,27.2,28.6,8.1,8,18.3,15.1,30.1,15.1s22-7.2,30-15.2,15.4-19.9,25-28c4.2-3.6,10-6.3,15.6-4.3s11.5,8,16.1,13.1c.9,1.3,2.5,2.5,2.3,4.3a165,165,0,0,1-5.3,29c-5.8-4.7-13.2-8.5-20.8-6.9-9.7,2.1-16.9,9.6-23.3,16.7-8.4,10.1-16,21.6-27.9,27.9a24.1,24.1,0,0,1-22.4.6c-10.9-5.4-18.5-15.3-25.9-24.6s-15.5-16.8-26.5-19.6c-9.2-2.5-18.8.9-26.2,6.4-11.8,8.4-18.5,21.7-29.3,31.1-5.5,4.9-12.2,9.2-19.8,9.2s-14.3-4.4-19.8-9.3c-9.8-8.6-16.1-20.4-26.1-28.9-5.8-5-12.8-9.3-20.7-9.5-6-.2-11.7,2.2-16.6,5.4-2.5-10.5-5-21.1-5.4-32C4269.5,3181.1,4276.5,3174,4285.7,3174.1Zm-49.3-11a186.1,186.1,0,0,1-68.7,28.1,257.8,257.8,0,0,1-27.5,3,13.7,13.7,0,0,0-5,25.9c4.3,2.3,9.3,1.2,14,1,29.7-1.8,58.8-10.6,84.9-24.6a161.2,161.2,0,0,1-51,82.5c-25.3,21.7-57.7,35.5-91.1,37.3-5.2.3-10.4,1-15.6.5s-11.2-1-16.8-.9c-9.5-1.7-17.4-8-23.9-14.8-12.3-15.1-15.7-36.8-9.1-55,1.5-5.2,4.7-9.6,7.1-14.3,2.8-.8,5.7-1.8,7.7-4a13.8,13.8,0,0,0,2.3-16.6c-2.1-4-6.6-5.8-9.8-8.8-10.8-9.2-16.3-23.3-17.2-37.2-.1-6.4-.2-12.9,1.7-19.1,3.6-11.7,10.5-22.7,20.9-29.5,3.3-2.1,7.4-3.8,9.2-7.6s4.9-6.9,5.3-11.2a13.8,13.8,0,0,0-4.1-11.5c-8.6-9-12.9-21.4-14-33.6-1.2-15.6,4-32.1,15.5-43.1,6.9-7.8,17.2-11.3,27.1-13.1a157.7,157.7,0,0,1,101.1,34.9,160.7,160.7,0,0,1,43.8,55.4c4.2,8.6,7.1,17.8,9.9,27-25.2-18.9-54.9-31.6-85.7-37.7-7.1-1.8-15,3-16.5,10.2s3.1,15.1,10.4,16.5c29.4,5.8,57.8,18.1,80.8,37.4a122,122,0,0,1,15.2,14.1C4236.9,3157.3,4236.7,3160.2,4236.4,3163.1Z" fill="#511e2e"/><path d="M2564.3,3147.3c-29.6-17.6-58.9-35.5-88.3-53.5-13.1-7.5-50.7-26.9-54.2-43.3-10.2,38.9-19.8,78.1-26.1,117.8-3.2,20.4-10.6,51.4-.4,71.1,5.3,10.4,21,7.9,30.5,8.9l66.7,7.4,133.3,14.7a1868.4,1868.4,0,0,0,260.2,10.7c-57.8-16.7-113.8-36.6-169.6-59.2C2664.6,3201,2612.4,3175.9,2564.3,3147.3Z" fill="#fff" stroke="#231f20" stroke-miterlimit="10"/><path d="M2798,2708.1c36.2,14.4,72,29.7,107.9,44.6s71.8,28.4,106.3,45.4c49.2,24.2,106.7,46.9,147.8,83.8-3.1-12.1-5.9-24.3-9.5-36.3-34.6-95.5-93.4-193.1-184.1-228.2-57.7-22.3-122.4-21.3-182.9-13.9-64.2,7.8-128.4,26.9-182.1,63.9C2667,2659.6,2738.2,2684.2,2798,2708.1Z" fill="#fff" stroke="#231f20" stroke-miterlimit="10"/><path d="M2763.2,2511.9c-7.6-11.8-13.2-24.8-19.1-37.5-7.8-13.4-11.2-29.8-15.7-44.5-10.7-35.5-18.1-75.8-13.3-113.1,2.4-18.3,15.1-35.3,21.1-7.9,3.7,16.9,6.7,34,10.1,51,6.4,32.7,13.4,74.4,28.6,104.4,5.5,13.8,9.3,28.2,14.9,41.9,3.7,9,7.5,18,10.8,27.2,5.9.6,11.9.9,17.8,1.2,14.8.6,28.7-27.5,36.3-39.7,16.8-22.2,32.2-48.2,41.2-74.8,4.3-12.7,18.8-38.1,24.6-10,3.2,15.1-.4,30.2-4.2,44.7-7.9,29.9-31.1,60.5-55.4,78.7,55.3-5.2,118.6-26.9,143.9-80.7,14.3-30.5,9-58.7,6.2-90.7s11.6-66.5,16.7-99.1c-20.8-3.2-45.6-11.7-66-12.3,1.6,0-8.8,9.9-8,9.4a244.6,244.6,0,0,1-34.3,21.6c-18,9.1-43.6,21.9-64.1,21.2-41.6-1.5-70.9-56.4-90.2-86.8-38.3,27.4-93.5,61.8-138.1,29,1,17.2,1,34.7-2.2,51.8-1.1,5.9-2.3,12-3.3,18.1-5,27.4-13.6,86.4,5.7,124.9,27.1,54.2,92.2,81,148.6,90.5C2775.8,2526.1,2765.3,2514.9,2763.2,2511.9Z" fill="#fff" stroke="#231f20" stroke-miterlimit="10"/><path d="M3164.9,2900.3c-10.4-2.7-19.8-8.2-29.5-12.7-16.4-7.7-33-14.9-49.4-22.5-50-23.1-101.8-42.6-152.7-63.7-40.8-16.9-81.1-34.5-121.5-52.2-36.2-15.9-72.8-31-110.1-44.4-19.6-7.1-39.4-13.7-59.7-18.6-16.4-3.9-36.2-3.4-51.5-10.9-16.5,12.5-19.1,15.1-16.6,13.7a283.2,283.2,0,0,0-77.2,114.5c27.9,4.7,59,27.9,84,41,36.6,19.2,73.9,36.9,111,55.1,50.6,24.8,102.4,47.2,153.7,70.4s107.5,45.1,161.5,64.3c30.1,10.7,60.1,21.8,90.3,32.4,32.2,11.3,71.7,17.8,100.8,35.7-7.3-53.5-13.5-106.9-24.1-159.9Q3169.9,2921.3,3164.9,2900.3Z" fill="#fff" stroke="#231f20" stroke-miterlimit="10"/><path d="M3092.3,3092.3c-28.7-7.8-57.2-16.4-85.7-25-58.1-17.7-118.2-39-173-64.9-49.1-23.1-98.8-45.2-146.7-70.7-35.6-19-70.7-38.7-105-60-27.9-17.4-68.1-35.7-86.8-63.7-27.8,78.9-51.5,159.7-72.8,240.6,10.1-6.1,47.3,19.7,56.6,23.8s19.9,9.4,29.8,14.3c39.4,19.5,78.1,40.9,118.3,58.5,53.4,23.3,106.3,46.6,160.6,67.4,56.6,21.7,113.4,44.6,171.7,61.2,11.5,3.3,20.8,1.6,32.6.6,0-3.9-1.8-8.9-1.3-12.6.9-7.4-3.4-16.8,1.3-23.5,16.6-24,35.5,19.8,33.9,33.7l24.3-1.5c-2-10.3-6.5-57.5,18.4-43.2,15.2,8.7,16.2,25.9,13.3,41l24.9-2.2c.7-5.9-.9-11.8-.3-17.7-.7-8.4-.6-16.3-1.9-24.6-1.6-10.1-7.8-32.3,3.6-38.1,32.2-17,32.2,64.1,26.6,77.1,12.2-1.8,24.4-4,36.1-7.9-9.2-8.5-23.4-67.3-12.1-75.4,28.8-21.3,38.2,50.1,32.3,63.6,21.7-23,13.2-96.9,7.8-134.1C3169.6,3119.7,3121.4,3100.2,3092.3,3092.3Z" fill="#fff" stroke="#231f20" stroke-miterlimit="10"/><path d="M2963.8,2555.2c51.1-28.3,113.4-79.7,109.9-144.7-1-18.3-6.9-35.9-8.9-54s26.4-132.5,8.5-143.7-55.9-11.8-76.5-13c-32.3-1.8-54.8,12.4-80.9,29.4-60.5,39.5-89.9-28-119.1-70.9-16.1-23.8-55.7,17.3-70.5,25.8-19.4,11.2-41.1,18.2-62.3,7.6-11.9-6-21.9-15.4-31-25.1s-18.3-28.8-32.7-28.4c-35.1.8-30.5,48.1-30.1,69.9.8,41.4-.6,82.7-3.7,124-2.7,35.7-10.1,72-.6,107.3,16.4,60.8,69.7,103.6,124.9,128.6-142.5,49.3-226.7,158.9-274,297.7-37.1,108.8-56.7,225.1-75.3,338.3-3.5,21-7.4,44.3-2.7,65.4,6.4,28.9,52.9,32,76.7,35.2,88.4,12,178.2,19.7,267.2,25.9,91.2,6.3,414.5,3.1,503.5-31.9,33.3-13.1,61.1-26.6,66.2-64.2,7.8-57.4-23.4-354.2-74.4-471.4C3135.9,2666.4,3069.4,2583.5,2963.8,2555.2Zm-336.6-115.5c-19.2-38.5-10.7-97.5-5.7-124.9,1.1-6.1,2.2-12.1,3.3-18.1,3.1-17,3.1-34.5,2.2-51.8,44.6,32.8,99.8-1.6,138.1-29,19.2,30.4,48.6,85.3,90.2,86.8,20.5.7,46.1-12.1,64.1-21.2a244.6,244.6,0,0,0,34.3-21.6c-.7.5,9.7-9.3,8-9.4,20.4.6,45.3,9.1,66,12.3-5.1,32.5-19.7,65.7-16.7,99.1s8.2,60.2-6.2,90.7c-25.3,53.9-88.7,75.5-143.9,80.7,24.4-18.1,47.6-48.8,55.4-78.7,3.8-14.5,7.3-29.6,4.2-44.7-5.9-28.1-20.3-2.7-24.6,10-9,26.6-24.5,52.6-41.2,74.8-7.6,12.2-21.5,40.3-36.3,39.7-6-.2-11.9-.6-17.8-1.2-3.3-9.2-7.1-18.1-10.8-27.2-5.6-13.8-9.4-28.1-14.9-41.9-15.3-29.9-22.3-71.7-28.6-104.4-3.3-17-6.4-34.1-10.1-51-6-27.4-18.8-10.4-21.1,7.9-4.8,37.3,2.6,77.6,13.3,113.1,4.4,14.7,7.9,31.1,15.7,44.5,6,12.6,11.6,25.7,19.1,37.5,2.1,3,12.6,14.2,12.6,18.3C2719.4,2520.7,2654.2,2493.9,2627.2,2439.7Zm156.5,163.8c60.5-7.3,125.2-8.4,182.9,13.9,90.7,35.1,149.5,132.7,184.1,228.2,3.6,12,6.4,24.2,9.5,36.3-41.1-36.9-98.6-59.6-147.8-83.8-34.5-17-70.8-30.7-106.3-45.4s-71.7-30.2-107.9-44.6c-59.8-23.8-131.1-48.5-196.4-40.6C2655.2,2630.4,2719.4,2611.3,2783.6,2603.5Zm-157.8,667-133.3-14.7-66.7-7.4c-9.5-1-25.2,1.4-30.5-8.9-10.1-19.7-2.8-50.7.4-71.1,6.3-39.8,15.9-78.9,26.1-117.8,3.6,16.4,41.1,35.9,54.2,43.3,29.4,18,58.7,35.9,88.3,53.5,48.1,28.6,100.3,53.7,152.2,74.8,55.8,22.7,111.7,42.6,169.6,59.2A1868.4,1868.4,0,0,1,2625.8,3270.5Zm565.4-27.8c5.9-13.5-3.4-85-32.3-63.6-11.3,8.1,2.9,66.9,12.1,75.4-11.7,3.9-23.9,6.1-36.1,7.9,5.6-13,5.6-94.1-26.6-77.1-11.3,5.8-5.1,28-3.6,38.1,1.3,8.3,1.2,16.2,1.9,24.6-.6,6,1,11.8.3,17.7L3082,3268c3-15.1,1.9-32.3-13.3-41-24.9-14.2-20.4,32.9-18.4,43.2l-24.3,1.5c1.6-13.9-17.3-57.7-33.9-33.7-4.6,6.7-.3,16.1-1.3,23.5-.5,3.8,1.3,8.7,1.3,12.6-11.8,1-21.1,2.7-32.6-.6-58.3-16.6-115.1-39.4-171.7-61.2-54.4-20.8-107.2-44.1-160.6-67.4-40.2-17.6-79-39-118.3-58.5-9.9-4.9-19.8-9.8-29.8-14.3s-46.5-29.9-56.6-23.8c21.3-80.9,45-161.7,72.8-240.6,18.8,28.1,58.9,46.4,86.8,63.7,34.2,21.3,69.4,41,105,60,47.9,25.5,97.6,47.6,146.7,70.7,54.8,25.9,114.9,47.3,173,64.9,28.5,8.6,57,17.3,85.7,25s77.2,27.3,106.7,16.3C3204.4,3145.8,3212.9,3219.7,3191.2,3242.8Zm-93.9-176c-30.2-10.6-60.1-21.7-90.3-32.4-54-19.2-109.4-40.8-161.5-64.3s-103.2-45.5-153.7-70.4c-37.1-18.2-74.4-35.9-111-55.1-25-13.2-56.1-36.3-84-41A283.2,283.2,0,0,1,2574,2689c-2.5,1.4.1-1.2,16.6-13.7,15.2,7.5,35.1,7,51.5,10.9,20.3,4.8,40.1,11.5,59.7,18.6,37.2,13.4,73.9,28.5,110.1,44.4,40.4,17.7,80.7,35.4,121.5,52.2,50.9,21.1,102.7,40.5,152.7,63.7,16.4,7.6,33,14.8,49.4,22.5,9.7,4.5,19.1,10,29.5,12.7q4.9,21,9.1,42.2c10.5,53,16.8,106.4,24.1,159.9C3169.1,3084.6,3129.6,3078.1,3097.4,3066.8Z" fill="#511e2e"/><path d="M2017.9,3165.6c-23.1-19.2-51.5-31.5-80.8-37.4-7.3-1.4-12.2-9.3-10.4-16.5s9.4-12,16.5-10.2c30.9,6.1,60.5,18.8,85.7,37.7-2.8-9.2-5.7-18.4-9.9-27a160.7,160.7,0,0,0-43.8-55.4,157.7,157.7,0,0,0-101.1-34.9c-9.9,1.8-20.2,5.3-27.1,13.1-11.4,11-16.7,27.4-15.5,43.1,1.1,12.3,5.4,24.6,14,33.6a13.8,13.8,0,0,1,4.1,11.5c-.3,4.3-3.5,7.5-5.3,11.2s-5.9,5.4-9.2,7.6c-10.4,6.7-17.4,17.8-20.9,29.5-1.9,6.2-1.8,12.7-1.7,19.1.9,13.9,6.5,28,17.2,37.2,3.2,3,7.7,4.8,9.8,8.8a13.8,13.8,0,0,1-2.3,16.6c-2.1,2.2-4.9,3.2-7.8,4-2.4,4.8-5.6,9.2-7.1,14.3-6.6,18.2-3.2,39.9,9.1,55,6.5,6.8,14.4,13.1,23.9,14.8,5.6,0,11.2.5,16.8.9s10.4-.3,15.6-.5c33.4-1.8,65.8-15.6,91.1-37.3a161.2,161.2,0,0,0,51-82.5c-26.2,14-55.3,22.7-84.9,24.6-4.6.2-9.7,1.3-14-1a13.7,13.7,0,0,1,5-25.9,257.7,257.7,0,0,0,27.5-3,186.1,186.1,0,0,0,68.7-28.1c.3-2.9.5-5.8.8-8.7A122,122,0,0,0,2017.9,3165.6Z" fill="#fff" stroke="#231f20" stroke-miterlimit="10"/><path d="M2131.4,3154c5.9,4.8,13.8,8,21.4,6.1,9.6-2.5,16.8-9.8,23.2-16.9,7.4-9,14.4-18.9,24.6-25.1,7.1-4.5,16.2-6.4,24.4-3.7,10.5,3.4,18.6,11.5,25.4,19.9s14.6,18.5,25,23.8a24,24,0,0,0,21.8,0c11.5-5.8,19.2-16.4,27-26.2,6.8-8,14.6-16.5,25.3-19a175.8,175.8,0,0,0-25.5-29.9,168.1,168.1,0,0,0-42.4-27.7c-38.8-17.4-84.9-18.1-124.1-1.5-29.3,12-54.6,33.3-72,59.7a39,39,0,0,1,16.4,8.9C2113,3131.7,2119.8,3145.2,2131.4,3154Z" fill="#fff" stroke="#231f20" stroke-miterlimit="10"/><path d="M2595.7,3225.9c7.5-6.5,12.1-15.6,14.9-25,5.8-19.9-.4-43.1-16.2-56.6-3.3-3.1-7.4-5.1-11.3-7.4-6.2-3.7-8.9-12.4-5.7-18.9,1.4-3.1,4.3-5.1,6.6-7.6,8.8-9.5,13.6-22.3,14.2-35.1,1-19.3-8.5-39.6-25.7-49.1-4.1-1.8-8.1-4.5-12.8-4s-11.3.6-16.9,1a154.6,154.6,0,0,0-80.1,32.4,159.3,159.3,0,0,0-52.9,74.7c19.9-11.4,41.4-20.4,63.9-24.7a13.6,13.6,0,0,1,11.5,2.9,13.8,13.8,0,0,1,2.1,18.9c-3,4.3-8.5,5.3-13.3,6.3-12,3.3-24.1,6.9-35.2,12.5a175.5,175.5,0,0,0-37.2,23.3c.2,7.5,1.8,14.9,1.9,22.5a183.2,183.2,0,0,0,78,30.5c5.8,1,12.7,0,17.2,4.6,6.3,5.5,5.6,16.6-1.4,21.2-4.8,3.7-11.1,2.3-16.7,1.7a212.5,212.5,0,0,1-73.5-23.6,156.2,156.2,0,0,0,12.4,31c7.7,13.9,16.6,27.2,28,38.4,6.5,6,12.9,12.1,20.1,17.1,23.2,16.6,51,27.3,79.6,28.9a121.1,121.1,0,0,0,27.4-.3c4.7-2.5,9.8-4.2,14.1-7.3,10.1-6.4,16.8-17,20.1-28.3a58.3,58.3,0,0,0-3.5-41.2c-2.8-6-7.1-11.1-11.3-16.1a13.8,13.8,0,0,1-4.2-14.4C2590.6,3230.6,2593.1,3228.1,2595.7,3225.9Z" fill="#fff" stroke="#231f20" stroke-miterlimit="10"/><path d="M2357.1,3199.7c-5.6-2-11.4.7-15.6,4.3-9.6,8.1-15.9,19.4-25,28s-18.3,15.1-30,15.2-22-7.1-30.1-15.1c-9.8-8.9-15.9-21.4-27.2-28.6-5.9-4-13.9-5.2-20.5-2.1-9.2,4.2-15.7,12.4-21.7,20.2s-16.1,18.3-27.3,23.1a30,30,0,0,1-26-1.5c-12.8-6.8-21.6-18.6-30.5-29.7-5.7-6.4-12.4-13.5-21.5-14.1s-16.3,7-22,13.4c.4,10.9,2.9,21.5,5.4,32,4.9-3.2,10.6-5.7,16.6-5.4,7.9.2,14.9,4.4,20.7,9.5,9.9,8.5,16.3,20.2,26.1,28.9,5.4,4.9,12.2,9.3,19.8,9.3s14.3-4.3,19.8-9.2c10.8-9.4,17.5-22.7,29.3-31.1,7.3-5.6,17-8.9,26.2-6.4,11,2.9,19.4,11.2,26.5,19.6s15,19.3,25.9,24.6a24.1,24.1,0,0,0,22.4-.6c11.9-6.3,19.5-17.8,27.9-27.9,6.4-7.1,13.6-14.7,23.3-16.7,7.6-1.6,15.1,2.2,20.8,6.9a165,165,0,0,0,5.3-29c.2-1.8-1.4-3-2.3-4.3C2368.6,3207.7,2363.8,3202,2357.1,3199.7Z" fill="#fff" stroke="#231f20" stroke-miterlimit="10"/><path d="M2339.7,3268.8c-9,8.5-15.3,19.4-24.5,27.7s-18.2,14.3-29.7,13.9-22.4-8.2-30.6-16.5-14.8-20.1-25.4-26.9c-5.8-4.1-13.6-5.6-20.2-2.7-8.9,3.7-15.3,11.4-21.1,18.8s-14.3,16.8-23.7,22.4c-6.9,4.1-15.4,5.9-23.2,3.8-10.4-2.7-18.7-10.1-25.8-17.7s-14.8-20.8-26.2-26.9c-5.3-3-11.9-2.5-17.2.4,4.5,10.3,9.8,20.5,16.4,29.6a159.2,159.2,0,0,0,76.4,58.4c17.9,6.6,37,9,56,9.1,12.5-.9,25.1-1.6,37.2-5.1a158.7,158.7,0,0,0,105.2-91c-3.1-2-6.5-3.9-10.2-3.7S2343.3,3265.4,2339.7,3268.8Z" fill="#fff" stroke="#231f20" stroke-miterlimit="10"/><path d="M2101.4,3185c11.5,9.5,18.4,23.5,30.4,32.5,6.1,4.8,14.2,7.9,21.9,5.6,10.4-3.2,18-11.6,24.8-19.7s14.9-18.8,25.6-24a27.9,27.9,0,0,1,22.8-1.1c10.8,4.3,18.8,13.2,25.8,22.1s14.3,17.3,24.5,21.7c7.1,3.1,15.4,2.1,21.9-1.8,11.7-6.7,19.2-18.2,27.7-28.2,6.4-7,13.6-14.4,23.4-16s17.2,4.1,23.4,10c-.3-6.2.6-12.6-1-18.7-2.2-8.9-4.5-17.8-8.3-26.2-4.1-4.9-11.7-6.8-17.5-3.7s-11.9,9.9-16.8,15.9c-7.6,9.8-15.8,19.6-26.6,25.9-7.2,4.2-16,6.2-24.2,4-10.7-2.7-19.3-10.3-26.7-18.2s-14.7-20.5-26-26.2a20.8,20.8,0,0,0-20.4.6c-11,6.2-17.2,17.7-25.8,26.6-7,7.4-15.2,14.4-25.2,16.9-8,2.1-16.6.1-23.6-4.2-11.7-7-20-18-28.4-28.5-5.7-6.4-12.4-13.6-21.6-14.1-3.3.1-7.2.6-9.6,3-6.5,14.7-10.1,30.5-12,46.4,5.7-5.1,12.9-9.4,20.8-9.5S2095.6,3180.1,2101.4,3185Z" fill="#fff" stroke="#231f20" stroke-miterlimit="10"/><path d="M2635.3,3156.6a82.1,82.1,0,0,0-25-35.3c19.9-27.5,20.3-67.2,1.2-95.3a73.9,73.9,0,0,0-34.3-27.8c-3.2-1.2-6.2-3.2-9.6-3.4-30.1-1.9-60.5,4.9-87.7,17.8-44.2,21.1-79.7,60.3-95.5,106.7-9.2-20.2-23-38.1-38.8-53.6-31.4-30-73.5-48.7-116.9-51.1a184,184,0,0,0-109.6,28.3,186.7,186.7,0,0,0-67.8,75.4c-1.7-5-3.9-9.8-6.1-14.6-17.8-39.2-49.4-72.1-88.3-90.8a184,184,0,0,0-87.3-18.4c-3.4.1-6.4,1.7-9.7,2.4-13.4,2.9-25.4,10.9-34.6,20.9-13.2,13.8-20.3,32.6-21.6,51.5a84.1,84.1,0,0,0,14,51.4c-18.9,13.7-30.8,36.2-32.6,59.3q.1,5.3-.2,10.6c1,19.3,8.2,38.5,21.5,52.7a68.3,68.3,0,0,0-9.9,19.5c-10.6,29.5-3.3,65.1,19.5,87a69.9,69.9,0,0,0,36.4,18.9c5.1.3,10.3,0,15.4.7,8,1,16.1.1,24.1-.5,33.8-2.2,66.5-14.9,93.8-34.8a186,186,0,0,0,57.2-68.5,183,183,0,0,0,29.7,53.6c9.6,12.8,21.6,23.5,34.2,33.4,27.1,20,59.5,33.4,93.3,35.9,9.6.8,19.2,1.5,28.8.5s17.9-1.3,26.7-3.2a186,186,0,0,0,82.1-40.2,188.1,188.1,0,0,0,55.1-79.9,220.8,220.8,0,0,0,15.4,25.7c28.4,40.3,73.5,68.7,122.3,76.1,13.2,1.5,26.5,3.1,39.8,1.8,4.1-.4,8.6.1,12.3-2.3s6.9-2.2,10.2-3.9c21.6-9.1,37.4-29.4,43.1-51.9a85.3,85.3,0,0,0-14.2-72.6C2640.4,3216.4,2645.1,3183.8,2635.3,3156.6Zm-603.1,31.8a186.1,186.1,0,0,1-68.7,28.1,257.7,257.7,0,0,1-27.5,3,13.7,13.7,0,0,0-5,25.9c4.3,2.3,9.3,1.2,14,1,29.7-1.8,58.8-10.6,84.9-24.6a161.2,161.2,0,0,1-51,82.5c-25.3,21.7-57.7,35.5-91.1,37.3-5.2.3-10.4,1-15.6.5s-11.2-1-16.8-.9c-9.5-1.7-17.4-8-23.9-14.8-12.3-15.1-15.7-36.8-9.1-55,1.5-5.2,4.7-9.6,7.1-14.3,2.8-.8,5.7-1.8,7.8-4a13.8,13.8,0,0,0,2.3-16.6c-2.1-4-6.6-5.8-9.8-8.8-10.8-9.2-16.3-23.3-17.2-37.2-.1-6.4-.2-12.9,1.7-19.1,3.6-11.7,10.5-22.7,20.9-29.5,3.3-2.1,7.4-3.8,9.2-7.6s4.9-6.9,5.3-11.2a13.8,13.8,0,0,0-4.1-11.5c-8.6-9-12.9-21.4-14-33.6-1.2-15.6,4-32.1,15.5-43.1,6.9-7.8,17.2-11.3,27.1-13.1a157.7,157.7,0,0,1,101.1,34.9,160.7,160.7,0,0,1,43.8,55.4c4.2,8.6,7.1,17.8,9.9,27-25.2-18.9-54.9-31.6-85.7-37.7-7.1-1.8-15,3-16.5,10.2s3.1,15.1,10.4,16.5c29.4,5.8,57.8,18.1,80.8,37.4a122,122,0,0,1,15.2,14.1C2032.8,3182.6,2032.5,3185.5,2032.3,3188.4Zm125.3-134.7c39.2-16.6,85.2-15.9,124.1,1.5a168.1,168.1,0,0,1,42.4,27.7,175.8,175.8,0,0,1,25.5,29.9c-10.7,2.5-18.4,11-25.3,19-7.8,9.8-15.5,20.4-27,26.2a24,24,0,0,1-21.8,0c-10.5-5.3-17.9-14.7-25-23.8s-14.9-16.5-25.4-19.9c-8.2-2.7-17.2-.8-24.4,3.7-10.2,6.2-17.1,16.1-24.6,25.1-6.3,7.2-13.6,14.5-23.2,16.9-7.7,1.9-15.5-1.3-21.4-6.1-11.6-8.8-18.4-22.3-29.5-31.7a39,39,0,0,0-16.4-8.9C2103,3087,2128.2,3065.7,2157.5,3053.7Zm-85.6,85.6c2.4-2.4,6.3-2.9,9.6-3,9.1.5,15.9,7.7,21.6,14.1,8.4,10.4,16.7,21.5,28.4,28.5,7,4.3,15.6,6.3,23.6,4.2,10.1-2.6,18.2-9.6,25.2-16.9,8.5-8.9,14.8-20.4,25.8-26.6a20.8,20.8,0,0,1,20.4-.6c11.3,5.7,17.6,17.2,26,26.2s16,15.5,26.7,18.2c8.2,2.2,17,.2,24.2-4,10.8-6.3,19-16.1,26.6-25.9,4.9-6,9.8-12.3,16.8-15.9s13.4-1.2,17.5,3.7c3.8,8.3,6.1,17.3,8.3,26.2,1.6,6.1.7,12.5,1,18.7-6.2-5.9-14.4-11.4-23.4-10s-17,9.1-23.4,16c-8.5,10-16,21.5-27.7,28.2-6.5,3.9-14.9,4.9-21.9,1.8-10.3-4.4-17.7-13.1-24.5-21.7s-15-17.8-25.8-22.1a27.9,27.9,0,0,0-22.8,1.1c-10.8,5.2-18.4,14.8-25.6,24s-14.4,16.5-24.8,19.7c-7.7,2.3-15.9-.7-21.9-5.6-12-9-18.9-23-30.4-32.5-5.8-4.9-12.9-8.9-20.7-8.8s-15.1,4.3-20.8,9.5C2061.8,3169.8,2065.4,3154,2071.9,3139.3Zm238.1,193a158.9,158.9,0,0,1-52.1,24.7c-12.1,3.5-24.7,4.1-37.2,5.1-19,0-38.1-2.4-56-9.1a159.2,159.2,0,0,1-76.4-58.4c-6.7-9.1-11.9-19.2-16.4-29.6,5.3-2.9,11.9-3.4,17.2-.4,11.4,6,17.6,17.8,26.2,26.9s15.5,15,25.8,17.7c7.9,2.1,16.3.3,23.2-3.8,9.5-5.6,17-13.8,23.7-22.4s12.2-15.1,21.1-18.8c6.7-2.8,14.4-1.3,20.2,2.7,10.5,6.9,16.5,18.3,25.4,26.9s18.5,16.1,30.6,16.5,21.7-6.3,29.7-13.9,15.5-19.2,24.5-27.7c3.6-3.3,8-6.4,13.1-6.5s7.2,1.7,10.2,3.7A160,160,0,0,1,2310,3332.3Zm65.5-115.1a165,165,0,0,1-5.3,29c-5.8-4.7-13.2-8.5-20.8-6.9-9.7,2.1-16.9,9.6-23.3,16.7-8.4,10.1-16,21.6-27.9,27.9a24.1,24.1,0,0,1-22.4.6c-10.9-5.4-18.5-15.3-25.9-24.6s-15.5-16.8-26.5-19.6c-9.2-2.5-18.8.9-26.2,6.4-11.8,8.4-18.5,21.7-29.3,31.1-5.5,4.9-12.2,9.2-19.8,9.2s-14.3-4.4-19.8-9.3c-9.8-8.6-16.1-20.4-26.1-28.9-5.8-5-12.8-9.3-20.7-9.5-6-.2-11.7,2.2-16.6,5.4-2.5-10.5-5-21.1-5.4-32,5.7-6.4,12.8-13.5,22-13.4s15.8,7.7,21.5,14.1c8.9,11,17.7,22.9,30.5,29.7a30,30,0,0,0,26,1.5c11.2-4.7,19.7-13.9,27.3-23.1s12.5-16,21.7-20.2c6.6-3.1,14.6-1.9,20.5,2.1,11.4,7.2,17.5,19.7,27.2,28.6,8.1,8,18.3,15.1,30.1,15.1s22-7.2,30-15.2,15.4-19.9,25-28c4.2-3.6,10-6.3,15.6-4.3s11.5,8,16.1,13.1C2374.1,3214.1,2375.8,3215.4,2375.5,3217.1Zm218.4,31.3c4.2,5.1,8.5,10.1,11.3,16.1a58.3,58.3,0,0,1,3.5,41.2c-3.3,11.3-10.1,21.9-20.1,28.3-4.4,3.1-9.5,4.8-14.1,7.3a121.1,121.1,0,0,1-27.4.3c-28.6-1.7-56.4-12.4-79.6-28.9-7.2-5.1-13.7-11.2-20.1-17.1-11.4-11.2-20.3-24.5-28-38.4a156.2,156.2,0,0,1-12.4-31,212.5,212.5,0,0,0,73.5,23.6c5.5.5,11.8,2,16.7-1.7,7-4.6,7.8-15.7,1.4-21.2-4.5-4.5-11.4-3.6-17.2-4.6a183.2,183.2,0,0,1-78-30.5c-.1-7.5-1.7-14.9-1.9-22.5a175.5,175.5,0,0,1,37.2-23.3c11.2-5.6,23.2-9.2,35.2-12.5,4.8-.9,10.3-1.9,13.3-6.3a13.8,13.8,0,0,0-2.1-18.9,13.6,13.6,0,0,0-11.5-2.9c-22.6,4.3-44.1,13.3-63.9,24.7a159.3,159.3,0,0,1,52.9-74.7,154.6,154.6,0,0,1,80.1-32.4c5.6-.4,11.2-1.3,16.9-1s8.7,2.2,12.8,4c17.3,9.5,26.7,29.8,25.7,49.1-.5,12.9-5.4,25.7-14.2,35.1-2.3,2.5-5.2,4.5-6.6,7.6-3.2,6.6-.5,15.2,5.7,18.9,3.8,2.3,8,4.2,11.3,7.4,15.8,13.6,22,36.8,16.2,56.6-2.7,9.4-7.4,18.6-14.9,25-2.5,2.2-5.1,4.7-5.9,8.1A13.8,13.8,0,0,0,2594,3248.4Z" fill="#511e2e"/><rect y="-10.5" width="5471.8" height="3717.17" opacity="0.72" fill="url(#linear-gradient)"/><path d="M3920.8,987.8l79.2,207.4,113.2-80.6c-.2-36.2-7.1-72.1-21.3-104.3a131.4,131.4,0,0,0-8.3-15.8c-26.1-42.4-74.1-65.1-124.8-54.5-13.8,2.9-28,8.7-41.7,12.7,0,.6-71.5-97.3-.5-112.8-4.2-.1-29.3-17.1-29.3-17.1s-45.1,95.5-23.1,129.9l.5.6c-40.4-12.2-83.2-23.3-122.8-3.7-50.9,25.2-66,84.6-72.1,137L3806,1195.2Z" fill="#511e2e"/><path d="M3907.1,1391.2l-8.1.4h-19.2l-7.8-.4a234.4,234.4,0,0,1,15.6,20.4C3886.9,1410.5,3895.4,1402,3907.1,1391.2Z" fill="#50c7f2"/><path d="M4113.2,1114.7,4000,1195.2l-79.2-207.4L3806,1195.2l-136.4-108.5-72.9-58,39.3,197.7c23.5,11.2,46.4,23.6,68.7,37q22.8,13.7,44.9,28.5c41.7,28.1,88.8,60,122.4,99.3l7.8.4H3899l8.1-.4c22.5-20.8,56.8-50.4,61.3-54.1a839.2,839.2,0,0,1,93.5-66.9l12.4-7.5q20.5-12.2,41.8-23.2l67.6-175Z" fill="#50c7f2"/><path d="M3000.1,2210.6c20.5,1.1,59,2.1,76.5,13s-5.3,103.4-8.2,135.5l6.5,7.3q31.7,34.9,65.1,67.3a547.4,547.4,0,0,1,177.8-24.8c82.3,2.1,163.8,23.4,236.9,61.2,46.9,23.9,89.8,55.1,128.5,90.6-1.2-113.1,33.4-226.3,98.1-319.2a543.9,543.9,0,0,1,73.9-85.9l4.7-151.7c1.2-38.4,1.9-78.9-16.7-112.5s-63.7-55.7-96.6-36c-48.2,28.9-25.1,103-40.5,157-12.2,42.7-54.8,74.8-99.3,74.8s-87-32.1-99.2-74.8c-11.1-38.8,1.2-79.8,3.6-120.1s-11.3-88.3-49.8-100.4-80.5,23.7-90.7,63.8.5,82.1,7.9,122.9a745,745,0,0,1-8.8,306.2c-14.4,59.9-53,129.6-114.4,124.5-67.3-5.5-89.8-92.5-90.5-160a1651.5,1651.5,0,0,1,51.9-427.4c5.8-22.6,12.1-46.4,5.8-68.8s-30.5-41.7-52.4-33.5-27,33-32.3,54.3c-10.3,41.3-28.9,83.3-64.3,107s-90.7,20.8-113.7-15c-42.3-65.8,53.6-157,16.1-225.6-27.3-50-103.2-41.2-148-4.2-45.1,208.8,16.5,408.6,130.7,581.7A93,93,0,0,1,3000.1,2210.6Z" fill="#50c7f2"/><path d="M4388.5,2031c62.1,20,122.1,48.7,173.3,89.5-12.3-88.7-1.4-180.6,30.3-264.4a532.4,532.4,0,0,1,43.9-91.4c-9.4-28.2-19.7-56.1-31.5-83.3-16-36.8-41.4-76.9-81.4-80.7-48.7-4.6-84.2,50.1-84.7,99s20.9,95.2,28.4,143.5-5.8,107.2-50.9,126c-42.5,17.7-92.2-10.5-117.6-48.9s-34.5-85-50.6-128.2-43.8-86.8-88-100.1c-52.1-15.6-109.7,19.8-132.8,69s-18,107.4-1.9,159.3c11.7,38,28.8,74,44.5,110.5C4172.7,1999.4,4285.3,1999.5,4388.5,2031Z" fill="#50c7f2"/><path d="M4614.5,1217.2c-106.9-55.1-227.6-66.1-343.7-37-53.7,13.4-105.5,33.8-154.6,59.2q-21.2,11-41.8,23.2l-12.4,7.5a839.2,839.2,0,0,0-93.5,66.9c-4.5,3.7-38.9,33.3-61.3,54.1-11.7,10.9-20.2,19.3-19.5,20.4a234.3,234.3,0,0,0-15.6-20.4c-33.6-39.4-80.8-71.3-122.4-99.3q-22-14.8-44.9-28.5c-22.3-13.3-45.2-25.8-68.7-37-40.5-19.4-82.7-35.2-126.3-46.1-116.1-29.1-236.8-18.1-343.7,37-143.6,74-275.9,207.2-323.8,364.6q-8.3,27.2-14.1,54.3c44.8-37,120.7-45.8,148,4.2,37.5,68.7-58.4,159.8-16.1,225.6,23,35.8,78.3,38.6,113.7,15s54-65.6,64.3-107c5.3-21.3,11.7-46.6,32.3-54.3s46.1,11,52.4,33.5,0,46.3-5.8,68.8a1651.5,1651.5,0,0,0-51.9,427.4c.7,67.6,23.2,154.5,90.5,160,61.4,5,100-64.6,114.4-124.5a745,745,0,0,0,8.8-306.2c-7.4-40.7-18.2-82.8-7.9-122.9s51.2-76.2,90.7-63.8,52.2,60.1,49.8,100.4-14.7,81.3-3.6,120.1c12.2,42.7,54.8,74.8,99.2,74.8s87-32.1,99.3-74.8c15.5-54-7.7-128.1,40.5-157,32.9-19.8,78.1,2.4,96.6,36s17.9,74.1,16.7,112.5l-4.7,151.7a539.6,539.6,0,0,1,157.6-103.7,520.6,520.6,0,0,1,56.8-21c-15.7-36.5-32.8-72.5-44.5-110.5-16-51.9-21.2-110.1,1.9-159.3s80.7-84.6,132.8-69c44.1,13.2,71.8,56.9,88,100.1s25.1,89.8,50.6,128.2,75.1,66.6,117.6,48.9c45.1-18.8,58.3-77.7,50.9-126s-28.9-94.6-28.4-143.5,36.1-103.7,84.7-99c40,3.8,65.3,43.9,81.4,80.7,11.9,27.3,22.1,55.1,31.5,83.3a547.2,547.2,0,0,1,123.8-142.4,477.9,477.9,0,0,1,118.9-72.9c13.2-5.8,29.3-3.2,40.5,5.6,6.2,5.1,9.9,12.5,15.8,18l.8.7C4885.9,1419.9,4755.6,1289.9,4614.5,1217.2Zm-1395.9,179-38.4-28.2,76.5-104.3,38.4,28.2ZM3367,1557.5l-91.4-91.4,33.7-33.7,91.5,91.4Zm80.8-151.7,76.5-104.3,38.4,28.2L3486.3,1434Zm57.4,255.7-32.1-35.3,95.7-87,32.1,35.3Zm417.1-5.3-87-95.7,35.3-32.1,87,95.7Zm158.1-198.9-32.1-35.3,95.7-87,32.1,35.3Zm165.4,173-38.4-28.2,76.5-104.3,38.4,28.2ZM4409,1431.6l-87-95.7,35.3-32.1,87,95.7Z" fill="#511e2e"/><rect x="3314.3" y="1430.3" width="47.6" height="129.33" transform="translate(-79.4 2798.2) rotate(-45)" fill="#50c7f2"/><rect x="3472.4" y="1576.6" width="129.3" height="47.65" transform="translate(-156.6 2795.8) rotate(-42.3)" fill="#50c7f2"/><rect x="4047.5" y="1372.4" width="129.3" height="47.65" transform="translate(130.4 3129.6) rotate(-42.3)" fill="#50c7f2"/><rect x="3872.6" y="1527.7" width="47.6" height="129.33" transform="translate(-57.7 3035.5) rotate(-42.3)" fill="#50c7f2"/><rect x="4359.3" y="1303.1" width="47.6" height="129.33" transform="translate(220 3304.5) rotate(-42.3)" fill="#50c7f2"/><rect x="4200.2" y="1540.2" width="129.3" height="47.65" transform="translate(481.7 4078.6) rotate(-53.8)" fill="#50c7f2"/><rect x="3440.6" y="1343.9" width="129.3" height="47.65" transform="translate(329.6 3385.8) rotate(-53.7)" fill="#50c7f2"/><rect x="3173" y="1306.1" width="129.3" height="47.65" transform="translate(250.7 3154.5) rotate(-53.8)" fill="#50c7f2"/></svg>