<svg id="Layer_1" data-name="Layer 1" xmlns="http://www.w3.org/2000/svg" width="1.4in" height="1.4in" viewBox="0 0 100 100"><title>cakeicon</title><path d="M50.6,72.5V84.9a1,1,0,0,1-2,0V72.5a1,1,0,0,1,2,0Zm10.5-1.7a1,1,0,0,0-1.1.9L58.4,84.1a1,1,0,0,0,.9,1.1h.1a1,1,0,0,0,1-.9L62,72A1,1,0,0,0,61.1,70.8ZM38,70.8a1,1,0,0,0-.9,1.1l1.6,12.4a1,1,0,0,0,1,.9h.1a1,1,0,0,0,.9-1.1L39.1,71.7A1,1,0,0,0,38,70.8Zm36.8-6.5L69.3,86.6a1.2,1.2,0,0,1-.5,1c-.2.1-5.5,3.5-19.2,3.5s-19-3.4-19.2-3.5a1.2,1.2,0,0,1-.5-.7L24.4,64.4A16.9,16.9,0,0,1,19,51.8a15.5,15.5,0,0,1,4.6-9.3,4.1,4.1,0,0,1-.5-2,4.2,4.2,0,0,1,2.6-3.8V36a14.6,14.6,0,0,1,.4-5.6,13.7,13.7,0,0,1,4.3-6.9l.4-.3a4.1,4.1,0,0,1,7.5-3.4l.5-.2A44.6,44.6,0,0,0,43.1,18a4.2,4.2,0,0,1,3.8-2.6h.1l1.1-1.3a6.3,6.3,0,0,0,1-3.8A1.2,1.2,0,0,1,50.9,9c3.1,1.4,7.6,3.6,10.9,7a13.7,13.7,0,0,1,3.6,8.5,4.1,4.1,0,0,1,3.5,5.9c5.2,3,10.2,7.4,11.5,12.2S80.3,58.5,74.8,64.4ZM37.4,66h0M28.2,31a12.1,12.1,0,0,0-.3,1.3l6.2-.9a.8.8,0,0,1,.3,1.6c-3,.5-5.3.8-6.6.9a11.6,11.6,0,0,0,.1,1.7l.2.7a4.2,4.2,0,0,1,3.2,3.2,67.4,67.4,0,0,0,17.9-3.3,4.2,4.2,0,0,1-.1-.5,4.1,4.1,0,0,1,7.4-2.6,39,39,0,0,0,6.2-4h0a1.2,1.2,0,0,1,0-.1,14.1,14.1,0,0,0-.6-8A28.7,28.7,0,0,1,58.5,24H58a.8.8,0,0,1-.5-1.5,26.6,26.6,0,0,0,3.8-3.3,9.1,9.1,0,0,0-1.3-1.7A30.1,30.1,0,0,0,51.5,12a8.6,8.6,0,0,1-1.4,3.5l-.7.9a4.1,4.1,0,1,1-6.6,4.3l-3.5,1.2c-2.8.9-5.5,1.8-7.7,3.5A11.2,11.2,0,0,0,28.2,31ZM21.4,51.9a12.1,12.1,0,0,0,.5,3.8,6.3,6.3,0,0,1,4,1.2c1.2.7,2.3,1.3,3.4,1a8.5,8.5,0,0,0,2.1-1c1.6-.9,3.6-2.1,5.7-.5A7.3,7.3,0,0,1,39,58.7c.8,1.3,1.3,2.1,2.6,2.1s2.3-.9,3.1-2.8a10.4,10.4,0,0,1,4.7-5.5c3.1-1.5,6.2-.9,9.2,1.8l.5.4c2.2,2,4,3.3,5.9,2.2s2-2.7,2.5-4.5.4-1.4.6-2.1a4.6,4.6,0,0,1,2.6-2.8,2.7,2.7,0,0,1,2.4.3,4.8,4.8,0,0,1,1.3,1.5c.6,1,.9,1.2,1.5,1.1s2.2-2.7,2.6-4.4a13.6,13.6,0,0,0-.5-2.8c-1.3-4.6-7.4-9.9-14.5-12.8a41.2,41.2,0,0,1-6.4,4.2,4.1,4.1,0,0,1,.2,1.2,4.1,4.1,0,0,1-7.7,2.1,67.2,67.2,0,0,1-18.5,3.4,4.2,4.2,0,0,1-4.1,3.4,4.1,4.1,0,0,1-1.9-.5A13.2,13.2,0,0,0,21.4,51.9ZM71.7,67.1a12.1,12.1,0,0,1-3.2,1.3,8.7,8.7,0,0,1-6.6-.8,10.4,10.4,0,0,1-12.3.7,9.9,9.9,0,0,1-5.6,1.7h-.7a10.1,10.1,0,0,1-6-2.4,8.7,8.7,0,0,1-6.6.8A12.2,12.2,0,0,1,27.5,67l4.6,18.7c1.4.7,6.6,2.9,17.5,2.9s16-2.2,17.4-2.9ZM41.2,31.5h.2A62.2,62.2,0,0,0,53,27.3a.8.8,0,0,0-.7-1.4A60.6,60.6,0,0,1,41,29.9a.8.8,0,0,0,.2,1.6ZM38.9,51.9a4.1,4.1,0,1,0-4.1-4.1A4.2,4.2,0,0,0,38.9,51.9Zm27.1-8.2a4.1,4.1,0,1,0-4.2-4.1A4.2,4.2,0,0,0,66.1,43.7Z" fill="#511d2e"/><path d="M50.6,72.5V84.9a1,1,0,0,1-2,0V72.5a1,1,0,0,1,2,0Z" fill="#4bc7f2"/><path d="M62,72,60.4,84.3a1,1,0,1,1-2-.3L60,71.7a1,1,0,1,1,2,.3Z" fill="#4bc7f2"/><path d="M39.1,71.7l1.6,12.3a1,1,0,0,1-2,.3L37.2,72a1,1,0,0,1,2-.3Z" fill="#4bc7f2"/></svg>