<svg id="Layer_1" data-name="Layer 1" xmlns="http://www.w3.org/2000/svg" width="1.4in" height="1.4in" viewBox="0 0 100 100"><title>candyicon</title><path d="M58.9,9.1l-.4-.7A5.1,5.1,0,0,0,53.1,6l-1.8.6s-3.1-4.3,0-4.9c-.1.1-1.3-.7-1.3-.7s-2,4.2-1,5.7h0c-1.8-.5-3.6-1-5.3-.2s-2.9,3.9-3.2,6.3a11.9,11.9,0,0,0,2.6,8.9l.9,1-.2.5a7.4,7.4,0,0,0,4.7,2.5h3.2a7.4,7.4,0,0,0,4.7-2.5l-.2-.5a12,12,0,0,1,1-1.2l1-1.5A12.5,12.5,0,0,0,58.9,9.1Z" fill="#511d2e"/><path d="M50.2,64.7v0Z" fill="#511d2e"/><polygon points="39.3 19.3 37.4 9.8 46.5 17.1 51.5 8.1 54.9 17.1 62.9 11.4 59 21.7 51.4 27.8 39.3 19.3" fill="#4bc7f2"/><path d="M94.2,36.6c-1-.9-2.6-1.4-3.4-.4s.2,2.6,1.2,3.6l4.9,5a28.8,28.8,0,0,0-.1-5.9A11.8,11.8,0,0,1,94.2,36.6Z" fill="#511d2e"/><path d="M86.4,53.4c-2.2-4.9-3.1-10.2-5.2-15.1-.7-1.6-1.8-3.3-3.5-3.5S74,36.9,74,39s.9,4.1,1.2,6.2S75,49.9,73,50.8s-4-.5-5.1-2.1-1.5-3.7-2.2-5.6-1.9-3.8-3.8-4.4-4.8.9-5.8,3a9.7,9.7,0,0,0-.1,6.9c.7,2.3,1.8,4.4,2.7,6.6A24.6,24.6,0,0,1,60,66.8a11.1,11.1,0,0,1-1.8,5.1,5.4,5.4,0,0,1-4.6,2.4,5.7,5.7,0,0,1-4.5-4,16.8,16.8,0,0,1-.6-6.3l.4-11.8a9.4,9.4,0,0,0-.7-4.9c-.8-1.5-2.8-2.4-4.2-1.6s-1.1,4.5-1.8,6.8a4.5,4.5,0,0,1-8.6,0c-.5-1.7.1-3.5.2-5.2s-.5-3.8-2.2-4.4-3.5,1-3.9,2.8,0,3.6.3,5.3a32.4,32.4,0,0,1-.4,13.3c-.6,2.6-2.3,5.6-5,5.4s-3.9-4-3.9-7a71.8,71.8,0,0,1,2.3-18.6,5.9,5.9,0,0,0,.3-3,1.9,1.9,0,0,0-2.3-1.5c-.9.3-1.2,1.4-1.4,2.4a7.6,7.6,0,0,1-2.8,4.7c-1.5,1-3.9.9-4.9-.7s2.3-6.8.7-9.8S5.9,34.7,4,36.3C1.4,48.1,6.7,59.3,14.7,68s21.2,16.6,32,24.9A6.8,6.8,0,0,0,49,94.3,5.4,5.4,0,0,0,53.3,93C65.2,84.6,78,77.3,87.5,65.9a48.8,48.8,0,0,0,3.9-5.4A21.6,21.6,0,0,1,86.4,53.4Z" fill="#4bc7f2"/><path d="M92,39.8c-1-1-2-2.5-1.2-3.6s2.5-.5,3.4.4a11.8,11.8,0,0,0,2.6,2.3,29,29,0,0,0-1-5c-2.1-6.8-7.8-12.6-14.1-15.9a21.2,21.2,0,0,0-15-1.6,32.4,32.4,0,0,0-9.1,3.9,36.5,36.5,0,0,0-4.1,2.9,40.4,40.4,0,0,0-3.5,3.2c-1.4-2.1-3.9-3.8-6-5.2a33.3,33.3,0,0,0-10.4-4.9,21.2,21.2,0,0,0-15,1.6c-6.2,3.2-12,9-14.1,15.9q-.4,1.2-.6,2.4c1.9-1.6,5.3-2,6.4.2s-2.5,7-.7,9.8,3.4,1.7,4.9.7a7.6,7.6,0,0,0,2.8-4.7c.2-.9.5-2,1.4-2.4a1.9,1.9,0,0,1,2.3,1.5,5.9,5.9,0,0,1-.3,3,71.8,71.8,0,0,0-2.3,18.6c0,2.9,1,6.7,3.9,7s4.3-2.8,5-5.4a32.4,32.4,0,0,0,.4-13.3c-.3-1.8-.8-3.6-.3-5.3s2.2-3.3,3.9-2.8,2.3,2.6,2.2,4.4-.6,3.5-.2,5.2a4.5,4.5,0,0,0,8.6,0c.7-2.4-.3-5.6,1.8-6.8s3.4.1,4.2,1.6a9.4,9.4,0,0,1,.7,4.9l-.4,11.8a16.8,16.8,0,0,0,.6,6.3,5.7,5.7,0,0,0,4.5,4,5.4,5.4,0,0,0,4.6-2.4A11.1,11.1,0,0,0,60,66.8a24.6,24.6,0,0,0-1.3-11.6c-.8-2.2-2-4.3-2.7-6.6a9.7,9.7,0,0,1,.1-6.9c1-2.1,3.5-3.7,5.8-3s3.1,2.5,3.8,4.4,1.1,3.9,2.2,5.6,3.3,2.9,5.1,2.1,2.5-3.4,2.2-5.5S74,41.2,74,39s1.6-4.5,3.7-4.3,2.8,1.9,3.5,3.5c2.1,4.9,3.1,10.2,5.2,15.1a21.6,21.6,0,0,0,5,7.1,35.6,35.6,0,0,0,5.5-15.7ZM50.2,64.7h0v0Z" fill="#511d2e"/><rect x="25.1" y="27.3" width="2.1" height="5.63" transform="translate(-13.6 27.3) rotate(-45)" fill="#4bc7f2"/><rect x="33.8" y="31.9" width="2.1" height="5.63" transform="translate(37.1 -14.4) rotate(47.7)" fill="#4bc7f2"/><rect x="58.8" y="23" width="2.1" height="5.63" transform="translate(38.7 -35.8) rotate(47.7)" fill="#4bc7f2"/><rect x="49.4" y="31.6" width="2.1" height="5.63" transform="translate(-10 42.9) rotate(-42.3)" fill="#4bc7f2"/><rect x="70.6" y="21.8" width="2.1" height="5.63" transform="translate(2.1 54.6) rotate(-42.3)" fill="#4bc7f2"/><rect x="65.4" y="30.3" width="2.1" height="5.63" transform="translate(32.5 -32.9) rotate(36.3)" fill="#4bc7f2"/><rect x="32.4" y="21.8" width="2.1" height="5.63" transform="translate(21 -15) rotate(36.3)" fill="#4bc7f2"/><rect x="20.7" y="20.1" width="2.1" height="5.63" transform="translate(17.8 -8.4) rotate(36.3)" fill="#4bc7f2"/><path d="M89.7,30l-.9,26.1S106.4,42.9,89.7,30Z" fill="#511d2e"/></svg>