<svg id="Layer_1" data-name="Layer 1" xmlns="http://www.w3.org/2000/svg" width="1.4in" height="1.4in" viewBox="0 0 100 100"><title>candyicon</title><g id="candyicon"><path d="M2.2,63.5a16.9,16.9,0,0,1,1.1-2l.3-.3a22.9,22.9,0,0,1,9.1-5.6,22.3,22.3,0,0,1,9.2-1,22.9,22.9,0,0,1,7.9,2.3,22.4,22.4,0,0,1-.1-12.2,22.9,22.9,0,0,1,18-16.4,22.3,22.3,0,0,1,9.5.3l2.4.8A21.8,21.8,0,0,1,58,18.7,22.7,22.7,0,0,1,62,7.6a19.6,19.6,0,0,1,4.1-4.4,10.6,10.6,0,0,1,3.3-1,9.6,9.6,0,0,1,8,3A9.8,9.8,0,0,1,80,10.8a9.8,9.8,0,0,1,5.3,1.1,10,10,0,0,1,5.1,6.8c.1.5.1.9.2,1.4a9.9,9.9,0,0,1,7.4,5.7,8.9,8.9,0,0,1-.4,8.4,2.3,2.3,0,0,1-.4.9l-1.6,1.6a36.1,36.1,0,0,1-3.1,2.4,22.7,22.7,0,0,1-9.5,3.4,22.2,22.2,0,0,1-10.6-1.2A22.3,22.3,0,0,1,73.9,52a22.8,22.8,0,0,1-4,11,25.4,25.4,0,0,1-2.4,2.8,19.1,19.1,0,0,1-2.5,2.2,22.4,22.4,0,0,1-11.3,4.6,22.1,22.1,0,0,1-5.8-.1,21.7,21.7,0,0,1-6.9-2.2A22.4,22.4,0,0,1,35.9,92l-1,1.1c-.6.6-1.3,1.1-2,1.7a6,6,0,0,1-2.3,1.4,8.8,8.8,0,0,1-5.3.2,9.9,9.9,0,0,1-7.2-8.2,9.4,9.4,0,0,1-4.3-1.3,8.7,8.7,0,0,1-2.3-2,8.7,8.7,0,0,1-2.1-3.6,9.4,9.4,0,0,1-.2-4.7,9.8,9.8,0,0,1-5.4-3.3,9.7,9.7,0,0,1-2.2-6.6,8.7,8.7,0,0,1,.7-3.1m3.1,1.1a5.4,5.4,0,0,0-.4,3,6.7,6.7,0,0,0,6.2,5.8,1.6,1.6,0,0,1,1.4,1.3l.2.8c.1.6-.2,1.1-.3,1.6a6.4,6.4,0,0,0,.8,4.3,6.7,6.7,0,0,0,5.6,3.3c.6,0,1.2-.3,1.8,0a1.6,1.6,0,0,1,1.1,1.6,2,2,0,0,1-.4,1,9.4,9.4,0,0,0,.6,1.9,6.6,6.6,0,0,0,2.4,2.9A5.8,5.8,0,0,0,28,93.3a4.7,4.7,0,0,0,2.4-.7L32,91.3A13,13,0,0,0,33.4,90a19.1,19.1,0,0,0,3-22.2,25.8,25.8,0,0,1-6.3,10,1.6,1.6,0,0,1-2.2-2.4A32,32,0,0,0,30,72.8a22.9,22.9,0,0,0,3.9-8.2l-.6-.8H30.7a22,22,0,0,0-9.5,3,3.6,3.6,0,0,1-1.5.7,1.6,1.6,0,0,1-1.7-1.2,1.7,1.7,0,0,1,.8-1.9,25.9,25.9,0,0,1,10.7-3.8l-2.1-1.1a19.1,19.1,0,0,0-13.2-.9,19.3,19.3,0,0,0-7.6,4.2,5.4,5.4,0,0,0-1.4,1.9M64.8,9.3a19.4,19.4,0,0,0-3.3,8,19,19,0,0,0,1.3,11,25.6,25.6,0,0,1,3.7-7.5,1.7,1.7,0,0,1,2.1-.5,1.6,1.6,0,0,1,.7,2c-.3.6-.7,1-1,1.5a22.1,22.1,0,0,0-3.2,8.5l2,1.8a22.5,22.5,0,0,0,10.4-4.6,1.7,1.7,0,0,1,1.8,0,1.6,1.6,0,0,1,.7,2c-.2.6-.8.9-1.3,1.3a26.3,26.3,0,0,1-8.5,4,19.3,19.3,0,0,0,6.9,2.5,19.1,19.1,0,0,0,4.4.2A19.1,19.1,0,0,0,94.6,33a9.1,9.1,0,0,0,.8-2.7A6.7,6.7,0,0,0,90,23.4l-1.3-.2a1.6,1.6,0,0,1-1.5-1.2,13.9,13.9,0,0,1,0-1.7A6.8,6.8,0,0,0,86,17a6.4,6.4,0,0,0-7-2.6,1.8,1.8,0,0,1-2.2-1c-.2-.5,0-1.1-.1-1.7a6.7,6.7,0,0,0-5.7-6.1,5.8,5.8,0,0,0-3.3.6,20.3,20.3,0,0,0-2.9,3.2M37.9,37a19.3,19.3,0,0,0-5,18.5,18.9,18.9,0,0,0,6.4,10,22.4,22.4,0,0,0,3.2,2.1,19.3,19.3,0,0,0,11,2A19,19,0,0,0,63,65.6a15.9,15.9,0,0,0,2.2-1.9,21.5,21.5,0,0,0,2.2-2.6,19.4,19.4,0,0,0,3.3-11.5A19,19,0,0,0,67.1,39a4.9,4.9,0,0,0-.9-1,20.7,20.7,0,0,1-2.8-2.6A9.7,9.7,0,0,0,61,33.7a19.3,19.3,0,0,0-11.5-2.3,20.7,20.7,0,0,0-5.1,1.3A19.2,19.2,0,0,0,37.9,37Z" fill="#511d2e"/><path d="M69.4,8.8a1.7,1.7,0,0,1,2.3-.7,1.6,1.6,0,0,1,.6,2.3,1.7,1.7,0,0,1-2.3.5A1.6,1.6,0,0,1,69.4,8.8Z" fill="#4bc7f2"/><path d="M6.8,67.5A1.7,1.7,0,0,1,9.2,67a1.6,1.6,0,0,1,.2,2.4,1.7,1.7,0,0,1-2.3.2A1.6,1.6,0,0,1,6.8,67.5Z" fill="#4bc7f2"/><path d="M80.4,16.8a1.7,1.7,0,0,1,2.2-.4,1.8,1.8,0,0,1,.1,2.8,1.7,1.7,0,0,1-2.1,0A1.8,1.8,0,0,1,80.4,16.8Z" fill="#4bc7f2"/><path d="M15,79a1.7,1.7,0,0,1,2.4-.5A1.7,1.7,0,1,1,15,79Z" fill="#4bc7f2"/><path d="M53,47.2a1.7,1.7,0,0,1,2.2-.2,1.6,1.6,0,0,1,.4,2.2l-.9,1.2a14.2,14.2,0,0,0-1.3,2,1.7,1.7,0,0,1-2.2.7,1.9,1.9,0,0,1-.8-.8A23.5,23.5,0,0,0,48.6,50a1.6,1.6,0,0,1,.1-2.2,1.7,1.7,0,0,1,2.1-.1,7,7,0,0,1,1,1Z" fill="#4bc7f2"/><path d="M24.8,88.2a1.7,1.7,0,0,1,2.3-.7,1.6,1.6,0,0,1,.5,2.3,1.7,1.7,0,0,1-2.3.5A1.6,1.6,0,0,1,24.8,88.2Z" fill="#4bc7f2"/><path d="M89.8,27.8a1.7,1.7,0,0,1,2.5-.4,1.7,1.7,0,1,1-2.5.4Z" fill="#4bc7f2"/></g></svg>