<svg id="Layer_1" data-name="Layer 1" xmlns="http://www.w3.org/2000/svg" width="1.6in" height="1.6in" viewBox="0 0 112.7 112.7"><title>logo</title><path d="M59,15.9l-.3-.6a4.4,4.4,0,0,0-4.7-2l-1.5.5s-2.7-3.6,0-4.3c-.1.1-1.1-.6-1.1-.6s-1.7,3.6-.9,4.9h0c-1.5-.4-3.1-.9-4.6-.1S43.4,17,43.2,19a10.1,10.1,0,0,0,2.2,7.7l.7.9L46,28A6.4,6.4,0,0,0,50,30.1h2.7A6.4,6.4,0,0,0,56.7,28l-.2-.4.9-1,.9-1.3A10.8,10.8,0,0,0,59,15.9Z" fill="#511d2e"/><rect x="76.7" y="35.7" width="14" height="13.98" rx="6.6" ry="6.6" fill="#511d2e"/><polygon points="42.1 24.7 40.5 16.5 48.3 22.8 52.7 15.1 55.6 22.8 62.5 17.9 59.1 26.8 52.6 32 42.1 24.7" fill="#4bc7f2"/><path d="M82.7,54c-1.8-4.2-2.7-8.7-4.5-13-.6-1.4-1.5-2.9-3-3s-3.1,1.9-3.2,3.7.7,3.5,1.1,5.3-.2,4.1-1.9,4.7-3.4-.4-4.4-1.8a22.6,22.6,0,0,1-1.9-4.8c-.6-1.6-1.6-3.2-3.3-3.7A4.4,4.4,0,0,0,56.6,44a8.3,8.3,0,0,0-.1,6c.6,1.9,1.6,3.7,2.2,5.7a21.1,21.1,0,0,1,1.2,10A9.6,9.6,0,0,1,58.4,70a4.6,4.6,0,0,1-3.9,2,4.9,4.9,0,0,1-3.9-3.4,14.4,14.4,0,0,1-.5-5.4L50.3,53a8.1,8.1,0,0,0-.6-4.2,2.8,2.8,0,0,0-3.6-1.4c-1.3.7-1,3.8-1.5,5.9a3.8,3.8,0,0,1-7.5,0c-.4-1.5,0-3,.1-4.5s-.4-3.3-1.8-3.7-3,.9-3.4,2.3a10.9,10.9,0,0,0,.3,4.6A27.8,27.8,0,0,1,32,63.5c-.5,2.2-2,4.8-4.3,4.7s-3.3-3.4-3.4-6a61.7,61.7,0,0,1,1.9-16,5,5,0,0,0,.2-2.6,1.6,1.6,0,0,0-1.9-1.3h-.1c-.7.3-1,1.3-1.2,2a6.5,6.5,0,0,1-2.5,3.9,3.1,3.1,0,0,1-4.3-.5c-1.6-2.5,2-5.9.6-8.4s-3.8-1.5-5.5-.1C9.5,49.4,14.1,59,20.9,66.6S39,80.9,48.3,87.9a5.9,5.9,0,0,0,1.9,1.2A4.7,4.7,0,0,0,54,88c10.5-7.3,21.4-13.5,29.5-23.3a41.9,41.9,0,0,0,3.4-4.7A18.6,18.6,0,0,1,82.7,54Z" fill="#4bc7f2"/><path d="M91.5,41.5a25,25,0,0,0-.9-4.3c-1.8-5.9-6.7-10.9-12.1-13.7a18.1,18.1,0,0,0-12.8-1.4A27.8,27.8,0,0,0,58,25.5,31.4,31.4,0,0,0,54.5,28a34.7,34.7,0,0,0-3.1,2.9,18.8,18.8,0,0,0-5.1-4.5,28.6,28.6,0,0,0-9-4.2,18.1,18.1,0,0,0-12.8,1.4c-5.3,2.8-10.3,7.8-12.1,13.7l-.5,2c1.7-1.4,4.5-1.7,5.5.1s-2.1,6-.6,8.4a3.1,3.1,0,0,0,4.3.5,6.5,6.5,0,0,0,2.5-3.9c.2-.7.4-1.7,1.2-2a1.6,1.6,0,0,1,1.8,1.3,5,5,0,0,1-.2,2.6,61.7,61.7,0,0,0-1.9,16c0,2.6.9,5.8,3.4,6s3.7-2.5,4.3-4.7a27.8,27.8,0,0,0,.3-11.4,10.9,10.9,0,0,1-.3-4.6c.4-1.5,1.9-2.9,3.4-2.3s1.9,2.2,1.8,3.7-.5,3-.1,4.5a3.8,3.8,0,0,0,7.5,0c.5-2-.3-4.8,1.5-5.9s2.9.1,3.6,1.4a8.1,8.1,0,0,1,.6,4.2l-.3,10.1a14.4,14.4,0,0,0,.5,5.4A4.9,4.9,0,0,0,54.5,72a4.6,4.6,0,0,0,3.9-2,9.6,9.6,0,0,0,1.5-4.4,21.1,21.1,0,0,0-1.2-10c-.7-1.9-1.7-3.7-2.2-5.7a8.3,8.3,0,0,1,.1-6,4.4,4.4,0,0,1,4.9-2.6,6.1,6.1,0,0,1,3.3,3.7,22.6,22.6,0,0,0,1.9,4.8c1,1.4,2.8,2.5,4.4,1.8s2.1-2.9,1.9-4.7S72,43.5,72,41.7s1.4-3.8,3.2-3.7,2.5,1.6,3,3c1.8,4.2,2.7,8.7,4.5,13a18.6,18.6,0,0,0,4.3,6.2,30.5,30.5,0,0,0,4.7-13.5l-4.3-4.4a3.5,3.5,0,0,1-1.2-2.3,3.7,3.7,0,0,0,1.2,2.3l4.3,4.3A24.7,24.7,0,0,0,91.5,41.5Zm-5.1-2.3c.7-1,2.1-.4,3,.3C88.5,38.7,87.1,38.3,86.4,39.2Z" fill="#511d2e"/><rect x="30" y="31.6" width="1.8" height="4.83" transform="translate(-15 31.8) rotate(-45)" fill="#4bc7f2"/><rect x="35.9" y="37.1" width="4.8" height="1.81" transform="translate(-15.6 35.7) rotate(-42.3)" fill="#4bc7f2"/><rect x="57.4" y="29.3" width="4.8" height="1.81" transform="translate(-4.8 48.1) rotate(-42.3)" fill="#4bc7f2"/><rect x="50.9" y="35.1" width="1.8" height="4.83" transform="translate(-11.8 44.6) rotate(-42.3)" fill="#4bc7f2"/><rect x="68.9" y="26.7" width="1.8" height="4.83" transform="translate(-1.4 54.6) rotate(-42.3)" fill="#4bc7f2"/><rect x="63.1" y="35.7" width="4.8" height="1.81" transform="matrix(0.59, -0.81, 0.81, 0.59, -2.77, 67.71)" fill="#4bc7f2"/><rect x="34.8" y="28.3" width="4.8" height="1.81" transform="translate(-8.4 41.9) rotate(-53.7)" fill="#4bc7f2"/><rect x="24.7" y="26.9" width="4.8" height="1.81" transform="translate(-11.3 33.2) rotate(-53.7)" fill="#4bc7f2"/></svg>