<svg id="Layer_1" data-name="Layer 1" xmlns="http://www.w3.org/2000/svg" width="5.8in" height="5.5in" viewBox="0 0 418.8 399.4"><title>logo2</title><path d="M5.8,398.3l8.9-41.7,9.7-1.3-3.1,14.5h.4a7.4,7.4,0,0,0,3.7-1,10.7,10.7,0,0,0,3-2.5,12.6,12.6,0,0,0,2-3.4,10.1,10.1,0,0,0,.8-3.7,7.4,7.4,0,0,0-.5-2.6,6.2,6.2,0,0,0-1.5-2.3,7.4,7.4,0,0,0-2.7-1.6,11.8,11.8,0,0,0-4-.6,18.1,18.1,0,0,0-3.9.4,16.8,16.8,0,0,0-3.8,1.3,17.3,17.3,0,0,0-3.4,2.2,13.7,13.7,0,0,0-2.8,3.1,15.6,15.6,0,0,0-1.9,4,16.6,16.6,0,0,0-.7,4.9,11.6,11.6,0,0,0,.1,2,7.4,7.4,0,0,0,.3,1.2l.3.7a.9.9,0,0,1,.1.4,8.6,8.6,0,0,1-5.2-1.3Q0,369.9,0,366.5a11.5,11.5,0,0,1,.9-4.4A15.9,15.9,0,0,1,3.4,358a21.2,21.2,0,0,1,3.8-3.6,27.2,27.2,0,0,1,4.9-2.8,29,29,0,0,1,5.6-1.8,28,28,0,0,1,6.1-.7,19.7,19.7,0,0,1,6.2.9,13.2,13.2,0,0,1,4.3,2.3,9.2,9.2,0,0,1,2.5,3.3,9.6,9.6,0,0,1,.8,3.9,10.8,10.8,0,0,1-.4,2.9,11,11,0,0,1-1.2,2.8,13.5,13.5,0,0,1-4.9,4.6,9.2,9.2,0,0,1,3.6,1.4,8.7,8.7,0,0,1,2.4,2.4,10,10,0,0,1,1.3,3.2,15.3,15.3,0,0,1,.4,3.6,24.3,24.3,0,0,1-.3,3.6,26.3,26.3,0,0,1-1,4.1,24.3,24.3,0,0,1-1.8,4.1,14.9,14.9,0,0,1-2.7,3.6,12.8,12.8,0,0,1-3.7,2.5,11.8,11.8,0,0,1-4.9,1l-2.2-.2a6.2,6.2,0,0,1-2.1-.7,4.6,4.6,0,0,1-1.6-1.5,4.4,4.4,0,0,1-.6-2.4,8.7,8.7,0,0,1,.2-1.8,12.2,12.2,0,0,1,.6-2,8.5,8.5,0,0,0,2.3,1.9,4.7,4.7,0,0,0,2.1.5,4.3,4.3,0,0,0,3-1.1,8.5,8.5,0,0,0,2-2.9,15.6,15.6,0,0,0,1.1-3.8,24.8,24.8,0,0,0,.3-3.9,16.4,16.4,0,0,0-.3-3.2,7.8,7.8,0,0,0-1-2.7,5.3,5.3,0,0,0-1.9-1.8,6,6,0,0,0-3-.7H22.4l-1.8.2-5.4,25.1Z" fill="#511d2e"/><path d="M68.7,386.6a37.5,37.5,0,0,1-3.2,4.5,23.7,23.7,0,0,1-4,3.9,19.8,19.8,0,0,1-4.9,2.7,16.4,16.4,0,0,1-5.9,1,14.1,14.1,0,0,1-4.2-.6,8.4,8.4,0,0,1-3.2-1.8,8.1,8.1,0,0,1-2.1-3.2,13.9,13.9,0,0,1-.7-4.8,28.7,28.7,0,0,1,.4-4.4,33.4,33.4,0,0,1,1.2-5.1,28.7,28.7,0,0,1,2.2-5.1,20,20,0,0,1,3.3-4.5,15.4,15.4,0,0,1,4.6-3.2,14.2,14.2,0,0,1,6-1.2,10.3,10.3,0,0,1,3.6.5,5.8,5.8,0,0,1,2.2,1.4,4.6,4.6,0,0,1,1.1,2,9.1,9.1,0,0,1,.3,2.4,11.5,11.5,0,0,1-1.2,5.3,14.1,14.1,0,0,1-3.3,4.3,17.3,17.3,0,0,1-4.8,2.9,17.8,17.8,0,0,1-5.7,1.3v1.4q0,.7,0,1.2a10.2,10.2,0,0,0,.3,2.7,3.9,3.9,0,0,0,.9,1.7,3.2,3.2,0,0,0,1.5.8l2.1.2a11.5,11.5,0,0,0,3.5-.5,12.4,12.4,0,0,0,3-1.4,16.7,16.7,0,0,0,2.6-2.1l2.5-2.6Zm-17.9-4.6a8.8,8.8,0,0,0,3.6-1.1,10.9,10.9,0,0,0,3-2.4,12,12,0,0,0,2.1-3.4,10.3,10.3,0,0,0,.8-4,4.6,4.6,0,0,0-.4-2,1.3,1.3,0,0,0-1.3-.7,3.5,3.5,0,0,0-2.4,1.2,13.8,13.8,0,0,0-2.3,3.1,26.8,26.8,0,0,0-1.9,4.3A38.5,38.5,0,0,0,50.8,381.9Z" fill="#511d2e"/><path d="M103.7,386.6a29.6,29.6,0,0,1-2,4.6,19.6,19.6,0,0,1-2.3,3.3,12.7,12.7,0,0,1-2.4,2.2,11.8,11.8,0,0,1-2.4,1.3l-2.2.6-1.9.2a6.3,6.3,0,0,1-4.4-1.5,7,7,0,0,1-2-4.5l-1.8,2.2a13.1,13.1,0,0,1-2.1,1.9,10.9,10.9,0,0,1-2.6,1.4,9.4,9.4,0,0,1-3.2.5,9.9,9.9,0,0,1-3.3-.5,7.1,7.1,0,0,1-2.8-1.8,9.1,9.1,0,0,1-2-3.3,14.5,14.5,0,0,1-.7-4.9,28,28,0,0,1,.4-4.8,30.4,30.4,0,0,1,1.4-5.1,29.1,29.1,0,0,1,2.3-4.9,19.7,19.7,0,0,1,3.3-4.2,14.9,14.9,0,0,1,4.2-2.9,12.5,12.5,0,0,1,5.2-1.1,6.8,6.8,0,0,1,4.1,1,2.9,2.9,0,0,1,1.3,2.4v.5l.7-3.5h9.4l-4.7,22.3a6.6,6.6,0,0,0-.2,1.1,8.6,8.6,0,0,0-.1,1q0,2.8,2.7,2.8a3.4,3.4,0,0,0,1.8-.5,5.8,5.8,0,0,0,1.5-1.3,9,9,0,0,0,1.2-2,17.2,17.2,0,0,0,.9-2.4ZM87.1,371.8a2.6,2.6,0,0,0-.1-.7,2.6,2.6,0,0,0-.4-.8l-.8-.7a2.8,2.8,0,0,0-1.3-.3,4.4,4.4,0,0,0-2.6.9,9.7,9.7,0,0,0-2.3,2.4,19,19,0,0,0-1.8,3.4,32.8,32.8,0,0,0-2.2,7.8,23.8,23.8,0,0,0-.3,3.5,9.4,9.4,0,0,0,.4,2.9,3.9,3.9,0,0,0,.8,1.5,2,2,0,0,0,1.1.6h1a3.8,3.8,0,0,0,1.6-.4,5.6,5.6,0,0,0,1.6-1.1,8,8,0,0,0,1.4-1.8,9,9,0,0,0,.9-2.5Z" fill="#511d2e"/><path d="M121.6,365.5H131l-4.7,22.3a6.6,6.6,0,0,0-.2,1.1,8.6,8.6,0,0,0-.1,1,2.3,2.3,0,0,0,.7,1.9,3.2,3.2,0,0,0,2,.5h2.2a8,8,0,0,1-.8,3.1,6.6,6.6,0,0,1-1.6,2.1,6.3,6.3,0,0,1-2.3,1.2,8.9,8.9,0,0,1-2.6.4,6.1,6.1,0,0,1-4.4-1.6,7.4,7.4,0,0,1-2-4.6,15.1,15.1,0,0,1-2.5,3.2,12.1,12.1,0,0,1-2.6,1.9,8.3,8.3,0,0,1-2.5.9l-2.2.2a8.3,8.3,0,0,1-2.8-.4,5.7,5.7,0,0,1-2.2-1.4,6.8,6.8,0,0,1-1.5-2.4,10.3,10.3,0,0,1-.5-3.6,16.8,16.8,0,0,1,.1-2q.1-1.1.4-2.3l4.5-21h9.4l-4.7,22.3a7.4,7.4,0,0,0-.2,1.7,5.9,5.9,0,0,0,.1,1.1,3,3,0,0,0,.3.9,1.8,1.8,0,0,0,.6.6l.9.2a3.6,3.6,0,0,0,1.8-.4,5.1,5.1,0,0,0,1.5-1.2,8,8,0,0,0,1.2-1.8,18.5,18.5,0,0,0,.9-2.3Z" fill="#511d2e"/><path d="M138.2,353.6a5,5,0,0,1,.3-1.8,4.5,4.5,0,0,1,.9-1.5,4,4,0,0,1,1.4-.9,4.5,4.5,0,0,1,1.8-.3,4.9,4.9,0,0,1,1.8.3,4.4,4.4,0,0,1,1.5.9,4.1,4.1,0,0,1,1,1.5,5,5,0,0,1,.3,1.8,7.6,7.6,0,0,1-.5,2.7,13.1,13.1,0,0,1-1.6,2.9,20.3,20.3,0,0,1-2.4,2.9,21,21,0,0,1-3.3,2.6l-1-1a16.5,16.5,0,0,0,2.2-2.7,4.2,4.2,0,0,0,.8-2,1.4,1.4,0,0,0-.5-1.1l-1.1-.9a6.1,6.1,0,0,1-1.1-1.3A3.6,3.6,0,0,1,138.2,353.6Z" fill="#511d2e"/><path d="M163.7,363.5q.2,4.3.4,7.4t.3,5.4l.3,3.9.2,2.8q.1,1.2.2,2.2t0,2.1a11.5,11.5,0,0,1-.6,3.8,9.8,9.8,0,0,1-1.6,2.9,10.3,10.3,0,0,1-2.3,2.1,13.7,13.7,0,0,1-2.8,1.4,15.4,15.4,0,0,1-3,.8l-2.9.2a11.1,11.1,0,0,1-4.3-.8,9,9,0,0,1-3-2,7.6,7.6,0,0,1-1.7-2.7,8.5,8.5,0,0,1-.6-3,7.1,7.1,0,0,1,.3-2.1,7.5,7.5,0,0,1,.8-1.7,6.2,6.2,0,0,1,1.1-1.3l1.3-.9a79.8,79.8,0,0,0,4.6-9.8q1.9-4.8,3.4-9.7Zm-17.8,25.4a5.4,5.4,0,0,0,.9,3.4,3.7,3.7,0,0,0,3.1,1.1,7.4,7.4,0,0,0,2.1-.3,4.7,4.7,0,0,0,1.8-1,5.1,5.1,0,0,0,1.3-1.9,7.5,7.5,0,0,0,.5-2.9q0-.8,0-1.6v-1.7q-.1-.9-.2-2l-.3-2.5-.3-3.3-.4-4.4a55.5,55.5,0,0,1-2.3,6.2q-1.3,3-3,6.2a3.5,3.5,0,0,1,1.1.9,2.1,2.1,0,0,1,.4,1.4,3.7,3.7,0,0,1-.2,1.2,3.2,3.2,0,0,1-.6,1,2.9,2.9,0,0,1-.9.7,2.6,2.6,0,0,1-1.2.3l-1-.2A1.3,1.3,0,0,1,145.9,388.9Z" fill="#511d2e"/><path d="M186,398.3l8.9-41.7,9.7-1.3-3.1,14.5h.4a7.4,7.4,0,0,0,3.7-1,10.7,10.7,0,0,0,3-2.5,12.6,12.6,0,0,0,2-3.4,10.1,10.1,0,0,0,.8-3.7,7.4,7.4,0,0,0-.5-2.6,6.2,6.2,0,0,0-1.5-2.3,7.4,7.4,0,0,0-2.7-1.6,11.8,11.8,0,0,0-4-.6,18.1,18.1,0,0,0-3.9.4,16.8,16.8,0,0,0-3.8,1.3,17.3,17.3,0,0,0-3.4,2.2,13.7,13.7,0,0,0-2.8,3.1,15.6,15.6,0,0,0-1.9,4,16.6,16.6,0,0,0-.7,4.9,11.6,11.6,0,0,0,.1,2,7.4,7.4,0,0,0,.3,1.2l.3.7a.9.9,0,0,1,.1.4,8.6,8.6,0,0,1-5.2-1.3q-1.8-1.3-1.8-4.7a11.5,11.5,0,0,1,.9-4.4,15.9,15.9,0,0,1,2.5-4.1,21.2,21.2,0,0,1,3.8-3.6,27.2,27.2,0,0,1,4.9-2.8,29,29,0,0,1,5.6-1.8,28,28,0,0,1,6.1-.7,19.7,19.7,0,0,1,6.2.9,13.2,13.2,0,0,1,4.3,2.3,9.2,9.2,0,0,1,2.5,3.3,9.6,9.6,0,0,1,.8,3.9,10.8,10.8,0,0,1-.4,2.9,11,11,0,0,1-1.2,2.8,13.5,13.5,0,0,1-4.9,4.6,9.2,9.2,0,0,1,3.6,1.4,8.7,8.7,0,0,1,2.4,2.4,10,10,0,0,1,1.3,3.2,15.3,15.3,0,0,1,.4,3.6,24.3,24.3,0,0,1-.3,3.6,26.3,26.3,0,0,1-1,4.1,24.3,24.3,0,0,1-1.8,4.1,14.9,14.9,0,0,1-2.7,3.6,12.8,12.8,0,0,1-3.7,2.5,11.8,11.8,0,0,1-4.9,1l-2.2-.2a6.2,6.2,0,0,1-2.1-.7A4.6,4.6,0,0,1,199,397a4.4,4.4,0,0,1-.6-2.4,8.7,8.7,0,0,1,.2-1.8,12.2,12.2,0,0,1,.6-2,8.5,8.5,0,0,0,2.3,1.9,4.7,4.7,0,0,0,2.1.5,4.3,4.3,0,0,0,3-1.1,8.5,8.5,0,0,0,2-2.9,15.6,15.6,0,0,0,1.1-3.8,24.8,24.8,0,0,0,.3-3.9,16.4,16.4,0,0,0-.3-3.2,7.8,7.8,0,0,0-1-2.7,5.3,5.3,0,0,0-1.9-1.8,6,6,0,0,0-3-.7h-1.2l-1.8.2-5.4,25.1Z" fill="#511d2e"/><path d="M258.4,373.4a16.1,16.1,0,0,1-5,3.4,26,26,0,0,1-6.7,2A30.9,30.9,0,0,1,245,387a21.9,21.9,0,0,1-3.4,6.2,14.9,14.9,0,0,1-4.8,3.9,12.3,12.3,0,0,1-5.7,1.4,15.1,15.1,0,0,1-4.2-.6,8.5,8.5,0,0,1-3.3-1.8,8.3,8.3,0,0,1-2.2-3.2,13,13,0,0,1-.8-4.8,27.4,27.4,0,0,1,.4-4.4,31.5,31.5,0,0,1,1.3-5,30.2,30.2,0,0,1,2.3-5.1,19.5,19.5,0,0,1,3.4-4.4,16.2,16.2,0,0,1,4.6-3.2,14.2,14.2,0,0,1,6-1.2q8.4,0,8.4,10.5h.7a10.1,10.1,0,0,0,2.5-.3l2.7-.9,2.6-1.3,2.3-1.5ZM241.3,379a2,2,0,0,1-1.4-1,3.9,3.9,0,0,1-.4-1.7,4.1,4.1,0,0,1,.6-2.3,3.4,3.4,0,0,1,1.5-1.3,11.7,11.7,0,0,0-.2-1.8,3.8,3.8,0,0,0-.4-1.2,1.6,1.6,0,0,0-.7-.7l-1.1-.2a3.5,3.5,0,0,0-2.3.9,10.8,10.8,0,0,0-2.1,2.4,22.2,22.2,0,0,0-1.8,3.4,34.1,34.1,0,0,0-1.4,4,36,36,0,0,0-.9,4.1,23.2,23.2,0,0,0-.3,3.6,16.2,16.2,0,0,0,.2,2.7,4.1,4.1,0,0,0,.6,1.6,2.1,2.1,0,0,0,1,.8l1.6.2a3.6,3.6,0,0,0,2.4-1.1,10.9,10.9,0,0,0,2.2-2.9,22.7,22.7,0,0,0,1.8-4.3A32.1,32.1,0,0,0,241.3,379Z" fill="#511d2e"/><path d="M247.8,398.3l6.9-32.8h9.4l-.7,3.4a12.1,12.1,0,0,1,2.1-1.9,9.8,9.8,0,0,1,2-1.1l1.9-.5h1.6a9.8,9.8,0,0,1,2.9.4,5.8,5.8,0,0,1,3.8,3.6,9.3,9.3,0,0,1,.5,3.4,18.3,18.3,0,0,1-.2,2.8q-.2,1.5-.6,3.1l-.8,3.2-.8,3q-.4,1.4-.6,2.7a11.4,11.4,0,0,0-.2,2.2,3.3,3.3,0,0,0,.6,2,2.4,2.4,0,0,0,2.1.8,3.9,3.9,0,0,0,2.2-.4,8.8,8.8,0,0,1-.9,3.1,7.2,7.2,0,0,1-1.6,2.1,6.1,6.1,0,0,1-2.2,1.2,8.3,8.3,0,0,1-2.5.4,7.2,7.2,0,0,1-3.2-.6,5.5,5.5,0,0,1-2.1-1.7,6.5,6.5,0,0,1-1.1-2.4,11.6,11.6,0,0,1-.3-2.7,19.4,19.4,0,0,1,.5-3.9l1-4.6,1-4.5a18.4,18.4,0,0,0,.5-3.7q0-3.4-2.4-3.4a3.1,3.1,0,0,0-1.7.5,5.5,5.5,0,0,0-1.4,1.3,9.7,9.7,0,0,0-1.2,1.9,18.5,18.5,0,0,0-.9,2.4l-4.5,21Z" fill="#511d2e"/><path d="M300.9,398.3l8.9-41.7,9.7-1.3-3.1,14.5h.4a7.4,7.4,0,0,0,3.7-1,10.7,10.7,0,0,0,3-2.5,12.6,12.6,0,0,0,2-3.4,10.1,10.1,0,0,0,.8-3.7,7.4,7.4,0,0,0-.5-2.6,6.2,6.2,0,0,0-1.5-2.3,7.4,7.4,0,0,0-2.7-1.6,11.8,11.8,0,0,0-4-.6,18.1,18.1,0,0,0-3.9.4,16.9,16.9,0,0,0-3.8,1.3,17.3,17.3,0,0,0-3.4,2.2,13.7,13.7,0,0,0-2.8,3.1,15.6,15.6,0,0,0-1.9,4,16.6,16.6,0,0,0-.7,4.9,11.6,11.6,0,0,0,.1,2,7.4,7.4,0,0,0,.3,1.2l.3.7a.9.9,0,0,1,.1.4,8.6,8.6,0,0,1-5.2-1.3q-1.8-1.3-1.8-4.7a11.5,11.5,0,0,1,.9-4.4,15.9,15.9,0,0,1,2.5-4.1,21.2,21.2,0,0,1,3.8-3.6,27.2,27.2,0,0,1,4.9-2.8,29,29,0,0,1,5.6-1.8,28,28,0,0,1,6.1-.7,19.7,19.7,0,0,1,6.2.9,13.2,13.2,0,0,1,4.3,2.3,9.2,9.2,0,0,1,2.5,3.3,9.6,9.6,0,0,1,.8,3.9,10.8,10.8,0,0,1-.4,2.9,11,11,0,0,1-1.2,2.8,13.5,13.5,0,0,1-4.9,4.6,9.2,9.2,0,0,1,3.6,1.4,8.7,8.7,0,0,1,2.4,2.4,10,10,0,0,1,1.3,3.2,15.3,15.3,0,0,1,.4,3.6,24.3,24.3,0,0,1-.3,3.6,26.4,26.4,0,0,1-1,4.1,24.2,24.2,0,0,1-1.8,4.1,14.9,14.9,0,0,1-2.7,3.6,12.8,12.8,0,0,1-3.7,2.5,11.8,11.8,0,0,1-4.9,1l-2.2-.2a6.2,6.2,0,0,1-2.1-.7,4.6,4.6,0,0,1-1.6-1.5,4.4,4.4,0,0,1-.6-2.4,8.7,8.7,0,0,1,.2-1.8,12.3,12.3,0,0,1,.6-2,8.5,8.5,0,0,0,2.3,1.9,4.7,4.7,0,0,0,2.1.5,4.3,4.3,0,0,0,3-1.1,8.5,8.5,0,0,0,2-2.9,15.6,15.6,0,0,0,1.1-3.8,24.7,24.7,0,0,0,.3-3.9,16.5,16.5,0,0,0-.3-3.2,7.8,7.8,0,0,0-1-2.7,5.3,5.3,0,0,0-1.9-1.8,6,6,0,0,0-3-.7h-1.2l-1.8.2-5.4,25.1Z" fill="#511d2e"/><path d="M373.2,373.4a16.1,16.1,0,0,1-5,3.4,26,26,0,0,1-6.7,2,30.9,30.9,0,0,1-1.7,8.2,21.9,21.9,0,0,1-3.4,6.2,14.9,14.9,0,0,1-4.8,3.9,12.3,12.3,0,0,1-5.7,1.4,15.1,15.1,0,0,1-4.2-.6,8.5,8.5,0,0,1-3.3-1.8,8.3,8.3,0,0,1-2.2-3.2,13,13,0,0,1-.8-4.8,27.4,27.4,0,0,1,.4-4.4,31.5,31.5,0,0,1,1.3-5,30.1,30.1,0,0,1,2.3-5.1,19.5,19.5,0,0,1,3.4-4.4,16.2,16.2,0,0,1,4.6-3.2,14.2,14.2,0,0,1,6-1.2q8.4,0,8.4,10.5h.7a10.1,10.1,0,0,0,2.5-.3l2.7-.9,2.6-1.3,2.3-1.5ZM356.1,379a2,2,0,0,1-1.4-1,3.9,3.9,0,0,1-.4-1.7,4.1,4.1,0,0,1,.6-2.3,3.4,3.4,0,0,1,1.5-1.3,11.6,11.6,0,0,0-.2-1.8,3.8,3.8,0,0,0-.4-1.2,1.6,1.6,0,0,0-.7-.7l-1.1-.2a3.5,3.5,0,0,0-2.3.9,10.8,10.8,0,0,0-2.1,2.4,22.1,22.1,0,0,0-1.8,3.4,34,34,0,0,0-1.4,4,35.8,35.8,0,0,0-.9,4.1,23.2,23.2,0,0,0-.3,3.6,16.2,16.2,0,0,0,.2,2.7,4.1,4.1,0,0,0,.6,1.6,2,2,0,0,0,1,.8l1.6.2a3.6,3.6,0,0,0,2.4-1.1,10.9,10.9,0,0,0,2.2-2.9,22.8,22.8,0,0,0,1.8-4.3A32.1,32.1,0,0,0,356.1,379Z" fill="#511d2e"/><path d="M401,386.6a28.6,28.6,0,0,1-3,6.4,15.3,15.3,0,0,1-3.2,3.7,8.6,8.6,0,0,1-3.2,1.6,12,12,0,0,1-2.9.4,9.4,9.4,0,0,1-3.7-.6,6.3,6.3,0,0,1-2.4-1.7,6.4,6.4,0,0,1-1.3-2.4,9.4,9.4,0,0,1-.4-2.7,19.4,19.4,0,0,1,.5-3.9l1-4.6,1-4.5a18.4,18.4,0,0,0,.5-3.7q0-3.4-2.4-3.4a3.1,3.1,0,0,0-1.7.5,5.5,5.5,0,0,0-1.4,1.3,9.7,9.7,0,0,0-1.2,1.9,18.5,18.5,0,0,0-.9,2.4l-4.5,21h-9.4l6.9-32.8H379l-.7,3.4a12.1,12.1,0,0,1,2.1-1.9,9.8,9.8,0,0,1,2-1.1l1.9-.5H386a9.8,9.8,0,0,1,2.9.4,5.8,5.8,0,0,1,3.8,3.6,9.3,9.3,0,0,1,.5,3.4,18.3,18.3,0,0,1-.2,2.8q-.2,1.5-.6,3.1l-.8,3.2-.8,3q-.4,1.4-.6,2.7a11.4,11.4,0,0,0-.2,2.2,3.3,3.3,0,0,0,.6,2,2.4,2.4,0,0,0,2.1.8,4,4,0,0,0,1.9-.4,4.7,4.7,0,0,0,1.4-1.2,9.2,9.2,0,0,0,1.2-1.8l1-2.4Z" fill="#511d2e"/><path d="M417.4,363.5q.2,4.3.4,7.4t.3,5.4l.3,3.9.2,2.8q.1,1.2.2,2.2t0,2.1a11.5,11.5,0,0,1-.6,3.8,9.8,9.8,0,0,1-1.6,2.9,10.3,10.3,0,0,1-2.3,2.1,13.7,13.7,0,0,1-2.8,1.4,15.4,15.4,0,0,1-3,.8l-2.9.2a11.1,11.1,0,0,1-4.3-.8,9,9,0,0,1-3-2,7.6,7.6,0,0,1-1.7-2.7,8.5,8.5,0,0,1-.6-3,7.1,7.1,0,0,1,.3-2.1,7.5,7.5,0,0,1,.8-1.7,6.1,6.1,0,0,1,1.1-1.3l1.3-.9a79.7,79.7,0,0,0,4.6-9.8q1.9-4.8,3.4-9.7Zm-17.8,25.4a5.4,5.4,0,0,0,.9,3.4,3.7,3.7,0,0,0,3.1,1.1,7.4,7.4,0,0,0,2.1-.3,4.7,4.7,0,0,0,1.8-1,5.1,5.1,0,0,0,1.3-1.9,7.5,7.5,0,0,0,.5-2.9q0-.8,0-1.6v-1.7q-.1-.9-.2-2l-.3-2.5-.3-3.3-.4-4.4a55.6,55.6,0,0,1-2.3,6.2q-1.3,3-3,6.2a3.5,3.5,0,0,1,1.1.9,2.1,2.1,0,0,1,.4,1.4,3.7,3.7,0,0,1-.2,1.2,3.2,3.2,0,0,1-.6,1,2.9,2.9,0,0,1-.9.7,2.6,2.6,0,0,1-1.2.3l-1-.2A1.3,1.3,0,0,1,399.6,388.9Z" fill="#511d2e"/><path d="M236.4,29.4a20.6,20.6,0,0,0-1.3-2.5,18.3,18.3,0,0,0-19.6-8.5c-2.2.5-4.4,1.4-6.5,2,0,.1-11.3-15.3,0-17.7-.3.3-4.7-2.7-4.7-2.7s-7.1,15-3.6,20.4h.1c-6.3-1.9-13-3.6-19.2-.6C173.2,24,171,34,170.1,42.5a42.7,42.7,0,0,0,9.5,32c1,1.2,2.1,2.4,3.2,3.5l-.7,1.8A26.6,26.6,0,0,0,199,88.7l2,.2h7.5l2-.2a26.6,26.6,0,0,0,16.8-8.9l-.7-1.8c-.1-.3,3.4-3.7,3.8-4.2a43.8,43.8,0,0,0,3.6-5.3C240.5,57.2,241.8,41.6,236.4,29.4Z" fill="#511d2e"/><path d="M204.8,229.8v0Z" fill="#511d2e"/><polygon points="165.6 66.1 158.8 32.3 191.6 58.3 209.6 25.9 222 58.3 250.8 37.9 236.5 74.9 209.2 97 165.6 66.1" fill="#4bc7f2"/><path d="M363.6,128.5c-3.4-3.2-9.5-5-12.4-1.3s.6,9.4,4.1,12.9L373.2,158a103.8,103.8,0,0,0-.4-21.2C369.1,135.1,366.6,131.3,363.6,128.5Z" fill="#511d2e"/><path d="M335.5,189c-7.8-17.6-11.1-36.9-18.8-54.5-2.5-5.8-6.5-12-12.7-12.6s-13.2,7.9-13.3,15.5,3.3,14.9,4.4,22.5-.9,16.8-8,19.7-14.4-1.7-18.4-7.7-5.4-13.3-7.9-20.1-6.9-13.6-13.8-15.7-17.2,3.1-20.8,10.8-2.8,16.8-.3,25,6.6,15.7,9.6,23.7a88.7,88.7,0,0,1,4.7,41.8c-.8,6.5-2.5,13.1-6.3,18.4s-10.2,9.2-16.7,8.6-13.7-7.1-16.3-14.2-2.4-15-2.2-22.6l1.3-42.6c.2-6,.3-12.4-2.6-17.6s-10-8.7-15.1-5.6c-7.6,4.5-3.9,16.1-6.4,24.6a16.2,16.2,0,0,1-31.1,0c-1.7-6.1.2-12.5.6-18.8s-1.8-13.8-7.8-15.7-12.6,3.7-14.2,10,.1,12.9,1.2,19.3a116.7,116.7,0,0,1-1.4,48c-2.3,9.4-8.3,20.3-17.9,19.5s-14.1-14.5-14.2-25.1a258.7,258.7,0,0,1,8.1-67c.9-3.5,1.9-7.3.9-10.8s-4.8-6.5-8.2-5.2-4.2,5.2-5.1,8.5c-1.6,6.5-4.5,13.1-10.1,16.8s-14.2,3.3-17.8-2.3c-6.6-10.3,8.4-24.6,2.5-35.3-4.3-7.8-16.2-6.5-23.2-.7-9.2,42.6,9.9,82.8,38.7,114.4,33.4,36.8,76.2,59.9,115.2,89.7,2.5,1.9,5.2,4,8.3,4.8,5.5,1.4,11.2-1.1,15.8-4.4,42.7-30.5,88.8-56.7,122.9-97.6a175.8,175.8,0,0,0,14.2-19.6C345.7,207.7,339.7,198.5,335.5,189Z" fill="#4bc7f2"/><path d="M355.4,140.1c-3.5-3.5-7.2-9-4.1-12.9s8.9-1.9,12.4,1.3,5.5,6.6,9.2,8.4a104.5,104.5,0,0,0-3.8-17.9c-7.5-24.6-28.2-45.5-50.7-57.1-16.7-8.6-35.7-10.4-53.8-5.8a116.7,116.7,0,0,0-32.7,14.1,131.5,131.5,0,0,0-14.6,10.5c-1.1.9-13,11.2-12.7,11.7-5.2-7.7-14-13.6-21.6-18.8-11.5-7.8-24.1-14.1-37.6-17.5-18.2-4.6-37.1-2.8-53.8,5.8C68.9,73.4,48.1,94.3,40.6,118.9q-1.3,4.3-2.2,8.5c7-5.8,18.9-7.2,23.2.7,5.9,10.8-9.2,25-2.5,35.3,3.6,5.6,12.3,6.1,17.8,2.3S85.4,155.5,87,149c.8-3.3,1.8-7.3,5.1-8.5s7.2,1.7,8.2,5.2,0,7.2-.9,10.8a258.7,258.7,0,0,0-8.1,67c.1,10.6,3.6,24.2,14.2,25.1s15.7-10.1,17.9-19.5a116.7,116.7,0,0,0,1.4-48c-1.2-6.4-2.8-13-1.2-19.3s8-11.9,14.2-10,8.2,9.4,7.8,15.7-2.3,12.7-.6,18.8a16.2,16.2,0,0,0,31.1,0c2.4-8.5-1.2-20.1,6.4-24.6,5.2-3.1,12.2.4,15.1,5.6s2.8,11.6,2.6,17.6l-1.3,42.6c-.2,7.6-.4,15.4,2.2,22.6s8.7,13.6,16.3,14.2,12.9-3.3,16.7-8.6,5.5-11.9,6.3-18.4a88.7,88.7,0,0,0-4.7-41.8c-2.9-8-7-15.5-9.6-23.7s-3.3-17.3.3-25,12.6-13.3,20.8-10.8,11.3,8.9,13.8,15.7,3.9,14.1,7.9,20.1,11.8,10.4,18.4,7.7,9.1-12.2,8-19.7-4.5-14.8-4.4-22.5,5.6-16.2,13.3-15.5,10.2,6.9,12.7,12.6c7.7,17.6,11,36.9,18.8,54.5,4.2,9.5,10.2,18.7,17.9,25.7,10.9-17.5,18.2-36.7,19.9-56.7ZM204.8,229.8h0v0Z" fill="#511d2e"/><rect x="114.6" y="95.2" width="7.5" height="20.26" transform="translate(-39.8 114.5) rotate(-45)" fill="#4bc7f2"/><rect x="145.8" y="111.7" width="7.5" height="20.26" transform="translate(139.1 -70.7) rotate(47.7)" fill="#4bc7f2"/><rect x="235.9" y="79.7" width="7.5" height="20.26" transform="translate(144.9 -147.9) rotate(47.7)" fill="#4bc7f2"/><rect x="202.1" y="110.4" width="7.5" height="20.26" transform="translate(-27.6 169.8) rotate(-42.3)" fill="#4bc7f2"/><rect x="278.3" y="75.2" width="7.5" height="20.26" transform="translate(15.9 212) rotate(-42.3)" fill="#4bc7f2"/><rect x="259.8" y="106" width="7.5" height="20.26" transform="translate(119.7 -133.3) rotate(36.3)" fill="#4bc7f2"/><rect x="140.8" y="75.2" width="7.5" height="20.26" transform="translate(78.5 -68.9) rotate(36.3)" fill="#4bc7f2"/><rect x="98.9" y="69.3" width="7.5" height="20.26" transform="translate(66.8 -45.3) rotate(36.3)" fill="#4bc7f2"/></svg>