<svg id="Layer_1" data-name="Layer 1" xmlns="http://www.w3.org/2000/svg" width="13.4in" height="6.2in" viewBox="0 0 964.5 445.5"><title>navpattern</title><path d="M80.9,3.7C85.8,2.8,90.5.7,95.5.1A208.6,208.6,0,0,1,260.2,71.6c17.5,19.9,31,43.3,40.2,68.1a211.1,211.1,0,0,1,88.4-92,207.8,207.8,0,0,1,213.9,9.3c24,15.4,44.2,36.4,60,60,4.9,7.7,9.8,15.5,13.3,23.9,17.5-51.5,56.4-95,105-119.1A207.8,207.8,0,0,1,828.6,5,177.1,177.1,0,0,1,884.5.7c9.9,3.6,19.9,7.7,28.2,14.3,23.2,17.2,36.1,46.6,35.3,75.2a93.8,93.8,0,0,1-17.2,52.8,92.4,92.4,0,0,1,33.7,72.1,91.6,91.6,0,0,1-21.2,60.3c19.1,24.8,24.2,59.2,14,88.7-8.1,24.1-26.9,45.2-51.3,53.3-4.5.6-7.9,4.3-12.5,4.6-11,1-22.1,1.8-33.1.6-62.1-2.9-121.3-36.6-157.2-87.1a231.7,231.7,0,0,1-17.8-29.8,212.4,212.4,0,0,1-55.4,84.1,209.3,209.3,0,0,1-93.8,50.2c-14,3.6-28.4,4.3-42.7,5.4-23.6.2-47.5-2.5-70-10A213.5,213.5,0,0,1,333,376.7c-18.3-20.7-33.1-44.7-42.2-70.9A209.4,209.4,0,0,1,141.5,419.8c-11.6,2-23.3,2.7-35,3.5-8.7.5-17.3-1.3-26-1-6.2.2-12.2-1.9-18-3.9C51,413.8,40.2,407,32,397.7c-29.3-30.9-32.5-82.5-7.8-117-17-18.2-25.4-43.7-24-68.5.1-13.8,4.3-27.4,10.7-39.5s15.2-22.3,26-30.3A94.9,94.9,0,0,1,21.7,78.2C23.7,64,28.3,50,36.3,38.1,46.8,22.2,62.4,9.1,80.9,3.7M94.5,32.3C85.3,34.5,76.3,38.5,70,45.7c-12.9,12.4-18.8,31-17.5,48.6,1.3,13.8,6.1,27.8,15.8,37.9A15.6,15.6,0,0,1,73,145.2c-.4,4.8-3.9,8.5-5.9,12.7s-6.2,6-9.8,8.2c-13.2,8.3-21.8,22.7-25.2,37.7-3.5,20.6,1.5,43.9,17.4,58.4,4,4.1,9.9,6.2,12.5,11.5a15.5,15.5,0,0,1-3,18.1c-2.3,2.4-5.6,3.5-8.7,4.5-2.9,5.5-6.6,10.8-8.2,16.9-7.2,20.4-3.2,44.5,10.5,61.3,7.3,7.7,16.2,14.8,26.9,16.7,10-.2,20,2,30,.9,8.4-.6,16.8-1.2,25.1-2.5A176.8,176.8,0,0,0,224,344.7a181.5,181.5,0,0,0,52.3-88.3c-32.4,17.3-68.9,27.5-105.8,28.1-7.8-.3-14.5-7.6-14.3-15.4a15.4,15.4,0,0,1,14.2-15.4,288.1,288.1,0,0,0,30.9-3.3,209.6,209.6,0,0,0,77.5-31.7c.3-3.3.6-6.5.9-9.8-28.3-30.2-67-49.9-107.4-57.9a15.4,15.4,0,0,1-5.6-28.5c4-2.6,9.1-2.6,13.7-1.5,34,7.1,66.8,21.2,94.6,42.2-3.2-10.4-6.4-20.8-11.2-30.5A181.6,181.6,0,0,0,215,70.7,177.8,177.8,0,0,0,111.5,31.2c-5.7-.2-11.5-.8-16.9,1.1m756.8.4C822,36,793.8,47.4,769.8,64.6c-30.2,21.9-53.6,53.1-65.4,88.5,22.7-13,47.2-23.3,73-28,7.8-1.4,15.9,4.4,17.3,12.2s-3.9,16.8-12,18.3c-31.9,6.9-62.3,21-87.6,41.7.2,7.1,1.7,14,1.9,21,.3,1.9-.3,4.4,1.9,5.4a206.4,206.4,0,0,0,97.8,34.5A15.4,15.4,0,0,1,809,268.6a15.6,15.6,0,0,1-7.7,18.4c-5,2.8-10.9,1.4-16.3.9a239.8,239.8,0,0,1-83.5-26.7c6.9,25,19.8,48,36.1,68,6.7,8.3,14.8,15.2,22.7,22.3a178.2,178.2,0,0,0,82.2,38.1c15.9,2.1,32.1,3.8,48.1,1.5,5.9-3,12.2-5.3,17.5-9.3,8.9-6,15.1-15.3,19.1-25.1a65.9,65.9,0,0,0-1.4-50.9c-3.3-7.5-8.6-13.9-13.9-20a15.4,15.4,0,0,1-3.9-16.5c1.9-5.6,7.4-8.4,11-12.8,16.5-19.7,19.4-49.8,6.4-72.1-5.4-10.2-14.3-18.3-24.6-23.4S889,141.9,897,134.8c20.2-17.8,25.5-49.1,14.3-73.2-6.2-14.3-18.7-25.7-33.7-30.1-8.8-.8-17.5.4-26.2,1.2M480.8,53.6a171.6,171.6,0,0,0-57,11.9A178.9,178.9,0,0,0,335,140.8c-21.1,34.9-29.5,77-24.3,117.3,3,17.8,7.1,35.5,15,51.8s17.2,30.9,28.6,44.4c25,27.8,58.4,48.2,95.1,56.1,10.8,2.6,21.9,3.3,33,4,9.4.7,18.7-.6,28.1-1.4,13.5-1.1,26.7-4.9,39.5-9.4A180.1,180.1,0,0,0,666.3,246.2c-1.5-12.2-2.9-24.6-2.6-36.9a52.5,52.5,0,0,0-1.6-16.4,182.5,182.5,0,0,0-37.2-75c-10.9-13.1-23.4-24.9-37.8-34.1A175.2,175.2,0,0,0,480.8,53.6Z" fill="#ff71d7"/><path d="M128.9,47.8c8.1-2.2,17.2,3.3,18.8,11.5s-3.6,17-11.8,18.5-17.4-4.1-18.5-12.6A15.5,15.5,0,0,1,128.9,47.8Z" fill="#ff71d7"/><path d="M868.9,67.9c7.9-2.8,17.4,2.1,19.6,10.3s-3.2,18.2-11.9,19.6-16.9-4.3-18.1-12.5A15.5,15.5,0,0,1,868.9,67.9Z" fill="#ff71d7"/><path d="M548.9,87.7c8.9-2.8,19,4.2,19.5,13.5S562.1,118,553.5,118s-15.8-6.5-16-14.6A15.5,15.5,0,0,1,548.9,87.7Z" fill="#ff71d7"/><path d="M428.8,118.8c8.5-3.5,19.1,2.4,20.6,11.5a15.5,15.5,0,1,1-20.6-11.5Z" fill="#ff71d7"/><path d="M80.9,167.8A15.5,15.5,0,0,1,98.8,179c1.7,7.5-1.6,16.4-8.8,19.8a15.5,15.5,0,0,1-19.2-4.9C64,184.9,69.6,169.7,80.9,167.8Z" fill="#ff71d7"/><path d="M533.9,169.7c8.3-2.9,18.1,2.8,19.7,11.5s-3.9,17.1-12.2,18.5a15.5,15.5,0,0,1-7.6-29.9Z" fill="#ff71d7"/><path d="M752.8,178.6c8.2-3.4,18.5,2,20.4,10.7s-3.9,18-12.6,19.1-16.7-4.8-17.6-13.1A15.5,15.5,0,0,1,752.8,178.6Z" fill="#ff71d7"/><path d="M192.9,194.9c8.5-2.1,17.8,4.5,18.6,13.3s-5.5,16.7-14,17.2-16.3-5.8-16.7-14A15.5,15.5,0,0,1,192.9,194.9Z" fill="#ff71d7"/><path d="M345.9,206.9c9.9-2.5,21,6.1,20.6,16.4a15.4,15.4,0,0,1-10,14.2c-9.6,3.8-21.5-3.9-22.3-14.2A15.6,15.6,0,0,1,345.9,206.9Z" fill="#ff71d7"/><path d="M857.8,207.7c10.5-4.2,22.7,5.7,21.9,16.7a15.5,15.5,0,0,1-13.3,14.4c-10.2,1.6-20.2-8.4-18.7-18.6A15.5,15.5,0,0,1,857.8,207.7Z" fill="#ff71d7"/><path d="M592.8,228.6c8-3.2,17.9,1.7,20.1,10s-2.9,17.9-11.4,19.6a15.4,15.4,0,0,1-8.8-29.6Z" fill="#ff71d7"/><path d="M450.9,237c8.5-2.7,18.2,3.4,19.5,12.2s-5.1,17.5-13.8,18-16.2-5.7-16.8-13.9A15.5,15.5,0,0,1,450.9,237Z" fill="#ff71d7"/><path d="M392.9,299.9a15.5,15.5,0,0,1,18.3,9.7c2.4,7.1.2,16-6.4,20.1a15.6,15.6,0,0,1-20.5-3.3C377.3,317.8,381.7,302.3,392.9,299.9Z" fill="#ff71d7"/><path d="M778.9,307.8c8.5-2.7,18.4,3.5,19.5,12.3s-5.2,17.4-13.8,17.9-16-5.5-16.7-13.6A15.5,15.5,0,0,1,778.9,307.8Z" fill="#ff71d7"/><path d="M95.7,327.6c9.2-3.6,20.3,3.7,20.5,13.6s-10.6,19.5-20.7,16.8A15.5,15.5,0,0,1,84,342.3C84.1,335.4,89.4,329.6,95.7,327.6Z" fill="#ff71d7"/><path d="M875.9,328c8.9-2.9,19.1,4,19.7,13.3,1.5,7.4-3,15.6-10.3,17.8s-18.7-2.8-20.1-11.7S867.7,330.2,875.9,328Z" fill="#ff71d7"/><path d="M543.9,346.9c8.5-3.4,18.9,2.3,20.5,11.3s-4.4,17.5-13,18.5a15.5,15.5,0,0,1-7.6-29.8Z" fill="#ff71d7"/></svg>