<svg id="Layer_1" data-name="Layer 1" xmlns="http://www.w3.org/2000/svg" width="1.4in" height="1.4in" viewBox="0 0 100 100"><title>pattern</title><rect width="100" height="100" fill="#70defc"/><circle cx="54.5" cy="58" r="3.6" fill="#4bc7f2"/><circle cx="88.4" cy="61.6" r="3.6" fill="#4bc7f2"/><circle cx="67.4" cy="30" r="17.4" fill="#4bc7f2"/><circle cx="17.7" cy="48.8" r="10.3" fill="#4bc7f2"/><circle cx="28.1" cy="78.8" r="9.3" transform="matrix(0.08, -1, 1, 0.08, -52.81, 100.28)" fill="#4bc7f2"/><circle cx="71.9" cy="79.6" r="9.3" fill="#4bc7f2"/><circle cx="25.7" cy="17.6" r="9.3" fill="#4bc7f2"/><polygon points="63.9 14.3 65.4 4.5 58.1 7.8 51.4 6.5 51.4 11.8 43.7 14.3 55.9 18.6 63.9 14.3" fill="#4bc7f2"/><polygon points="71.8 44.7 70.3 54.4 77.6 51.2 84.3 52.4 84.3 47.2 92 44.7 79.8 40.3 71.8 44.7" fill="#4bc7f2"/></svg>