<svg id="Layer_1" data-name="Layer 1" xmlns="http://www.w3.org/2000/svg" width="1.4in" height="1.4in" viewBox="0 0 100 100"><title>pattern</title><rect x="12.3" y="14.3" width="3.8" height="15.83" transform="translate(-10.3 12.6) rotate(-35.9)" fill="#511d2e"/><rect x="70.9" y="59.2" width="3.7" height="15.83" transform="translate(-26.1 71.1) rotate(-45)" fill="#511d2e"/><rect x="12.3" y="65.6" width="3.8" height="15.83" transform="translate(55.6 136) rotate(157.4)" fill="#511d2e"/><rect x="41.2" y="53.7" width="3.3" height="6.93" transform="translate(49.7 -14) rotate(42.4)" fill="#511d2e"/><rect x="82" y="85.5" width="3.3" height="6.93" transform="translate(81.7 -33.1) rotate(42.4)" fill="#511d2e"/><rect x="19" y="44.1" width="3.3" height="6.93" transform="translate(-27.6 28.6) rotate(-45)" fill="#511d2e"/><rect x="48.1" y="82.4" width="3.7" height="13.11" transform="translate(73 -10.5) rotate(42.4)" fill="#511d2e"/><rect x="45.2" y="26.9" width="3.7" height="13.11" transform="translate(34.9 -23) rotate(42.4)" fill="#511d2e"/><rect x="82.7" y="42" width="1.9" height="6.56" transform="translate(52.3 -44.5) rotate(42.4)" fill="#511d2e"/><rect x="77" y="18.8" width="3.7" height="13.11" transform="translate(-1.3 46.1) rotate(-32.3)" fill="#511d2e"/><rect x="40.7" y="5.7" width="2.1" height="7.43" transform="translate(1.4 23.8) rotate(-32.3)" fill="#511d2e"/></svg>